G04 EAGLE Gerber RS-274X export*
G75*
%MOMM*%
%FSLAX34Y34*%
%LPD*%
%INSoldermask Top*%
%IPPOS*%
%AMOC8*
5,1,8,0,0,1.08239X$1,22.5*%
G01*
%ADD10C,3.453200*%
%ADD11C,1.524000*%
%ADD12C,2.153200*%
%ADD13P,2.034460X8X202.500000*%
%ADD14P,2.034460X8X22.500000*%
%ADD15P,2.034460X8X292.500000*%
%ADD16P,1.767759X8X112.500000*%
%ADD17P,1.767759X8X292.500000*%
%ADD18C,1.993900*%
%ADD19C,1.879600*%
%ADD20P,1.767759X8X22.500000*%
%ADD21P,1.843527X8X22.500000*%
%ADD22C,1.727200*%


D10*
X160000Y250000D03*
X590000Y250000D03*
X375000Y430000D03*
X375000Y70000D03*
D11*
X209900Y205296D02*
X209900Y218504D01*
X235300Y218504D02*
X235300Y205296D01*
X260700Y205296D02*
X260700Y218504D01*
X286100Y218504D02*
X286100Y205296D01*
X311500Y205296D02*
X311500Y218504D01*
X336900Y218504D02*
X336900Y205296D01*
X362300Y205296D02*
X362300Y218504D01*
X387700Y218504D02*
X387700Y205296D01*
X413100Y205296D02*
X413100Y218504D01*
X438500Y218504D02*
X438500Y205296D01*
X463900Y205296D02*
X463900Y218504D01*
X489300Y218504D02*
X489300Y205296D01*
X514700Y205296D02*
X514700Y218504D01*
X540100Y218504D02*
X540100Y205296D01*
X540100Y281496D02*
X540100Y294704D01*
X514700Y294704D02*
X514700Y281496D01*
X489300Y281496D02*
X489300Y294704D01*
X463900Y294704D02*
X463900Y281496D01*
X438500Y281496D02*
X438500Y294704D01*
X413100Y294704D02*
X413100Y281496D01*
X387700Y281496D02*
X387700Y294704D01*
X362300Y294704D02*
X362300Y281496D01*
X336900Y281496D02*
X336900Y294704D01*
X311500Y294704D02*
X311500Y281496D01*
X286100Y281496D02*
X286100Y294704D01*
X260700Y294704D02*
X260700Y281496D01*
X235300Y281496D02*
X235300Y294704D01*
X209900Y294704D02*
X209900Y281496D01*
D12*
X512500Y460000D03*
X547500Y460000D03*
X710000Y232500D03*
X710000Y197500D03*
X710000Y302500D03*
X710000Y267500D03*
D13*
X222700Y340000D03*
X197300Y340000D03*
D14*
X527300Y340000D03*
X552700Y340000D03*
D13*
X222700Y160000D03*
X197300Y160000D03*
D14*
X527300Y160000D03*
X552700Y160000D03*
D15*
X240000Y462700D03*
X240000Y437300D03*
D16*
X290000Y349200D03*
X290000Y450800D03*
D17*
X80000Y300800D03*
X80000Y199200D03*
D18*
X133531Y454892D02*
X151438Y454892D01*
X26470Y454892D02*
X8563Y454892D01*
X133531Y405108D02*
X151438Y405108D01*
X26470Y405108D02*
X8563Y405108D01*
X8563Y45108D02*
X26470Y45108D01*
X133531Y45108D02*
X151438Y45108D01*
X26470Y94892D02*
X8563Y94892D01*
X133531Y94892D02*
X151438Y94892D01*
X723531Y454892D02*
X741438Y454892D01*
X616470Y454892D02*
X598563Y454892D01*
X723531Y405108D02*
X741438Y405108D01*
X616470Y405108D02*
X598563Y405108D01*
X598563Y45108D02*
X616470Y45108D01*
X723531Y45108D02*
X741438Y45108D01*
X616470Y94892D02*
X598563Y94892D01*
X723531Y94892D02*
X741438Y94892D01*
D19*
X375000Y480000D03*
X349600Y480000D03*
X400400Y480000D03*
D16*
X110000Y199200D03*
X110000Y300800D03*
D17*
X460000Y450800D03*
X460000Y349200D03*
D20*
X459200Y80000D03*
X560800Y80000D03*
D17*
X50000Y300800D03*
X50000Y199200D03*
X20000Y300800D03*
X20000Y199200D03*
D20*
X459200Y50000D03*
X560800Y50000D03*
D16*
X430000Y349200D03*
X430000Y450800D03*
D17*
X320000Y450800D03*
X320000Y349200D03*
D21*
X434600Y180000D03*
X485400Y180000D03*
D22*
X215108Y72606D02*
X199868Y72606D01*
X199868Y27394D02*
X215108Y27394D01*
X264892Y72606D02*
X280132Y72606D01*
X280132Y27394D02*
X264892Y27394D01*
D20*
X329200Y320000D03*
X430800Y320000D03*
M02*
