G04 EAGLE Gerber RS-274X export*
G75*
%MOMM*%
%FSLAX34Y34*%
%LPD*%
%INTop Copper*%
%IPPOS*%
%AMOC8*
5,1,8,0,0,1.08239X$1,22.5*%
G01*
%ADD10C,1.320800*%
%ADD11C,1.950000*%
%ADD12P,1.814519X8X202.500000*%
%ADD13P,1.814519X8X22.500000*%
%ADD14P,1.814519X8X292.500000*%
%ADD15P,1.547818X8X112.500000*%
%ADD16P,1.547818X8X292.500000*%
%ADD17C,1.790700*%
%ADD18C,1.676400*%
%ADD19P,1.547818X8X22.500000*%
%ADD20P,1.623585X8X22.500000*%
%ADD21C,1.524000*%
%ADD22C,0.635000*%
%ADD23C,0.914400*%
%ADD24C,0.304800*%
%ADD25C,0.762000*%

G36*
X190685Y33631D02*
X190685Y33631D01*
X190781Y33636D01*
X190824Y33651D01*
X190869Y33658D01*
X190957Y33697D01*
X191048Y33729D01*
X191082Y33754D01*
X191126Y33774D01*
X191223Y33857D01*
X191297Y33910D01*
X193825Y36439D01*
X197746Y38063D01*
X217230Y38063D01*
X221151Y36439D01*
X223679Y33910D01*
X223756Y33853D01*
X223828Y33788D01*
X223869Y33768D01*
X223905Y33741D01*
X223995Y33707D01*
X224081Y33665D01*
X224124Y33659D01*
X224169Y33642D01*
X224297Y33632D01*
X224386Y33618D01*
X255614Y33618D01*
X255709Y33631D01*
X255805Y33636D01*
X255848Y33651D01*
X255893Y33658D01*
X255981Y33697D01*
X256072Y33729D01*
X256106Y33754D01*
X256150Y33774D01*
X256247Y33857D01*
X256321Y33910D01*
X258849Y36439D01*
X262770Y38063D01*
X282254Y38063D01*
X286175Y36439D01*
X288703Y33910D01*
X288780Y33853D01*
X288852Y33788D01*
X288893Y33768D01*
X288929Y33741D01*
X289019Y33707D01*
X289105Y33665D01*
X289148Y33659D01*
X289193Y33642D01*
X289321Y33632D01*
X289410Y33618D01*
X586810Y33618D01*
X586905Y33631D01*
X587001Y33636D01*
X587044Y33651D01*
X587089Y33658D01*
X587177Y33697D01*
X587268Y33729D01*
X587302Y33754D01*
X587346Y33774D01*
X587444Y33857D01*
X587517Y33910D01*
X589445Y35839D01*
X589483Y35890D01*
X589530Y35935D01*
X589568Y36002D01*
X589614Y36064D01*
X589637Y36124D01*
X589669Y36180D01*
X589686Y36256D01*
X589714Y36328D01*
X589719Y36392D01*
X589734Y36455D01*
X589730Y36532D01*
X589736Y36609D01*
X589722Y36672D01*
X589719Y36736D01*
X589694Y36810D01*
X589678Y36885D01*
X589648Y36942D01*
X589627Y37003D01*
X589585Y37059D01*
X589546Y37134D01*
X589486Y37195D01*
X589445Y37252D01*
X588388Y38309D01*
X586560Y42721D01*
X586560Y47495D01*
X588388Y51907D01*
X591764Y55283D01*
X596175Y57110D01*
X618857Y57110D01*
X623268Y55283D01*
X626658Y51893D01*
X626704Y51819D01*
X626771Y51706D01*
X626778Y51699D01*
X626783Y51691D01*
X626881Y51603D01*
X626976Y51513D01*
X626985Y51509D01*
X626992Y51502D01*
X627111Y51445D01*
X627228Y51385D01*
X627237Y51383D01*
X627246Y51379D01*
X627322Y51367D01*
X627505Y51333D01*
X627529Y51335D01*
X627550Y51332D01*
X712450Y51332D01*
X712459Y51333D01*
X712468Y51332D01*
X712598Y51353D01*
X712729Y51372D01*
X712738Y51375D01*
X712747Y51377D01*
X712866Y51434D01*
X712986Y51488D01*
X712993Y51494D01*
X713002Y51498D01*
X713100Y51586D01*
X713200Y51671D01*
X713205Y51679D01*
X713212Y51685D01*
X713252Y51751D01*
X713352Y51903D01*
X716732Y55283D01*
X721143Y57110D01*
X738078Y57110D01*
X738142Y57119D01*
X738206Y57118D01*
X738281Y57139D01*
X738357Y57150D01*
X738416Y57176D01*
X738478Y57194D01*
X738544Y57234D01*
X738614Y57266D01*
X738663Y57308D01*
X738718Y57342D01*
X738770Y57399D01*
X738828Y57450D01*
X738864Y57503D01*
X738907Y57551D01*
X738940Y57621D01*
X738983Y57686D01*
X739002Y57747D01*
X739030Y57805D01*
X739041Y57874D01*
X739065Y57955D01*
X739066Y58040D01*
X739077Y58109D01*
X739077Y81891D01*
X739068Y81952D01*
X739069Y81997D01*
X739069Y81998D01*
X739069Y82018D01*
X739048Y82093D01*
X739037Y82170D01*
X739011Y82228D01*
X738994Y82290D01*
X738953Y82356D01*
X738921Y82427D01*
X738879Y82475D01*
X738846Y82530D01*
X738788Y82582D01*
X738738Y82641D01*
X738684Y82676D01*
X738636Y82719D01*
X738567Y82753D01*
X738502Y82795D01*
X738440Y82814D01*
X738383Y82842D01*
X738313Y82853D01*
X738232Y82878D01*
X738147Y82879D01*
X738078Y82890D01*
X721143Y82890D01*
X716732Y84717D01*
X713356Y88093D01*
X712689Y89702D01*
X712684Y89711D01*
X712682Y89720D01*
X712612Y89832D01*
X712545Y89945D01*
X712538Y89952D01*
X712533Y89960D01*
X712435Y90048D01*
X712340Y90138D01*
X712331Y90142D01*
X712324Y90149D01*
X712205Y90206D01*
X712088Y90266D01*
X712079Y90268D01*
X712070Y90272D01*
X711994Y90284D01*
X711811Y90318D01*
X711787Y90316D01*
X711766Y90319D01*
X628234Y90319D01*
X628225Y90318D01*
X628215Y90319D01*
X628085Y90298D01*
X627955Y90279D01*
X627946Y90276D01*
X627937Y90274D01*
X627818Y90217D01*
X627698Y90163D01*
X627691Y90157D01*
X627682Y90153D01*
X627584Y90065D01*
X627484Y89980D01*
X627479Y89972D01*
X627472Y89966D01*
X627432Y89900D01*
X627329Y89744D01*
X627322Y89721D01*
X627311Y89702D01*
X626644Y88093D01*
X623268Y84717D01*
X618857Y82890D01*
X602395Y82890D01*
X602300Y82876D01*
X602203Y82871D01*
X602160Y82856D01*
X602115Y82850D01*
X602028Y82810D01*
X601937Y82779D01*
X601903Y82754D01*
X601858Y82734D01*
X601761Y82650D01*
X601688Y82597D01*
X571291Y52201D01*
X571234Y52124D01*
X571169Y52052D01*
X571149Y52011D01*
X571122Y51975D01*
X571088Y51885D01*
X571046Y51799D01*
X571040Y51757D01*
X571023Y51711D01*
X571013Y51583D01*
X570999Y51494D01*
X570999Y45776D01*
X565024Y39801D01*
X556576Y39801D01*
X551242Y45135D01*
X551165Y45192D01*
X551094Y45257D01*
X551053Y45277D01*
X551017Y45304D01*
X550927Y45338D01*
X550840Y45380D01*
X550798Y45386D01*
X550753Y45403D01*
X550625Y45413D01*
X550536Y45427D01*
X509106Y45427D01*
X470597Y83937D01*
X470571Y83956D01*
X470550Y83980D01*
X470458Y84040D01*
X470371Y84106D01*
X470341Y84117D01*
X470314Y84135D01*
X470209Y84167D01*
X470107Y84205D01*
X470075Y84208D01*
X470044Y84217D01*
X469935Y84219D01*
X469826Y84227D01*
X469794Y84221D01*
X469762Y84221D01*
X469657Y84192D01*
X469550Y84170D01*
X469521Y84155D01*
X469490Y84146D01*
X469397Y84088D01*
X469301Y84037D01*
X469278Y84015D01*
X469250Y83998D01*
X469177Y83917D01*
X469099Y83840D01*
X469083Y83812D01*
X469061Y83788D01*
X469014Y83690D01*
X468960Y83595D01*
X468952Y83564D01*
X468938Y83535D01*
X468924Y83445D01*
X468895Y83321D01*
X468897Y83272D01*
X468891Y83230D01*
X468891Y81999D01*
X461199Y81999D01*
X461199Y89691D01*
X462430Y89691D01*
X462462Y89695D01*
X462494Y89693D01*
X462601Y89715D01*
X462709Y89731D01*
X462739Y89744D01*
X462770Y89750D01*
X462867Y89802D01*
X462966Y89847D01*
X462991Y89868D01*
X463019Y89883D01*
X463097Y89959D01*
X463180Y90030D01*
X463198Y90057D01*
X463221Y90080D01*
X463275Y90175D01*
X463335Y90266D01*
X463344Y90297D01*
X463360Y90325D01*
X463385Y90432D01*
X463417Y90536D01*
X463418Y90568D01*
X463425Y90599D01*
X463420Y90709D01*
X463421Y90818D01*
X463413Y90849D01*
X463411Y90881D01*
X463375Y90984D01*
X463346Y91090D01*
X463329Y91117D01*
X463318Y91148D01*
X463265Y91221D01*
X463198Y91330D01*
X463162Y91362D01*
X463137Y91397D01*
X454399Y100135D01*
X454322Y100192D01*
X454250Y100257D01*
X454209Y100277D01*
X454173Y100304D01*
X454083Y100338D01*
X453997Y100380D01*
X453955Y100386D01*
X453909Y100403D01*
X453781Y100413D01*
X453692Y100427D01*
X343106Y100427D01*
X319427Y124106D01*
X319427Y197160D01*
X319423Y197192D01*
X319425Y197224D01*
X319403Y197331D01*
X319387Y197439D01*
X319374Y197468D01*
X319368Y197500D01*
X319316Y197597D01*
X319271Y197696D01*
X319250Y197720D01*
X319235Y197749D01*
X319159Y197827D01*
X319088Y197910D01*
X319061Y197928D01*
X319038Y197951D01*
X318943Y198005D01*
X318852Y198065D01*
X318821Y198074D01*
X318793Y198090D01*
X318687Y198115D01*
X318582Y198147D01*
X318550Y198148D01*
X318519Y198155D01*
X318409Y198149D01*
X318300Y198151D01*
X318269Y198142D01*
X318237Y198141D01*
X318134Y198105D01*
X318028Y198076D01*
X318001Y198059D01*
X317970Y198048D01*
X317897Y197995D01*
X317788Y197928D01*
X317756Y197892D01*
X317721Y197866D01*
X316968Y197113D01*
X316690Y196998D01*
X316681Y196993D01*
X316672Y196990D01*
X316560Y196921D01*
X316447Y196854D01*
X316440Y196847D01*
X316432Y196842D01*
X316344Y196744D01*
X316254Y196648D01*
X316250Y196640D01*
X316243Y196633D01*
X316186Y196514D01*
X316126Y196397D01*
X316124Y196387D01*
X316120Y196379D01*
X316108Y196303D01*
X316074Y196120D01*
X316076Y196096D01*
X316073Y196074D01*
X316073Y112212D01*
X286550Y82689D01*
X286511Y82638D01*
X286465Y82593D01*
X286427Y82525D01*
X286381Y82464D01*
X286358Y82403D01*
X286326Y82347D01*
X286308Y82272D01*
X286281Y82200D01*
X286276Y82136D01*
X286261Y82073D01*
X286265Y81996D01*
X286259Y81918D01*
X286272Y81856D01*
X286276Y81791D01*
X286301Y81718D01*
X286317Y81642D01*
X286347Y81586D01*
X286368Y81525D01*
X286410Y81468D01*
X286449Y81393D01*
X286509Y81333D01*
X286550Y81276D01*
X289177Y78649D01*
X290801Y74728D01*
X290801Y70484D01*
X289176Y66563D01*
X286175Y63562D01*
X282254Y61937D01*
X262770Y61937D01*
X258849Y63562D01*
X255847Y66563D01*
X255494Y67416D01*
X255489Y67425D01*
X255487Y67434D01*
X255417Y67546D01*
X255350Y67659D01*
X255343Y67666D01*
X255338Y67674D01*
X255241Y67762D01*
X255145Y67852D01*
X255136Y67856D01*
X255129Y67863D01*
X255011Y67920D01*
X254893Y67980D01*
X254884Y67982D01*
X254875Y67986D01*
X254799Y67998D01*
X254616Y68032D01*
X254592Y68030D01*
X254571Y68033D01*
X225429Y68033D01*
X225420Y68032D01*
X225411Y68033D01*
X225280Y68012D01*
X225150Y67993D01*
X225142Y67990D01*
X225132Y67988D01*
X225013Y67931D01*
X224893Y67877D01*
X224886Y67871D01*
X224877Y67867D01*
X224779Y67779D01*
X224679Y67694D01*
X224674Y67686D01*
X224667Y67680D01*
X224626Y67614D01*
X224524Y67458D01*
X224517Y67435D01*
X224506Y67416D01*
X224153Y66563D01*
X221151Y63562D01*
X217230Y61937D01*
X197746Y61937D01*
X193825Y63562D01*
X190824Y66563D01*
X189199Y70484D01*
X189199Y74728D01*
X190824Y78649D01*
X193825Y81650D01*
X197746Y83275D01*
X217230Y83275D01*
X221151Y81650D01*
X224153Y78649D01*
X224506Y77796D01*
X224511Y77787D01*
X224513Y77778D01*
X224583Y77666D01*
X224650Y77553D01*
X224657Y77546D01*
X224662Y77538D01*
X224759Y77450D01*
X224855Y77360D01*
X224864Y77356D01*
X224871Y77349D01*
X224989Y77292D01*
X225107Y77232D01*
X225116Y77230D01*
X225125Y77226D01*
X225201Y77214D01*
X225384Y77180D01*
X225408Y77182D01*
X225429Y77179D01*
X254571Y77179D01*
X254580Y77180D01*
X254589Y77179D01*
X254720Y77200D01*
X254850Y77219D01*
X254858Y77222D01*
X254868Y77224D01*
X254987Y77281D01*
X255107Y77335D01*
X255114Y77341D01*
X255123Y77345D01*
X255221Y77433D01*
X255321Y77518D01*
X255326Y77526D01*
X255333Y77532D01*
X255374Y77598D01*
X255476Y77754D01*
X255483Y77777D01*
X255494Y77796D01*
X255847Y78649D01*
X258849Y81650D01*
X262770Y83275D01*
X273788Y83275D01*
X273883Y83288D01*
X273979Y83293D01*
X274022Y83308D01*
X274067Y83315D01*
X274155Y83354D01*
X274246Y83386D01*
X274280Y83411D01*
X274324Y83431D01*
X274421Y83514D01*
X274495Y83567D01*
X306635Y115707D01*
X306692Y115784D01*
X306757Y115856D01*
X306777Y115897D01*
X306804Y115933D01*
X306838Y116023D01*
X306880Y116109D01*
X306886Y116151D01*
X306903Y116197D01*
X306913Y116325D01*
X306927Y116414D01*
X306927Y196074D01*
X306926Y196084D01*
X306927Y196093D01*
X306906Y196223D01*
X306887Y196354D01*
X306884Y196362D01*
X306882Y196372D01*
X306825Y196491D01*
X306771Y196611D01*
X306765Y196618D01*
X306761Y196626D01*
X306673Y196725D01*
X306588Y196825D01*
X306580Y196830D01*
X306574Y196837D01*
X306508Y196877D01*
X306352Y196979D01*
X306329Y196986D01*
X306310Y196998D01*
X306032Y197113D01*
X303317Y199828D01*
X301847Y203376D01*
X301847Y220424D01*
X303317Y223972D01*
X306066Y226721D01*
X306086Y226747D01*
X306110Y226768D01*
X306170Y226860D01*
X306236Y226947D01*
X306247Y226977D01*
X306265Y227004D01*
X306297Y227109D01*
X306335Y227211D01*
X306338Y227243D01*
X306347Y227274D01*
X306349Y227383D01*
X306357Y227492D01*
X306350Y227524D01*
X306351Y227556D01*
X306322Y227661D01*
X306299Y227768D01*
X306284Y227797D01*
X306276Y227828D01*
X306218Y227921D01*
X306167Y228017D01*
X306144Y228040D01*
X306128Y228068D01*
X306046Y228141D01*
X305970Y228219D01*
X305942Y228235D01*
X305918Y228257D01*
X305820Y228304D01*
X305725Y228358D01*
X305693Y228366D01*
X305664Y228380D01*
X305575Y228394D01*
X305450Y228423D01*
X305402Y228421D01*
X305360Y228427D01*
X298308Y228427D01*
X298213Y228414D01*
X298117Y228409D01*
X298074Y228394D01*
X298029Y228387D01*
X297941Y228348D01*
X297850Y228316D01*
X297816Y228291D01*
X297772Y228271D01*
X297675Y228188D01*
X297601Y228135D01*
X294508Y225041D01*
X294502Y225034D01*
X294495Y225028D01*
X294418Y224921D01*
X294339Y224816D01*
X294335Y224807D01*
X294330Y224799D01*
X294286Y224675D01*
X294239Y224552D01*
X294238Y224542D01*
X294235Y224533D01*
X294228Y224402D01*
X294217Y224270D01*
X294219Y224261D01*
X294219Y224252D01*
X294237Y224176D01*
X294275Y223994D01*
X294286Y223973D01*
X294291Y223952D01*
X295753Y220424D01*
X295753Y203376D01*
X294283Y199828D01*
X291568Y197113D01*
X288020Y195643D01*
X284180Y195643D01*
X280632Y197113D01*
X277917Y199828D01*
X276447Y203376D01*
X276447Y220424D01*
X277917Y223972D01*
X280632Y226687D01*
X284180Y228157D01*
X284276Y228157D01*
X284371Y228170D01*
X284467Y228175D01*
X284510Y228190D01*
X284555Y228197D01*
X284643Y228236D01*
X284734Y228268D01*
X284768Y228293D01*
X284812Y228313D01*
X284909Y228396D01*
X284983Y228449D01*
X294106Y237573D01*
X316894Y237573D01*
X328701Y225766D01*
X328729Y225704D01*
X328750Y225679D01*
X328765Y225651D01*
X328841Y225573D01*
X328912Y225490D01*
X328939Y225472D01*
X328962Y225449D01*
X329057Y225395D01*
X329148Y225335D01*
X329179Y225326D01*
X329207Y225310D01*
X329313Y225285D01*
X329418Y225253D01*
X329450Y225252D01*
X329481Y225245D01*
X329591Y225251D01*
X329700Y225249D01*
X329731Y225258D01*
X329763Y225259D01*
X329866Y225295D01*
X329972Y225324D01*
X329999Y225341D01*
X330030Y225352D01*
X330103Y225405D01*
X330212Y225472D01*
X330244Y225508D01*
X330279Y225534D01*
X331432Y226687D01*
X334980Y228157D01*
X338820Y228157D01*
X342368Y226687D01*
X345083Y223972D01*
X346553Y220424D01*
X346553Y203376D01*
X345083Y199828D01*
X342368Y197113D01*
X338820Y195643D01*
X334980Y195643D01*
X331432Y197113D01*
X330279Y198266D01*
X330253Y198286D01*
X330232Y198310D01*
X330140Y198370D01*
X330053Y198436D01*
X330023Y198447D01*
X329996Y198465D01*
X329891Y198497D01*
X329789Y198535D01*
X329757Y198538D01*
X329726Y198547D01*
X329617Y198549D01*
X329508Y198557D01*
X329476Y198550D01*
X329444Y198551D01*
X329339Y198522D01*
X329232Y198499D01*
X329203Y198484D01*
X329172Y198476D01*
X329079Y198418D01*
X328983Y198367D01*
X328960Y198344D01*
X328932Y198328D01*
X328859Y198247D01*
X328781Y198170D01*
X328765Y198142D01*
X328743Y198118D01*
X328696Y198020D01*
X328642Y197925D01*
X328634Y197893D01*
X328620Y197864D01*
X328606Y197775D01*
X328577Y197650D01*
X328579Y197602D01*
X328573Y197560D01*
X328573Y128308D01*
X328586Y128213D01*
X328591Y128117D01*
X328606Y128074D01*
X328613Y128029D01*
X328652Y127941D01*
X328684Y127850D01*
X328709Y127816D01*
X328729Y127772D01*
X328812Y127675D01*
X328865Y127601D01*
X346601Y109865D01*
X346678Y109808D01*
X346750Y109743D01*
X346791Y109723D01*
X346827Y109696D01*
X346917Y109662D01*
X347003Y109620D01*
X347045Y109614D01*
X347091Y109597D01*
X347219Y109587D01*
X347308Y109573D01*
X457894Y109573D01*
X512601Y54865D01*
X512678Y54808D01*
X512750Y54743D01*
X512791Y54723D01*
X512827Y54696D01*
X512917Y54662D01*
X513003Y54620D01*
X513045Y54614D01*
X513091Y54597D01*
X513219Y54587D01*
X513308Y54573D01*
X550536Y54573D01*
X550631Y54586D01*
X550727Y54591D01*
X550770Y54606D01*
X550815Y54613D01*
X550902Y54652D01*
X550993Y54684D01*
X551028Y54709D01*
X551072Y54729D01*
X551169Y54812D01*
X551242Y54865D01*
X556576Y60199D01*
X565037Y60199D01*
X565080Y60155D01*
X565147Y60117D01*
X565209Y60070D01*
X565269Y60048D01*
X565325Y60016D01*
X565401Y59998D01*
X565473Y59971D01*
X565537Y59966D01*
X565600Y59951D01*
X565677Y59955D01*
X565754Y59949D01*
X565817Y59962D01*
X565881Y59965D01*
X565955Y59991D01*
X566030Y60007D01*
X566087Y60037D01*
X566148Y60058D01*
X566204Y60099D01*
X566279Y60139D01*
X566340Y60198D01*
X566397Y60240D01*
X590612Y84455D01*
X590651Y84507D01*
X590697Y84551D01*
X590735Y84619D01*
X590782Y84681D01*
X590804Y84741D01*
X590836Y84797D01*
X590854Y84872D01*
X590881Y84945D01*
X590886Y85009D01*
X590901Y85071D01*
X590897Y85149D01*
X590903Y85226D01*
X590890Y85289D01*
X590887Y85353D01*
X590861Y85426D01*
X590845Y85502D01*
X590815Y85559D01*
X590794Y85619D01*
X590753Y85676D01*
X590713Y85751D01*
X590654Y85812D01*
X590612Y85868D01*
X588387Y88093D01*
X586560Y92505D01*
X586560Y97279D01*
X588388Y101691D01*
X591764Y105067D01*
X596175Y106894D01*
X618857Y106894D01*
X623268Y105067D01*
X626644Y101691D01*
X627311Y100082D01*
X627316Y100073D01*
X627318Y100064D01*
X627388Y99952D01*
X627455Y99839D01*
X627462Y99832D01*
X627467Y99824D01*
X627565Y99736D01*
X627660Y99646D01*
X627669Y99642D01*
X627676Y99635D01*
X627795Y99578D01*
X627912Y99518D01*
X627921Y99516D01*
X627930Y99512D01*
X628006Y99500D01*
X628189Y99466D01*
X628213Y99468D01*
X628234Y99465D01*
X711766Y99465D01*
X711775Y99466D01*
X711785Y99465D01*
X711915Y99486D01*
X712045Y99505D01*
X712054Y99508D01*
X712063Y99510D01*
X712182Y99567D01*
X712302Y99621D01*
X712309Y99627D01*
X712318Y99631D01*
X712416Y99719D01*
X712516Y99804D01*
X712521Y99812D01*
X712528Y99818D01*
X712568Y99884D01*
X712671Y100040D01*
X712678Y100063D01*
X712689Y100082D01*
X713356Y101691D01*
X716732Y105067D01*
X721143Y106894D01*
X738078Y106894D01*
X738142Y106903D01*
X738206Y106902D01*
X738281Y106923D01*
X738357Y106934D01*
X738416Y106960D01*
X738478Y106978D01*
X738544Y107018D01*
X738614Y107050D01*
X738663Y107092D01*
X738718Y107126D01*
X738770Y107183D01*
X738828Y107234D01*
X738864Y107287D01*
X738907Y107335D01*
X738940Y107405D01*
X738983Y107470D01*
X739002Y107531D01*
X739030Y107589D01*
X739041Y107658D01*
X739065Y107739D01*
X739066Y107824D01*
X739077Y107893D01*
X739077Y392107D01*
X739068Y392170D01*
X739069Y392234D01*
X739048Y392309D01*
X739037Y392386D01*
X739011Y392444D01*
X738994Y392506D01*
X738953Y392572D01*
X738921Y392643D01*
X738879Y392691D01*
X738846Y392746D01*
X738788Y392798D01*
X738738Y392857D01*
X738684Y392892D01*
X738636Y392935D01*
X738567Y392969D01*
X738502Y393011D01*
X738440Y393030D01*
X738383Y393058D01*
X738313Y393069D01*
X738232Y393094D01*
X738147Y393095D01*
X738078Y393106D01*
X721143Y393106D01*
X716732Y394933D01*
X713356Y398309D01*
X712689Y399918D01*
X712684Y399927D01*
X712682Y399936D01*
X712612Y400048D01*
X712545Y400161D01*
X712538Y400168D01*
X712533Y400176D01*
X712435Y400264D01*
X712340Y400354D01*
X712331Y400358D01*
X712324Y400365D01*
X712205Y400422D01*
X712088Y400482D01*
X712079Y400484D01*
X712070Y400488D01*
X711994Y400500D01*
X711811Y400534D01*
X711787Y400532D01*
X711766Y400535D01*
X628234Y400535D01*
X628225Y400534D01*
X628215Y400535D01*
X628085Y400514D01*
X627955Y400495D01*
X627946Y400492D01*
X627937Y400490D01*
X627818Y400433D01*
X627698Y400379D01*
X627691Y400373D01*
X627682Y400369D01*
X627584Y400281D01*
X627484Y400196D01*
X627479Y400188D01*
X627472Y400182D01*
X627432Y400116D01*
X627329Y399960D01*
X627322Y399937D01*
X627311Y399918D01*
X626644Y398309D01*
X623268Y394933D01*
X618857Y393106D01*
X596175Y393106D01*
X591764Y394933D01*
X588388Y398309D01*
X587721Y399918D01*
X587716Y399927D01*
X587714Y399936D01*
X587644Y400048D01*
X587577Y400161D01*
X587570Y400168D01*
X587565Y400176D01*
X587467Y400264D01*
X587372Y400354D01*
X587363Y400358D01*
X587356Y400365D01*
X587237Y400422D01*
X587120Y400482D01*
X587111Y400484D01*
X587102Y400488D01*
X587026Y400500D01*
X586843Y400534D01*
X586819Y400532D01*
X586798Y400535D01*
X473798Y400535D01*
X436279Y438055D01*
X436253Y438074D01*
X436232Y438098D01*
X436140Y438158D01*
X436053Y438224D01*
X436023Y438235D01*
X435996Y438253D01*
X435891Y438285D01*
X435789Y438323D01*
X435757Y438326D01*
X435726Y438335D01*
X435617Y438337D01*
X435508Y438345D01*
X435476Y438339D01*
X435444Y438339D01*
X435339Y438310D01*
X435232Y438288D01*
X435203Y438273D01*
X435172Y438264D01*
X435079Y438206D01*
X434983Y438155D01*
X434960Y438133D01*
X434932Y438116D01*
X434859Y438035D01*
X434781Y437958D01*
X434765Y437930D01*
X434743Y437906D01*
X434696Y437808D01*
X434642Y437713D01*
X434634Y437682D01*
X434620Y437653D01*
X434606Y437563D01*
X434577Y437439D01*
X434579Y437390D01*
X434573Y437348D01*
X434573Y433106D01*
X375894Y374427D01*
X289308Y374427D01*
X289213Y374414D01*
X289117Y374409D01*
X289074Y374394D01*
X289029Y374387D01*
X288941Y374348D01*
X288850Y374316D01*
X288816Y374291D01*
X288772Y374271D01*
X288675Y374188D01*
X288601Y374135D01*
X245425Y330958D01*
X245353Y330863D01*
X245278Y330771D01*
X245269Y330750D01*
X245255Y330732D01*
X245213Y330621D01*
X245167Y330512D01*
X245164Y330490D01*
X245156Y330468D01*
X245147Y330350D01*
X245132Y330232D01*
X245136Y330210D01*
X245134Y330187D01*
X245158Y330071D01*
X245177Y329954D01*
X245187Y329933D01*
X245192Y329911D01*
X245247Y329806D01*
X245298Y329699D01*
X245313Y329682D01*
X245324Y329662D01*
X245407Y329577D01*
X245486Y329489D01*
X245504Y329477D01*
X245521Y329460D01*
X245683Y329368D01*
X245749Y329328D01*
X246812Y328888D01*
X248742Y326958D01*
X249786Y324437D01*
X249786Y323095D01*
X249799Y323000D01*
X249804Y322904D01*
X249819Y322861D01*
X249826Y322816D01*
X249865Y322728D01*
X249897Y322637D01*
X249922Y322603D01*
X249942Y322559D01*
X250025Y322462D01*
X250078Y322388D01*
X253573Y318894D01*
X253573Y303640D01*
X253577Y303608D01*
X253575Y303576D01*
X253597Y303469D01*
X253613Y303361D01*
X253626Y303332D01*
X253632Y303300D01*
X253684Y303203D01*
X253729Y303104D01*
X253750Y303079D01*
X253765Y303051D01*
X253841Y302973D01*
X253912Y302890D01*
X253939Y302872D01*
X253962Y302849D01*
X254057Y302795D01*
X254148Y302735D01*
X254179Y302726D01*
X254207Y302710D01*
X254314Y302685D01*
X254418Y302653D01*
X254450Y302652D01*
X254482Y302645D01*
X254591Y302651D01*
X254700Y302649D01*
X254731Y302658D01*
X254763Y302659D01*
X254866Y302695D01*
X254972Y302724D01*
X254999Y302741D01*
X255030Y302752D01*
X255103Y302805D01*
X255212Y302872D01*
X255221Y302882D01*
X258780Y304357D01*
X262620Y304357D01*
X266168Y302887D01*
X268883Y300172D01*
X270353Y296624D01*
X270353Y279576D01*
X268883Y276028D01*
X266134Y273279D01*
X266114Y273253D01*
X266090Y273232D01*
X266030Y273140D01*
X265964Y273053D01*
X265953Y273023D01*
X265935Y272996D01*
X265903Y272891D01*
X265865Y272789D01*
X265862Y272757D01*
X265853Y272726D01*
X265851Y272617D01*
X265843Y272508D01*
X265850Y272476D01*
X265849Y272444D01*
X265878Y272339D01*
X265901Y272232D01*
X265916Y272203D01*
X265924Y272172D01*
X265982Y272079D01*
X266033Y271983D01*
X266056Y271960D01*
X266072Y271932D01*
X266154Y271859D01*
X266230Y271781D01*
X266258Y271765D01*
X266282Y271743D01*
X266380Y271696D01*
X266475Y271642D01*
X266507Y271634D01*
X266536Y271620D01*
X266625Y271606D01*
X266750Y271577D01*
X266798Y271579D01*
X266840Y271573D01*
X279960Y271573D01*
X279992Y271577D01*
X280024Y271575D01*
X280131Y271597D01*
X280239Y271613D01*
X280268Y271626D01*
X280300Y271632D01*
X280396Y271684D01*
X280496Y271729D01*
X280521Y271750D01*
X280549Y271765D01*
X280627Y271841D01*
X280710Y271912D01*
X280728Y271939D01*
X280751Y271962D01*
X280805Y272057D01*
X280865Y272148D01*
X280874Y272179D01*
X280890Y272207D01*
X280915Y272313D01*
X280947Y272418D01*
X280948Y272450D01*
X280955Y272481D01*
X280949Y272591D01*
X280951Y272700D01*
X280942Y272731D01*
X280941Y272763D01*
X280905Y272866D01*
X280876Y272972D01*
X280859Y272999D01*
X280848Y273030D01*
X280795Y273103D01*
X280728Y273212D01*
X280692Y273244D01*
X280666Y273279D01*
X277917Y276028D01*
X276447Y279576D01*
X276447Y296624D01*
X277917Y300172D01*
X280632Y302887D01*
X284180Y304357D01*
X288020Y304357D01*
X289760Y303636D01*
X289843Y303615D01*
X289881Y303599D01*
X289915Y303594D01*
X289988Y303572D01*
X290011Y303572D01*
X290033Y303566D01*
X290121Y303569D01*
X290161Y303564D01*
X290194Y303569D01*
X290270Y303568D01*
X290292Y303574D01*
X290315Y303575D01*
X290398Y303602D01*
X290439Y303609D01*
X290470Y303624D01*
X290542Y303644D01*
X290561Y303656D01*
X290583Y303663D01*
X290654Y303711D01*
X290694Y303730D01*
X290721Y303754D01*
X290782Y303792D01*
X290797Y303809D01*
X290816Y303821D01*
X290868Y303885D01*
X290905Y303917D01*
X290924Y303950D01*
X290971Y304001D01*
X290981Y304022D01*
X290995Y304039D01*
X291034Y304130D01*
X291065Y304181D01*
X292185Y306885D01*
X293135Y307834D01*
X293192Y307911D01*
X293257Y307983D01*
X293277Y308023D01*
X293304Y308060D01*
X293338Y308150D01*
X293380Y308236D01*
X293386Y308278D01*
X293403Y308324D01*
X293413Y308451D01*
X293427Y308541D01*
X293427Y329094D01*
X309509Y345175D01*
X309566Y345252D01*
X309631Y345324D01*
X309651Y345365D01*
X309678Y345401D01*
X309712Y345491D01*
X309754Y345577D01*
X309760Y345619D01*
X309777Y345665D01*
X309787Y345793D01*
X309801Y345882D01*
X309801Y353424D01*
X315776Y359399D01*
X324224Y359399D01*
X330199Y353424D01*
X330199Y344976D01*
X324224Y339001D01*
X316682Y339001D01*
X316587Y338988D01*
X316491Y338983D01*
X316448Y338968D01*
X316403Y338961D01*
X316315Y338922D01*
X316224Y338890D01*
X316190Y338865D01*
X316146Y338845D01*
X316049Y338762D01*
X315975Y338709D01*
X302865Y325599D01*
X302808Y325522D01*
X302743Y325450D01*
X302723Y325409D01*
X302696Y325373D01*
X302662Y325283D01*
X302620Y325197D01*
X302614Y325155D01*
X302597Y325109D01*
X302587Y324981D01*
X302573Y324892D01*
X302573Y308541D01*
X302586Y308446D01*
X302591Y308350D01*
X302606Y308307D01*
X302613Y308262D01*
X302652Y308174D01*
X302684Y308083D01*
X302709Y308049D01*
X302729Y308005D01*
X302812Y307907D01*
X302865Y307834D01*
X303815Y306885D01*
X304859Y304364D01*
X304859Y303897D01*
X304875Y303779D01*
X304887Y303661D01*
X304895Y303640D01*
X304899Y303617D01*
X304947Y303510D01*
X304991Y303399D01*
X305005Y303381D01*
X305015Y303360D01*
X305092Y303270D01*
X305165Y303177D01*
X305183Y303164D01*
X305198Y303146D01*
X305298Y303081D01*
X305394Y303012D01*
X305415Y303004D01*
X305434Y302992D01*
X305548Y302957D01*
X305659Y302917D01*
X305682Y302916D01*
X305704Y302909D01*
X305822Y302908D01*
X305941Y302901D01*
X305962Y302906D01*
X305986Y302906D01*
X306165Y302955D01*
X306240Y302973D01*
X309580Y304357D01*
X313420Y304357D01*
X316968Y302887D01*
X319683Y300172D01*
X321153Y296624D01*
X321153Y279576D01*
X319683Y276028D01*
X316934Y273279D01*
X316914Y273253D01*
X316890Y273232D01*
X316830Y273140D01*
X316764Y273053D01*
X316753Y273023D01*
X316735Y272996D01*
X316703Y272891D01*
X316665Y272789D01*
X316662Y272757D01*
X316653Y272726D01*
X316651Y272617D01*
X316643Y272508D01*
X316650Y272476D01*
X316649Y272444D01*
X316678Y272339D01*
X316701Y272232D01*
X316716Y272203D01*
X316724Y272172D01*
X316782Y272079D01*
X316833Y271983D01*
X316856Y271960D01*
X316872Y271932D01*
X316954Y271859D01*
X317030Y271781D01*
X317058Y271765D01*
X317082Y271743D01*
X317180Y271696D01*
X317275Y271642D01*
X317307Y271634D01*
X317336Y271620D01*
X317425Y271606D01*
X317550Y271577D01*
X317598Y271579D01*
X317640Y271573D01*
X330760Y271573D01*
X330792Y271577D01*
X330824Y271575D01*
X330931Y271597D01*
X331039Y271613D01*
X331068Y271626D01*
X331100Y271632D01*
X331196Y271684D01*
X331296Y271729D01*
X331321Y271750D01*
X331349Y271765D01*
X331427Y271841D01*
X331510Y271912D01*
X331528Y271939D01*
X331551Y271962D01*
X331605Y272057D01*
X331665Y272148D01*
X331674Y272179D01*
X331690Y272207D01*
X331715Y272313D01*
X331747Y272418D01*
X331748Y272450D01*
X331755Y272481D01*
X331749Y272591D01*
X331751Y272700D01*
X331742Y272731D01*
X331741Y272763D01*
X331705Y272866D01*
X331676Y272972D01*
X331659Y272999D01*
X331648Y273030D01*
X331595Y273103D01*
X331528Y273212D01*
X331492Y273244D01*
X331466Y273279D01*
X328717Y276028D01*
X327247Y279576D01*
X327247Y296624D01*
X328717Y300172D01*
X331432Y302887D01*
X334980Y304357D01*
X335964Y304357D01*
X335996Y304361D01*
X336028Y304359D01*
X336135Y304381D01*
X336243Y304397D01*
X336273Y304410D01*
X336304Y304416D01*
X336401Y304468D01*
X336500Y304513D01*
X336525Y304534D01*
X336553Y304549D01*
X336631Y304625D01*
X336714Y304696D01*
X336732Y304723D01*
X336755Y304746D01*
X336809Y304841D01*
X336869Y304932D01*
X336878Y304963D01*
X336894Y304991D01*
X336919Y305097D01*
X336951Y305202D01*
X336952Y305234D01*
X336959Y305265D01*
X336954Y305375D01*
X336955Y305484D01*
X336947Y305515D01*
X336945Y305547D01*
X336909Y305650D01*
X336880Y305756D01*
X336863Y305783D01*
X336852Y305814D01*
X336799Y305887D01*
X336732Y305996D01*
X336696Y306028D01*
X336671Y306063D01*
X333225Y309509D01*
X333148Y309566D01*
X333076Y309631D01*
X333035Y309651D01*
X332999Y309678D01*
X332909Y309712D01*
X332823Y309754D01*
X332781Y309760D01*
X332735Y309777D01*
X332607Y309787D01*
X332518Y309801D01*
X324976Y309801D01*
X319001Y315776D01*
X319001Y324224D01*
X324976Y330199D01*
X333424Y330199D01*
X339399Y324224D01*
X339399Y316682D01*
X339408Y316619D01*
X339407Y316565D01*
X339415Y316537D01*
X339417Y316491D01*
X339432Y316448D01*
X339439Y316403D01*
X339473Y316327D01*
X339482Y316294D01*
X339490Y316280D01*
X339510Y316224D01*
X339535Y316190D01*
X339555Y316146D01*
X339621Y316068D01*
X339630Y316054D01*
X339642Y316043D01*
X339691Y315975D01*
X343801Y311865D01*
X343878Y311808D01*
X343950Y311743D01*
X343991Y311723D01*
X344027Y311696D01*
X344117Y311662D01*
X344203Y311620D01*
X344245Y311614D01*
X344291Y311597D01*
X344419Y311587D01*
X344508Y311573D01*
X362329Y311573D01*
X362446Y311589D01*
X362564Y311601D01*
X362585Y311609D01*
X362608Y311613D01*
X362716Y311661D01*
X362826Y311705D01*
X362844Y311719D01*
X362865Y311729D01*
X362955Y311806D01*
X363048Y311879D01*
X363062Y311897D01*
X363079Y311912D01*
X363144Y312012D01*
X363213Y312108D01*
X363221Y312129D01*
X363234Y312148D01*
X363268Y312262D01*
X363308Y312373D01*
X363309Y312396D01*
X363316Y312418D01*
X363318Y312536D01*
X363325Y312655D01*
X363319Y312676D01*
X363320Y312700D01*
X363270Y312879D01*
X363252Y312954D01*
X362141Y315636D01*
X362141Y318364D01*
X363185Y320885D01*
X365115Y322815D01*
X367636Y323859D01*
X368978Y323859D01*
X369073Y323872D01*
X369169Y323877D01*
X369212Y323892D01*
X369257Y323899D01*
X369345Y323938D01*
X369436Y323970D01*
X369470Y323995D01*
X369514Y324015D01*
X369611Y324098D01*
X369685Y324151D01*
X382106Y336573D01*
X472692Y336573D01*
X472787Y336586D01*
X472883Y336591D01*
X472926Y336606D01*
X472971Y336613D01*
X473059Y336652D01*
X473150Y336684D01*
X473184Y336709D01*
X473228Y336729D01*
X473325Y336812D01*
X473399Y336865D01*
X481106Y344573D01*
X515293Y344573D01*
X515388Y344586D01*
X515484Y344591D01*
X515528Y344606D01*
X515573Y344613D01*
X515660Y344652D01*
X515751Y344684D01*
X515785Y344709D01*
X515829Y344729D01*
X515927Y344812D01*
X516000Y344865D01*
X518856Y347721D01*
X518875Y347747D01*
X518900Y347768D01*
X518960Y347860D01*
X519025Y347947D01*
X519037Y347977D01*
X519054Y348004D01*
X519086Y348109D01*
X519125Y348211D01*
X519127Y348243D01*
X519137Y348274D01*
X519138Y348383D01*
X519147Y348492D01*
X519140Y348524D01*
X519140Y348556D01*
X519111Y348661D01*
X519089Y348768D01*
X519074Y348797D01*
X519065Y348828D01*
X519008Y348921D01*
X518957Y349017D01*
X518934Y349040D01*
X518917Y349068D01*
X518836Y349141D01*
X518760Y349219D01*
X518732Y349235D01*
X518708Y349257D01*
X518609Y349304D01*
X518514Y349358D01*
X518483Y349366D01*
X518454Y349380D01*
X518365Y349394D01*
X518240Y349423D01*
X518191Y349421D01*
X518149Y349427D01*
X471198Y349427D01*
X471134Y349418D01*
X471070Y349419D01*
X470995Y349398D01*
X470919Y349387D01*
X470860Y349361D01*
X470798Y349344D01*
X470732Y349303D01*
X470662Y349271D01*
X470613Y349229D01*
X470558Y349196D01*
X470506Y349138D01*
X470448Y349088D01*
X470412Y349034D01*
X470369Y348986D01*
X470336Y348917D01*
X470293Y348852D01*
X470274Y348790D01*
X470246Y348733D01*
X470235Y348663D01*
X470211Y348582D01*
X470210Y348497D01*
X470199Y348428D01*
X470199Y344976D01*
X464224Y339001D01*
X455776Y339001D01*
X449801Y344976D01*
X449801Y353424D01*
X455776Y359399D01*
X464224Y359399D01*
X464758Y358865D01*
X464835Y358808D01*
X464906Y358743D01*
X464947Y358723D01*
X464983Y358696D01*
X465073Y358662D01*
X465160Y358620D01*
X465202Y358614D01*
X465247Y358597D01*
X465375Y358587D01*
X465464Y358573D01*
X540594Y358573D01*
X543565Y355602D01*
X543565Y355601D01*
X547443Y351723D01*
X547520Y351666D01*
X547592Y351601D01*
X547633Y351581D01*
X547669Y351554D01*
X547759Y351520D01*
X547845Y351478D01*
X547887Y351472D01*
X547933Y351455D01*
X548060Y351445D01*
X548150Y351431D01*
X557435Y351431D01*
X564131Y344735D01*
X564131Y335265D01*
X557435Y328569D01*
X547965Y328569D01*
X541269Y335265D01*
X541269Y344550D01*
X541256Y344645D01*
X541251Y344741D01*
X541236Y344784D01*
X541229Y344829D01*
X541190Y344917D01*
X541158Y345008D01*
X541133Y345042D01*
X541113Y345086D01*
X541030Y345184D01*
X540977Y345257D01*
X540437Y345797D01*
X540411Y345816D01*
X540390Y345840D01*
X540298Y345900D01*
X540211Y345966D01*
X540181Y345977D01*
X540154Y345995D01*
X540049Y346027D01*
X539947Y346065D01*
X539915Y346068D01*
X539884Y346077D01*
X539775Y346079D01*
X539666Y346087D01*
X539634Y346081D01*
X539602Y346081D01*
X539497Y346052D01*
X539390Y346030D01*
X539361Y346015D01*
X539330Y346006D01*
X539237Y345948D01*
X539141Y345897D01*
X539118Y345875D01*
X539090Y345858D01*
X539017Y345777D01*
X538939Y345700D01*
X538923Y345672D01*
X538901Y345648D01*
X538854Y345550D01*
X538800Y345455D01*
X538792Y345424D01*
X538778Y345395D01*
X538764Y345305D01*
X538735Y345181D01*
X538737Y345132D01*
X538731Y345090D01*
X538731Y335265D01*
X532035Y328569D01*
X522565Y328569D01*
X516000Y335135D01*
X515923Y335192D01*
X515852Y335257D01*
X515811Y335277D01*
X515774Y335304D01*
X515684Y335338D01*
X515598Y335380D01*
X515556Y335386D01*
X515510Y335403D01*
X515383Y335413D01*
X515293Y335427D01*
X485308Y335427D01*
X485213Y335414D01*
X485117Y335409D01*
X485074Y335394D01*
X485029Y335387D01*
X484941Y335348D01*
X484850Y335316D01*
X484816Y335291D01*
X484772Y335271D01*
X484675Y335188D01*
X484601Y335135D01*
X476894Y327427D01*
X440208Y327427D01*
X440176Y327423D01*
X440144Y327425D01*
X440037Y327403D01*
X439929Y327387D01*
X439900Y327374D01*
X439868Y327368D01*
X439772Y327316D01*
X439672Y327271D01*
X439648Y327250D01*
X439619Y327235D01*
X439541Y327159D01*
X439458Y327088D01*
X439440Y327061D01*
X439417Y327038D01*
X439363Y326943D01*
X439303Y326852D01*
X439294Y326821D01*
X439278Y326793D01*
X439253Y326687D01*
X439221Y326582D01*
X439221Y326550D01*
X439213Y326519D01*
X439219Y326409D01*
X439217Y326300D01*
X439226Y326269D01*
X439228Y326237D01*
X439263Y326134D01*
X439292Y326028D01*
X439309Y326001D01*
X439320Y325970D01*
X439373Y325897D01*
X439441Y325788D01*
X439477Y325756D01*
X439502Y325721D01*
X440999Y324224D01*
X440999Y315776D01*
X438502Y313279D01*
X438482Y313253D01*
X438458Y313232D01*
X438398Y313140D01*
X438332Y313053D01*
X438321Y313023D01*
X438303Y312996D01*
X438271Y312891D01*
X438233Y312789D01*
X438230Y312757D01*
X438221Y312726D01*
X438220Y312617D01*
X438211Y312508D01*
X438218Y312476D01*
X438217Y312444D01*
X438246Y312339D01*
X438269Y312232D01*
X438284Y312203D01*
X438292Y312172D01*
X438350Y312079D01*
X438401Y311983D01*
X438424Y311960D01*
X438441Y311932D01*
X438522Y311859D01*
X438598Y311781D01*
X438626Y311765D01*
X438650Y311743D01*
X438748Y311696D01*
X438843Y311642D01*
X438875Y311634D01*
X438904Y311620D01*
X438993Y311606D01*
X439118Y311577D01*
X439166Y311579D01*
X439208Y311573D01*
X446894Y311573D01*
X456299Y302168D01*
X456351Y302129D01*
X456396Y302083D01*
X456463Y302045D01*
X456525Y301998D01*
X456585Y301976D01*
X456641Y301944D01*
X456716Y301926D01*
X456789Y301899D01*
X456853Y301894D01*
X456915Y301879D01*
X456993Y301883D01*
X457070Y301877D01*
X457133Y301890D01*
X457197Y301893D01*
X457270Y301919D01*
X457346Y301935D01*
X457403Y301965D01*
X457464Y301986D01*
X457520Y302027D01*
X457595Y302067D01*
X457656Y302126D01*
X457713Y302168D01*
X458432Y302887D01*
X461980Y304357D01*
X465820Y304357D01*
X469368Y302887D01*
X472083Y300172D01*
X473553Y296624D01*
X473553Y293672D01*
X473561Y293612D01*
X473561Y293583D01*
X473561Y293581D01*
X473561Y293544D01*
X473582Y293469D01*
X473593Y293393D01*
X473619Y293334D01*
X473636Y293272D01*
X473677Y293206D01*
X473709Y293136D01*
X473751Y293087D01*
X473784Y293032D01*
X473842Y292980D01*
X473892Y292922D01*
X473946Y292886D01*
X473994Y292843D01*
X474063Y292810D01*
X474128Y292767D01*
X474190Y292748D01*
X474247Y292720D01*
X474317Y292709D01*
X474398Y292685D01*
X474483Y292684D01*
X474552Y292673D01*
X478648Y292673D01*
X478712Y292682D01*
X478776Y292681D01*
X478851Y292702D01*
X478927Y292713D01*
X478986Y292739D01*
X479048Y292756D01*
X479114Y292797D01*
X479184Y292829D01*
X479233Y292871D01*
X479288Y292904D01*
X479340Y292962D01*
X479398Y293012D01*
X479434Y293066D01*
X479477Y293114D01*
X479510Y293183D01*
X479553Y293248D01*
X479572Y293310D01*
X479600Y293367D01*
X479611Y293437D01*
X479635Y293518D01*
X479636Y293603D01*
X479647Y293672D01*
X479647Y296624D01*
X481117Y300172D01*
X483832Y302887D01*
X487380Y304357D01*
X491220Y304357D01*
X494768Y302887D01*
X497483Y300172D01*
X498953Y296624D01*
X498953Y293672D01*
X498961Y293612D01*
X498961Y293583D01*
X498961Y293581D01*
X498961Y293544D01*
X498982Y293469D01*
X498993Y293393D01*
X499019Y293334D01*
X499036Y293272D01*
X499077Y293206D01*
X499109Y293136D01*
X499151Y293087D01*
X499184Y293032D01*
X499242Y292980D01*
X499292Y292922D01*
X499346Y292886D01*
X499394Y292843D01*
X499463Y292810D01*
X499528Y292767D01*
X499590Y292748D01*
X499647Y292720D01*
X499717Y292709D01*
X499798Y292685D01*
X499883Y292684D01*
X499952Y292673D01*
X504048Y292673D01*
X504112Y292682D01*
X504176Y292681D01*
X504251Y292702D01*
X504327Y292713D01*
X504386Y292739D01*
X504448Y292756D01*
X504514Y292797D01*
X504584Y292829D01*
X504633Y292871D01*
X504688Y292904D01*
X504740Y292962D01*
X504798Y293012D01*
X504834Y293066D01*
X504877Y293114D01*
X504910Y293183D01*
X504953Y293248D01*
X504972Y293310D01*
X505000Y293367D01*
X505011Y293437D01*
X505035Y293518D01*
X505036Y293603D01*
X505047Y293672D01*
X505047Y296624D01*
X506517Y300172D01*
X509232Y302887D01*
X512780Y304357D01*
X516620Y304357D01*
X520168Y302887D01*
X522883Y300172D01*
X524353Y296624D01*
X524353Y293672D01*
X524361Y293612D01*
X524361Y293583D01*
X524361Y293581D01*
X524361Y293544D01*
X524382Y293469D01*
X524393Y293393D01*
X524419Y293334D01*
X524436Y293272D01*
X524477Y293206D01*
X524509Y293136D01*
X524551Y293087D01*
X524584Y293032D01*
X524642Y292980D01*
X524692Y292922D01*
X524746Y292886D01*
X524794Y292843D01*
X524863Y292810D01*
X524928Y292767D01*
X524990Y292748D01*
X525047Y292720D01*
X525117Y292709D01*
X525198Y292685D01*
X525283Y292684D01*
X525352Y292673D01*
X529448Y292673D01*
X529512Y292682D01*
X529576Y292681D01*
X529651Y292702D01*
X529727Y292713D01*
X529786Y292739D01*
X529848Y292756D01*
X529914Y292797D01*
X529984Y292829D01*
X530033Y292871D01*
X530088Y292904D01*
X530140Y292962D01*
X530198Y293012D01*
X530234Y293066D01*
X530277Y293114D01*
X530310Y293183D01*
X530353Y293248D01*
X530372Y293310D01*
X530400Y293367D01*
X530411Y293437D01*
X530435Y293518D01*
X530436Y293603D01*
X530447Y293672D01*
X530447Y296624D01*
X531917Y300172D01*
X534632Y302887D01*
X538180Y304357D01*
X542020Y304357D01*
X545568Y302887D01*
X548283Y300172D01*
X549753Y296624D01*
X549753Y279576D01*
X548283Y276028D01*
X545568Y273313D01*
X542020Y271843D01*
X538180Y271843D01*
X534632Y273313D01*
X531917Y276028D01*
X530447Y279576D01*
X530447Y282528D01*
X530438Y282592D01*
X530439Y282656D01*
X530418Y282731D01*
X530407Y282807D01*
X530381Y282866D01*
X530364Y282928D01*
X530323Y282994D01*
X530291Y283064D01*
X530249Y283113D01*
X530216Y283168D01*
X530158Y283220D01*
X530108Y283278D01*
X530054Y283314D01*
X530006Y283357D01*
X529937Y283390D01*
X529872Y283433D01*
X529810Y283452D01*
X529753Y283480D01*
X529683Y283491D01*
X529602Y283515D01*
X529517Y283516D01*
X529448Y283527D01*
X525352Y283527D01*
X525288Y283518D01*
X525224Y283519D01*
X525149Y283498D01*
X525073Y283487D01*
X525014Y283461D01*
X524952Y283444D01*
X524886Y283403D01*
X524816Y283371D01*
X524767Y283329D01*
X524712Y283296D01*
X524660Y283238D01*
X524602Y283188D01*
X524566Y283134D01*
X524523Y283086D01*
X524490Y283017D01*
X524447Y282952D01*
X524428Y282890D01*
X524400Y282833D01*
X524389Y282763D01*
X524365Y282682D01*
X524364Y282597D01*
X524353Y282528D01*
X524353Y279576D01*
X522883Y276028D01*
X520168Y273313D01*
X516620Y271843D01*
X512780Y271843D01*
X509232Y273313D01*
X506517Y276028D01*
X505047Y279576D01*
X505047Y282528D01*
X505038Y282592D01*
X505039Y282656D01*
X505018Y282731D01*
X505007Y282807D01*
X504981Y282866D01*
X504964Y282928D01*
X504923Y282994D01*
X504891Y283064D01*
X504849Y283113D01*
X504816Y283168D01*
X504758Y283220D01*
X504708Y283278D01*
X504654Y283314D01*
X504606Y283357D01*
X504537Y283390D01*
X504472Y283433D01*
X504410Y283452D01*
X504353Y283480D01*
X504283Y283491D01*
X504202Y283515D01*
X504117Y283516D01*
X504048Y283527D01*
X499952Y283527D01*
X499888Y283518D01*
X499824Y283519D01*
X499749Y283498D01*
X499673Y283487D01*
X499614Y283461D01*
X499552Y283444D01*
X499486Y283403D01*
X499416Y283371D01*
X499367Y283329D01*
X499312Y283296D01*
X499260Y283238D01*
X499202Y283188D01*
X499166Y283134D01*
X499123Y283086D01*
X499090Y283017D01*
X499047Y282952D01*
X499028Y282890D01*
X499000Y282833D01*
X498989Y282763D01*
X498965Y282682D01*
X498964Y282597D01*
X498953Y282528D01*
X498953Y279576D01*
X497483Y276028D01*
X494768Y273313D01*
X491220Y271843D01*
X487380Y271843D01*
X483832Y273313D01*
X481117Y276028D01*
X479647Y279576D01*
X479647Y282528D01*
X479638Y282592D01*
X479639Y282656D01*
X479618Y282731D01*
X479607Y282807D01*
X479581Y282866D01*
X479564Y282928D01*
X479523Y282994D01*
X479491Y283064D01*
X479449Y283113D01*
X479416Y283168D01*
X479358Y283220D01*
X479308Y283278D01*
X479254Y283314D01*
X479206Y283357D01*
X479137Y283390D01*
X479072Y283433D01*
X479010Y283452D01*
X478953Y283480D01*
X478883Y283491D01*
X478802Y283515D01*
X478717Y283516D01*
X478648Y283527D01*
X474552Y283527D01*
X474488Y283518D01*
X474424Y283519D01*
X474349Y283498D01*
X474273Y283487D01*
X474214Y283461D01*
X474152Y283444D01*
X474086Y283403D01*
X474016Y283371D01*
X473967Y283329D01*
X473912Y283296D01*
X473860Y283238D01*
X473802Y283188D01*
X473766Y283134D01*
X473723Y283086D01*
X473690Y283017D01*
X473647Y282952D01*
X473628Y282890D01*
X473600Y282833D01*
X473589Y282763D01*
X473565Y282682D01*
X473564Y282597D01*
X473553Y282528D01*
X473553Y279576D01*
X472083Y276028D01*
X469368Y273313D01*
X465820Y271843D01*
X461980Y271843D01*
X458432Y273313D01*
X455717Y276028D01*
X454247Y279576D01*
X454247Y290872D01*
X454234Y290967D01*
X454229Y291063D01*
X454214Y291106D01*
X454207Y291151D01*
X454168Y291239D01*
X454136Y291330D01*
X454111Y291364D01*
X454091Y291408D01*
X454008Y291505D01*
X453955Y291579D01*
X449859Y295675D01*
X449833Y295694D01*
X449812Y295718D01*
X449720Y295778D01*
X449633Y295844D01*
X449603Y295855D01*
X449576Y295873D01*
X449471Y295905D01*
X449369Y295943D01*
X449337Y295946D01*
X449306Y295955D01*
X449197Y295957D01*
X449088Y295965D01*
X449056Y295959D01*
X449024Y295959D01*
X448919Y295930D01*
X448812Y295908D01*
X448783Y295893D01*
X448752Y295884D01*
X448659Y295826D01*
X448563Y295775D01*
X448540Y295753D01*
X448512Y295736D01*
X448439Y295655D01*
X448361Y295578D01*
X448345Y295550D01*
X448323Y295526D01*
X448276Y295428D01*
X448222Y295333D01*
X448214Y295302D01*
X448200Y295273D01*
X448186Y295183D01*
X448157Y295059D01*
X448159Y295010D01*
X448153Y294968D01*
X448153Y279576D01*
X446683Y276028D01*
X443968Y273313D01*
X440420Y271843D01*
X436580Y271843D01*
X433032Y273313D01*
X430317Y276028D01*
X428847Y279576D01*
X428847Y296624D01*
X430317Y300172D01*
X430866Y300721D01*
X430886Y300747D01*
X430910Y300768D01*
X430970Y300860D01*
X431036Y300947D01*
X431047Y300977D01*
X431065Y301004D01*
X431097Y301109D01*
X431135Y301211D01*
X431138Y301243D01*
X431147Y301274D01*
X431149Y301383D01*
X431157Y301492D01*
X431150Y301524D01*
X431151Y301556D01*
X431122Y301661D01*
X431099Y301768D01*
X431084Y301797D01*
X431076Y301828D01*
X431018Y301921D01*
X430967Y302017D01*
X430944Y302040D01*
X430928Y302068D01*
X430846Y302141D01*
X430770Y302219D01*
X430742Y302235D01*
X430718Y302257D01*
X430620Y302304D01*
X430525Y302358D01*
X430493Y302366D01*
X430464Y302380D01*
X430375Y302394D01*
X430250Y302423D01*
X430202Y302421D01*
X430160Y302427D01*
X421440Y302427D01*
X421408Y302423D01*
X421376Y302425D01*
X421269Y302403D01*
X421161Y302387D01*
X421132Y302374D01*
X421100Y302368D01*
X421003Y302316D01*
X420904Y302271D01*
X420880Y302250D01*
X420851Y302235D01*
X420773Y302159D01*
X420690Y302088D01*
X420672Y302061D01*
X420649Y302038D01*
X420595Y301944D01*
X420535Y301852D01*
X420526Y301821D01*
X420510Y301793D01*
X420485Y301687D01*
X420453Y301582D01*
X420452Y301550D01*
X420445Y301519D01*
X420451Y301409D01*
X420449Y301300D01*
X420458Y301269D01*
X420459Y301237D01*
X420495Y301134D01*
X420524Y301028D01*
X420541Y301001D01*
X420552Y300970D01*
X420605Y300897D01*
X420672Y300788D01*
X420708Y300756D01*
X420734Y300721D01*
X421283Y300172D01*
X422753Y296624D01*
X422753Y279576D01*
X421283Y276028D01*
X418568Y273313D01*
X415020Y271843D01*
X411180Y271843D01*
X407632Y273313D01*
X404917Y276028D01*
X403447Y279576D01*
X403447Y296624D01*
X404917Y300172D01*
X405466Y300721D01*
X405486Y300747D01*
X405510Y300768D01*
X405570Y300860D01*
X405636Y300947D01*
X405647Y300977D01*
X405665Y301004D01*
X405697Y301109D01*
X405735Y301211D01*
X405738Y301243D01*
X405747Y301274D01*
X405749Y301383D01*
X405757Y301492D01*
X405750Y301524D01*
X405751Y301556D01*
X405722Y301661D01*
X405699Y301768D01*
X405684Y301797D01*
X405676Y301828D01*
X405618Y301921D01*
X405567Y302017D01*
X405544Y302040D01*
X405528Y302068D01*
X405446Y302141D01*
X405370Y302219D01*
X405342Y302235D01*
X405318Y302257D01*
X405220Y302304D01*
X405125Y302358D01*
X405093Y302366D01*
X405064Y302380D01*
X404975Y302394D01*
X404850Y302423D01*
X404802Y302421D01*
X404760Y302427D01*
X396040Y302427D01*
X396008Y302423D01*
X395976Y302425D01*
X395869Y302403D01*
X395761Y302387D01*
X395732Y302374D01*
X395700Y302368D01*
X395603Y302316D01*
X395504Y302271D01*
X395480Y302250D01*
X395451Y302235D01*
X395373Y302159D01*
X395290Y302088D01*
X395272Y302061D01*
X395249Y302038D01*
X395195Y301944D01*
X395135Y301852D01*
X395126Y301821D01*
X395110Y301793D01*
X395085Y301687D01*
X395053Y301582D01*
X395052Y301550D01*
X395045Y301519D01*
X395051Y301409D01*
X395049Y301300D01*
X395058Y301269D01*
X395059Y301237D01*
X395095Y301134D01*
X395124Y301028D01*
X395141Y301001D01*
X395152Y300970D01*
X395205Y300897D01*
X395272Y300788D01*
X395308Y300756D01*
X395334Y300721D01*
X395883Y300172D01*
X397353Y296624D01*
X397353Y279576D01*
X395883Y276028D01*
X393168Y273313D01*
X389620Y271843D01*
X385780Y271843D01*
X382232Y273313D01*
X381513Y274032D01*
X381461Y274071D01*
X381416Y274117D01*
X381349Y274155D01*
X381287Y274202D01*
X381227Y274224D01*
X381171Y274256D01*
X381095Y274274D01*
X381023Y274301D01*
X380959Y274306D01*
X380896Y274321D01*
X380819Y274317D01*
X380742Y274323D01*
X380679Y274310D01*
X380615Y274307D01*
X380542Y274281D01*
X380466Y274266D01*
X380409Y274235D01*
X380348Y274214D01*
X380292Y274173D01*
X380217Y274133D01*
X380156Y274074D01*
X380099Y274032D01*
X368494Y262427D01*
X342685Y262427D01*
X342653Y262423D01*
X342621Y262425D01*
X342514Y262403D01*
X342406Y262387D01*
X342376Y262374D01*
X342345Y262368D01*
X342248Y262316D01*
X342149Y262271D01*
X342124Y262250D01*
X342096Y262235D01*
X342017Y262159D01*
X341934Y262088D01*
X341917Y262061D01*
X341894Y262038D01*
X341840Y261943D01*
X341780Y261852D01*
X341770Y261821D01*
X341755Y261793D01*
X341729Y261687D01*
X341698Y261582D01*
X341697Y261550D01*
X341690Y261519D01*
X341695Y261409D01*
X341694Y261300D01*
X341702Y261269D01*
X341704Y261237D01*
X341740Y261134D01*
X341769Y261028D01*
X341786Y261001D01*
X341797Y260970D01*
X341850Y260897D01*
X341917Y260788D01*
X341953Y260756D01*
X341978Y260721D01*
X342815Y259885D01*
X343859Y257364D01*
X343859Y254636D01*
X342815Y252115D01*
X340885Y250185D01*
X338364Y249141D01*
X335636Y249141D01*
X333115Y250185D01*
X331185Y252115D01*
X330141Y254636D01*
X330141Y255332D01*
X330132Y255396D01*
X330133Y255460D01*
X330112Y255535D01*
X330101Y255611D01*
X330075Y255670D01*
X330058Y255732D01*
X330017Y255798D01*
X329985Y255868D01*
X329943Y255917D01*
X329910Y255972D01*
X329852Y256024D01*
X329802Y256082D01*
X329748Y256118D01*
X329700Y256161D01*
X329631Y256194D01*
X329566Y256237D01*
X329504Y256256D01*
X329447Y256284D01*
X329377Y256295D01*
X329296Y256319D01*
X329211Y256320D01*
X329142Y256331D01*
X323341Y256331D01*
X323224Y256315D01*
X323106Y256303D01*
X323085Y256295D01*
X323062Y256291D01*
X322954Y256243D01*
X322844Y256199D01*
X322826Y256185D01*
X322805Y256175D01*
X322715Y256098D01*
X322622Y256025D01*
X322608Y256007D01*
X322591Y255992D01*
X322526Y255892D01*
X322457Y255796D01*
X322449Y255775D01*
X322437Y255756D01*
X322402Y255642D01*
X322362Y255531D01*
X322361Y255508D01*
X322354Y255486D01*
X322353Y255368D01*
X322346Y255249D01*
X322351Y255228D01*
X322350Y255204D01*
X322400Y255025D01*
X322418Y254950D01*
X322859Y253886D01*
X322859Y252544D01*
X322872Y252449D01*
X322877Y252353D01*
X322892Y252310D01*
X322899Y252265D01*
X322938Y252177D01*
X322970Y252086D01*
X322995Y252052D01*
X323015Y252008D01*
X323098Y251911D01*
X323151Y251837D01*
X332123Y242865D01*
X332200Y242808D01*
X332272Y242743D01*
X332313Y242723D01*
X332349Y242696D01*
X332439Y242662D01*
X332525Y242620D01*
X332567Y242614D01*
X332613Y242597D01*
X332741Y242587D01*
X332830Y242573D01*
X463894Y242573D01*
X480573Y225894D01*
X480573Y225840D01*
X480577Y225808D01*
X480575Y225776D01*
X480597Y225669D01*
X480613Y225561D01*
X480626Y225532D01*
X480632Y225500D01*
X480684Y225404D01*
X480729Y225304D01*
X480750Y225279D01*
X480765Y225251D01*
X480841Y225173D01*
X480912Y225090D01*
X480939Y225072D01*
X480962Y225049D01*
X481057Y224995D01*
X481148Y224935D01*
X481179Y224926D01*
X481207Y224910D01*
X481313Y224885D01*
X481418Y224853D01*
X481450Y224852D01*
X481481Y224845D01*
X481591Y224851D01*
X481700Y224849D01*
X481731Y224858D01*
X481763Y224859D01*
X481866Y224895D01*
X481972Y224924D01*
X481999Y224941D01*
X482030Y224952D01*
X482103Y225005D01*
X482212Y225072D01*
X482244Y225108D01*
X482279Y225134D01*
X483832Y226687D01*
X487380Y228157D01*
X491220Y228157D01*
X494768Y226687D01*
X495488Y225968D01*
X495539Y225929D01*
X495584Y225883D01*
X495651Y225845D01*
X495713Y225798D01*
X495773Y225776D01*
X495829Y225744D01*
X495905Y225726D01*
X495977Y225699D01*
X496041Y225694D01*
X496104Y225679D01*
X496181Y225683D01*
X496258Y225677D01*
X496321Y225690D01*
X496385Y225693D01*
X496459Y225719D01*
X496534Y225735D01*
X496591Y225765D01*
X496652Y225786D01*
X496708Y225827D01*
X496783Y225867D01*
X496844Y225926D01*
X496901Y225968D01*
X502535Y231601D01*
X502535Y231602D01*
X505506Y234573D01*
X546303Y234573D01*
X556573Y224303D01*
X556573Y203308D01*
X556586Y203213D01*
X556591Y203117D01*
X556606Y203074D01*
X556613Y203029D01*
X556652Y202941D01*
X556684Y202850D01*
X556709Y202816D01*
X556729Y202772D01*
X556812Y202675D01*
X556865Y202601D01*
X558505Y200961D01*
X558582Y200904D01*
X558654Y200839D01*
X558695Y200819D01*
X558731Y200792D01*
X558821Y200758D01*
X558907Y200716D01*
X558949Y200710D01*
X558995Y200693D01*
X559123Y200683D01*
X559212Y200669D01*
X662667Y200669D01*
X662762Y200682D01*
X662858Y200687D01*
X662901Y200702D01*
X662946Y200709D01*
X663034Y200748D01*
X663125Y200780D01*
X663159Y200805D01*
X663203Y200825D01*
X663300Y200908D01*
X663373Y200961D01*
X690135Y227723D01*
X690192Y227799D01*
X690257Y227871D01*
X690277Y227912D01*
X690304Y227948D01*
X690338Y228038D01*
X690380Y228124D01*
X690386Y228167D01*
X690403Y228212D01*
X690413Y228340D01*
X690427Y228429D01*
X690427Y254394D01*
X697838Y261805D01*
X697844Y261812D01*
X697851Y261818D01*
X697928Y261925D01*
X698007Y262030D01*
X698011Y262039D01*
X698016Y262047D01*
X698060Y262171D01*
X698107Y262294D01*
X698108Y262304D01*
X698111Y262313D01*
X698118Y262444D01*
X698129Y262576D01*
X698127Y262585D01*
X698127Y262594D01*
X698109Y262670D01*
X698071Y262852D01*
X698060Y262873D01*
X698055Y262894D01*
X697201Y264954D01*
X697201Y270046D01*
X699150Y274750D01*
X702750Y278350D01*
X707454Y280299D01*
X712546Y280299D01*
X717250Y278350D01*
X720850Y274750D01*
X722799Y270046D01*
X722799Y264954D01*
X720850Y260250D01*
X717250Y256650D01*
X712546Y254701D01*
X707454Y254701D01*
X705394Y255555D01*
X705385Y255557D01*
X705376Y255562D01*
X705247Y255592D01*
X705121Y255625D01*
X705111Y255624D01*
X705102Y255627D01*
X704969Y255620D01*
X704839Y255616D01*
X704830Y255613D01*
X704820Y255612D01*
X704696Y255569D01*
X704571Y255528D01*
X704563Y255523D01*
X704554Y255520D01*
X704492Y255474D01*
X704338Y255369D01*
X704322Y255351D01*
X704305Y255338D01*
X699865Y250899D01*
X699808Y250822D01*
X699743Y250750D01*
X699723Y250709D01*
X699696Y250673D01*
X699662Y250583D01*
X699620Y250497D01*
X699614Y250455D01*
X699597Y250409D01*
X699587Y250281D01*
X699573Y250192D01*
X699573Y242585D01*
X699577Y242553D01*
X699575Y242521D01*
X699597Y242414D01*
X699613Y242306D01*
X699626Y242277D01*
X699632Y242245D01*
X699684Y242149D01*
X699729Y242049D01*
X699750Y242025D01*
X699765Y241996D01*
X699841Y241918D01*
X699912Y241835D01*
X699939Y241817D01*
X699962Y241794D01*
X700057Y241740D01*
X700148Y241680D01*
X700179Y241671D01*
X700207Y241655D01*
X700313Y241630D01*
X700418Y241598D01*
X700450Y241598D01*
X700481Y241590D01*
X700591Y241596D01*
X700700Y241594D01*
X700731Y241603D01*
X700763Y241604D01*
X700866Y241640D01*
X700972Y241669D01*
X700999Y241686D01*
X701030Y241697D01*
X701103Y241750D01*
X701212Y241818D01*
X701244Y241854D01*
X701279Y241879D01*
X702750Y243350D01*
X707454Y245299D01*
X712546Y245299D01*
X717250Y243350D01*
X720850Y239750D01*
X722799Y235046D01*
X722799Y229954D01*
X720850Y225250D01*
X717250Y221650D01*
X712546Y219701D01*
X707454Y219701D01*
X705394Y220555D01*
X705385Y220557D01*
X705376Y220562D01*
X705247Y220592D01*
X705121Y220625D01*
X705111Y220624D01*
X705102Y220627D01*
X704969Y220620D01*
X704839Y220616D01*
X704830Y220613D01*
X704820Y220612D01*
X704696Y220569D01*
X704571Y220528D01*
X704563Y220523D01*
X704554Y220520D01*
X704492Y220475D01*
X704338Y220369D01*
X704322Y220351D01*
X704305Y220338D01*
X672365Y188399D01*
X672365Y188398D01*
X669394Y185427D01*
X534706Y185427D01*
X531735Y188399D01*
X522301Y197832D01*
X522249Y197871D01*
X522204Y197917D01*
X522137Y197955D01*
X522075Y198002D01*
X522015Y198024D01*
X521959Y198056D01*
X521884Y198074D01*
X521811Y198101D01*
X521747Y198106D01*
X521685Y198121D01*
X521607Y198117D01*
X521530Y198123D01*
X521467Y198110D01*
X521403Y198107D01*
X521330Y198081D01*
X521254Y198065D01*
X521197Y198035D01*
X521137Y198014D01*
X521080Y197973D01*
X521005Y197933D01*
X520944Y197874D01*
X520888Y197832D01*
X520168Y197113D01*
X516620Y195643D01*
X512780Y195643D01*
X509232Y197113D01*
X506517Y199828D01*
X505047Y203376D01*
X505047Y218768D01*
X505043Y218800D01*
X505045Y218832D01*
X505039Y218864D01*
X505039Y218895D01*
X505019Y218968D01*
X505007Y219047D01*
X504994Y219077D01*
X504988Y219108D01*
X504972Y219138D01*
X504964Y219166D01*
X504925Y219229D01*
X504891Y219304D01*
X504870Y219329D01*
X504855Y219357D01*
X504830Y219383D01*
X504816Y219406D01*
X504763Y219454D01*
X504708Y219518D01*
X504681Y219536D01*
X504658Y219559D01*
X504626Y219577D01*
X504606Y219595D01*
X504544Y219625D01*
X504472Y219673D01*
X504441Y219682D01*
X504413Y219698D01*
X504376Y219707D01*
X504353Y219718D01*
X504292Y219728D01*
X504202Y219755D01*
X504170Y219756D01*
X504139Y219763D01*
X504084Y219760D01*
X504048Y219766D01*
X504047Y219766D01*
X503992Y219758D01*
X503920Y219759D01*
X503889Y219751D01*
X503857Y219749D01*
X503808Y219732D01*
X503767Y219726D01*
X503714Y219702D01*
X503648Y219684D01*
X503621Y219667D01*
X503590Y219656D01*
X503553Y219629D01*
X503511Y219610D01*
X503464Y219570D01*
X503408Y219536D01*
X503376Y219500D01*
X503341Y219475D01*
X499245Y215379D01*
X499188Y215302D01*
X499123Y215230D01*
X499103Y215189D01*
X499076Y215153D01*
X499042Y215063D01*
X499000Y214977D01*
X498994Y214935D01*
X498977Y214889D01*
X498967Y214762D01*
X498953Y214672D01*
X498953Y203376D01*
X497483Y199828D01*
X496418Y198762D01*
X496379Y198711D01*
X496333Y198666D01*
X496295Y198599D01*
X496248Y198537D01*
X496226Y198477D01*
X496194Y198421D01*
X496176Y198345D01*
X496149Y198273D01*
X496144Y198209D01*
X496129Y198146D01*
X496133Y198069D01*
X496127Y197992D01*
X496140Y197929D01*
X496143Y197865D01*
X496169Y197792D01*
X496185Y197716D01*
X496215Y197659D01*
X496236Y197598D01*
X496277Y197542D01*
X496317Y197467D01*
X496376Y197406D01*
X496418Y197349D01*
X498045Y195721D01*
X498046Y195721D01*
X522043Y171723D01*
X522120Y171666D01*
X522192Y171601D01*
X522233Y171581D01*
X522269Y171554D01*
X522359Y171520D01*
X522445Y171478D01*
X522487Y171472D01*
X522533Y171455D01*
X522661Y171445D01*
X522750Y171431D01*
X532035Y171431D01*
X538731Y164735D01*
X538731Y155265D01*
X532035Y148569D01*
X522565Y148569D01*
X515869Y155265D01*
X515869Y164550D01*
X515856Y164645D01*
X515851Y164741D01*
X515836Y164784D01*
X515829Y164829D01*
X515790Y164917D01*
X515758Y165008D01*
X515733Y165042D01*
X515713Y165086D01*
X515630Y165183D01*
X515577Y165257D01*
X497147Y183687D01*
X497121Y183706D01*
X497100Y183730D01*
X497008Y183790D01*
X496921Y183856D01*
X496891Y183867D01*
X496864Y183885D01*
X496759Y183917D01*
X496657Y183955D01*
X496625Y183958D01*
X496594Y183967D01*
X496485Y183969D01*
X496376Y183977D01*
X496344Y183971D01*
X496312Y183971D01*
X496207Y183942D01*
X496100Y183920D01*
X496071Y183905D01*
X496040Y183896D01*
X495947Y183838D01*
X495851Y183787D01*
X495828Y183765D01*
X495800Y183748D01*
X495727Y183667D01*
X495649Y183590D01*
X495633Y183562D01*
X495611Y183538D01*
X495564Y183440D01*
X495510Y183345D01*
X495502Y183314D01*
X495488Y183285D01*
X495474Y183195D01*
X495445Y183071D01*
X495447Y183022D01*
X495441Y182980D01*
X495441Y181999D01*
X486400Y181999D01*
X486337Y181990D01*
X486272Y181991D01*
X486198Y181970D01*
X486121Y181959D01*
X486062Y181933D01*
X486000Y181916D01*
X485934Y181875D01*
X485864Y181843D01*
X485815Y181801D01*
X485760Y181768D01*
X485709Y181710D01*
X485650Y181660D01*
X485614Y181606D01*
X485571Y181558D01*
X485538Y181489D01*
X485495Y181424D01*
X485476Y181362D01*
X485448Y181305D01*
X485438Y181235D01*
X485413Y181154D01*
X485412Y181069D01*
X485401Y181000D01*
X485401Y179999D01*
X485399Y179999D01*
X485399Y181000D01*
X485390Y181064D01*
X485391Y181128D01*
X485370Y181203D01*
X485359Y181279D01*
X485333Y181338D01*
X485316Y181400D01*
X485275Y181466D01*
X485243Y181536D01*
X485201Y181585D01*
X485168Y181640D01*
X485110Y181692D01*
X485060Y181750D01*
X485006Y181786D01*
X484958Y181829D01*
X484889Y181862D01*
X484824Y181905D01*
X484762Y181924D01*
X484704Y181952D01*
X484635Y181962D01*
X484554Y181987D01*
X484469Y181988D01*
X484400Y181999D01*
X475359Y181999D01*
X475359Y184159D01*
X481055Y189855D01*
X481094Y189907D01*
X481140Y189951D01*
X481178Y190019D01*
X481225Y190081D01*
X481247Y190141D01*
X481279Y190197D01*
X481297Y190272D01*
X481324Y190345D01*
X481329Y190409D01*
X481344Y190471D01*
X481340Y190549D01*
X481346Y190626D01*
X481333Y190689D01*
X481330Y190753D01*
X481304Y190826D01*
X481288Y190902D01*
X481258Y190959D01*
X481237Y191019D01*
X481196Y191076D01*
X481156Y191151D01*
X481097Y191212D01*
X481055Y191268D01*
X472996Y199328D01*
X472945Y199366D01*
X472900Y199412D01*
X472832Y199451D01*
X472770Y199497D01*
X472710Y199520D01*
X472654Y199551D01*
X472579Y199569D01*
X472507Y199597D01*
X472443Y199602D01*
X472380Y199616D01*
X472302Y199612D01*
X472225Y199618D01*
X472163Y199605D01*
X472098Y199602D01*
X472025Y199577D01*
X471949Y199561D01*
X471893Y199531D01*
X471832Y199510D01*
X471775Y199468D01*
X471700Y199428D01*
X471640Y199369D01*
X471583Y199328D01*
X469368Y197113D01*
X465820Y195643D01*
X461980Y195643D01*
X458432Y197113D01*
X455717Y199828D01*
X454247Y203376D01*
X454247Y220424D01*
X455717Y223972D01*
X458432Y226687D01*
X461980Y228157D01*
X462964Y228157D01*
X462996Y228161D01*
X463028Y228159D01*
X463135Y228181D01*
X463243Y228197D01*
X463273Y228210D01*
X463304Y228216D01*
X463401Y228268D01*
X463500Y228313D01*
X463525Y228334D01*
X463553Y228349D01*
X463631Y228425D01*
X463714Y228496D01*
X463732Y228523D01*
X463755Y228546D01*
X463809Y228641D01*
X463869Y228732D01*
X463878Y228763D01*
X463894Y228791D01*
X463919Y228897D01*
X463951Y229002D01*
X463952Y229034D01*
X463959Y229065D01*
X463954Y229175D01*
X463955Y229284D01*
X463947Y229315D01*
X463945Y229347D01*
X463909Y229450D01*
X463880Y229556D01*
X463863Y229583D01*
X463852Y229614D01*
X463799Y229687D01*
X463732Y229796D01*
X463696Y229828D01*
X463671Y229863D01*
X460399Y233135D01*
X460322Y233192D01*
X460250Y233257D01*
X460209Y233277D01*
X460173Y233304D01*
X460083Y233338D01*
X459997Y233380D01*
X459955Y233386D01*
X459909Y233403D01*
X459781Y233413D01*
X459692Y233427D01*
X328628Y233427D01*
X316685Y245371D01*
X316608Y245428D01*
X316536Y245493D01*
X316495Y245513D01*
X316459Y245540D01*
X316369Y245574D01*
X316283Y245616D01*
X316241Y245622D01*
X316195Y245639D01*
X316067Y245649D01*
X315978Y245663D01*
X314636Y245663D01*
X312115Y246707D01*
X310185Y248637D01*
X309141Y251158D01*
X309141Y253886D01*
X309582Y254950D01*
X309611Y255065D01*
X309646Y255178D01*
X309646Y255201D01*
X309652Y255223D01*
X309648Y255341D01*
X309650Y255460D01*
X309643Y255482D01*
X309643Y255505D01*
X309606Y255617D01*
X309574Y255732D01*
X309562Y255751D01*
X309555Y255773D01*
X309489Y255871D01*
X309426Y255972D01*
X309409Y255987D01*
X309396Y256006D01*
X309305Y256081D01*
X309217Y256161D01*
X309196Y256171D01*
X309179Y256185D01*
X309070Y256232D01*
X308963Y256284D01*
X308942Y256287D01*
X308920Y256297D01*
X308735Y256319D01*
X308659Y256331D01*
X277212Y256331D01*
X277117Y256318D01*
X277021Y256313D01*
X276978Y256298D01*
X276933Y256291D01*
X276845Y256252D01*
X276754Y256220D01*
X276720Y256195D01*
X276676Y256175D01*
X276579Y256092D01*
X276505Y256039D01*
X252865Y232399D01*
X252808Y232322D01*
X252743Y232250D01*
X252723Y232209D01*
X252696Y232173D01*
X252662Y232083D01*
X252620Y231997D01*
X252614Y231955D01*
X252597Y231909D01*
X252587Y231781D01*
X252573Y231692D01*
X252573Y226440D01*
X252577Y226408D01*
X252575Y226376D01*
X252597Y226269D01*
X252613Y226161D01*
X252626Y226132D01*
X252632Y226100D01*
X252684Y226003D01*
X252729Y225904D01*
X252750Y225880D01*
X252765Y225851D01*
X252841Y225773D01*
X252912Y225690D01*
X252939Y225672D01*
X252962Y225649D01*
X253057Y225595D01*
X253148Y225535D01*
X253179Y225526D01*
X253207Y225510D01*
X253313Y225485D01*
X253418Y225453D01*
X253450Y225452D01*
X253481Y225445D01*
X253591Y225451D01*
X253700Y225449D01*
X253731Y225458D01*
X253763Y225459D01*
X253866Y225495D01*
X253972Y225524D01*
X253999Y225541D01*
X254030Y225552D01*
X254103Y225605D01*
X254212Y225672D01*
X254244Y225708D01*
X254279Y225734D01*
X255232Y226687D01*
X258780Y228157D01*
X262620Y228157D01*
X266168Y226687D01*
X268883Y223972D01*
X270353Y220424D01*
X270353Y203376D01*
X268883Y199828D01*
X266168Y197113D01*
X265890Y196998D01*
X265881Y196993D01*
X265872Y196990D01*
X265760Y196921D01*
X265647Y196854D01*
X265640Y196847D01*
X265632Y196842D01*
X265544Y196744D01*
X265454Y196648D01*
X265450Y196640D01*
X265443Y196633D01*
X265386Y196514D01*
X265326Y196397D01*
X265324Y196387D01*
X265320Y196379D01*
X265308Y196303D01*
X265274Y196120D01*
X265276Y196096D01*
X265273Y196074D01*
X265273Y172806D01*
X182786Y90319D01*
X163202Y90319D01*
X163193Y90318D01*
X163183Y90319D01*
X163053Y90298D01*
X162923Y90279D01*
X162914Y90276D01*
X162905Y90274D01*
X162786Y90217D01*
X162666Y90163D01*
X162659Y90157D01*
X162650Y90153D01*
X162552Y90065D01*
X162452Y89980D01*
X162447Y89972D01*
X162439Y89966D01*
X162399Y89900D01*
X162297Y89744D01*
X162290Y89721D01*
X162279Y89702D01*
X161613Y88093D01*
X158236Y84717D01*
X153825Y82890D01*
X131143Y82890D01*
X126732Y84717D01*
X123355Y88093D01*
X122689Y89702D01*
X122684Y89711D01*
X122682Y89720D01*
X122612Y89832D01*
X122545Y89945D01*
X122538Y89952D01*
X122533Y89960D01*
X122436Y90048D01*
X122340Y90138D01*
X122331Y90142D01*
X122324Y90149D01*
X122206Y90206D01*
X122088Y90266D01*
X122079Y90268D01*
X122070Y90272D01*
X121995Y90284D01*
X121811Y90318D01*
X121787Y90316D01*
X121766Y90319D01*
X38234Y90319D01*
X38225Y90318D01*
X38215Y90319D01*
X38085Y90298D01*
X37955Y90279D01*
X37946Y90276D01*
X37937Y90274D01*
X37818Y90217D01*
X37698Y90163D01*
X37691Y90157D01*
X37682Y90153D01*
X37584Y90065D01*
X37484Y89980D01*
X37479Y89972D01*
X37471Y89966D01*
X37431Y89900D01*
X37329Y89744D01*
X37322Y89721D01*
X37311Y89702D01*
X36645Y88093D01*
X33268Y84717D01*
X28857Y82890D01*
X11922Y82890D01*
X11858Y82881D01*
X11794Y82882D01*
X11719Y82861D01*
X11643Y82850D01*
X11584Y82824D01*
X11522Y82806D01*
X11456Y82766D01*
X11386Y82734D01*
X11337Y82692D01*
X11282Y82658D01*
X11230Y82601D01*
X11172Y82550D01*
X11136Y82497D01*
X11093Y82449D01*
X11060Y82379D01*
X11017Y82314D01*
X10998Y82253D01*
X10970Y82195D01*
X10959Y82126D01*
X10935Y82045D01*
X10934Y81960D01*
X10923Y81891D01*
X10923Y58109D01*
X10932Y58046D01*
X10931Y57982D01*
X10952Y57907D01*
X10963Y57830D01*
X10989Y57772D01*
X11006Y57710D01*
X11047Y57644D01*
X11079Y57573D01*
X11121Y57525D01*
X11154Y57470D01*
X11212Y57418D01*
X11262Y57359D01*
X11316Y57324D01*
X11364Y57281D01*
X11433Y57247D01*
X11498Y57205D01*
X11560Y57186D01*
X11617Y57158D01*
X11687Y57147D01*
X11768Y57122D01*
X11853Y57121D01*
X11922Y57110D01*
X28857Y57110D01*
X33268Y55283D01*
X36658Y51893D01*
X36704Y51819D01*
X36771Y51706D01*
X36778Y51699D01*
X36783Y51691D01*
X36881Y51603D01*
X36976Y51513D01*
X36985Y51509D01*
X36992Y51502D01*
X37111Y51445D01*
X37228Y51385D01*
X37237Y51383D01*
X37246Y51379D01*
X37322Y51367D01*
X37505Y51333D01*
X37529Y51335D01*
X37550Y51332D01*
X122450Y51332D01*
X122459Y51333D01*
X122468Y51332D01*
X122598Y51353D01*
X122729Y51372D01*
X122738Y51375D01*
X122747Y51377D01*
X122866Y51434D01*
X122986Y51488D01*
X122993Y51494D01*
X123002Y51498D01*
X123100Y51586D01*
X123200Y51671D01*
X123205Y51679D01*
X123212Y51685D01*
X123252Y51751D01*
X123352Y51903D01*
X126732Y55283D01*
X131143Y57110D01*
X153825Y57110D01*
X158236Y55283D01*
X161612Y51907D01*
X163440Y47495D01*
X163440Y42721D01*
X161613Y38309D01*
X160555Y37252D01*
X160516Y37200D01*
X160470Y37156D01*
X160432Y37088D01*
X160386Y37026D01*
X160363Y36966D01*
X160331Y36910D01*
X160314Y36835D01*
X160286Y36762D01*
X160281Y36698D01*
X160266Y36636D01*
X160270Y36558D01*
X160264Y36481D01*
X160278Y36418D01*
X160281Y36354D01*
X160306Y36281D01*
X160322Y36205D01*
X160352Y36148D01*
X160373Y36088D01*
X160415Y36031D01*
X160454Y35956D01*
X160514Y35895D01*
X160555Y35839D01*
X162483Y33910D01*
X162560Y33853D01*
X162631Y33788D01*
X162672Y33768D01*
X162709Y33741D01*
X162799Y33707D01*
X162885Y33665D01*
X162927Y33659D01*
X162973Y33642D01*
X163100Y33632D01*
X163190Y33618D01*
X190590Y33618D01*
X190685Y33631D01*
G37*
G36*
X216524Y226050D02*
X216524Y226050D01*
X216556Y226049D01*
X216661Y226078D01*
X216768Y226101D01*
X216797Y226116D01*
X216828Y226124D01*
X216921Y226182D01*
X217017Y226233D01*
X217040Y226255D01*
X217068Y226272D01*
X217141Y226354D01*
X217219Y226430D01*
X217235Y226458D01*
X217257Y226482D01*
X217304Y226580D01*
X217358Y226675D01*
X217366Y226706D01*
X217380Y226736D01*
X217394Y226825D01*
X217423Y226950D01*
X217421Y226998D01*
X217427Y227040D01*
X217427Y272960D01*
X217423Y272992D01*
X217425Y273024D01*
X217403Y273131D01*
X217387Y273239D01*
X217374Y273268D01*
X217368Y273300D01*
X217316Y273397D01*
X217271Y273496D01*
X217250Y273520D01*
X217235Y273549D01*
X217159Y273627D01*
X217088Y273710D01*
X217061Y273728D01*
X217038Y273751D01*
X216943Y273805D01*
X216852Y273865D01*
X216821Y273874D01*
X216793Y273890D01*
X216687Y273915D01*
X216582Y273947D01*
X216550Y273948D01*
X216519Y273955D01*
X216409Y273949D01*
X216300Y273951D01*
X216269Y273942D01*
X216237Y273941D01*
X216134Y273905D01*
X216028Y273876D01*
X216001Y273859D01*
X215970Y273848D01*
X215897Y273795D01*
X215788Y273728D01*
X215756Y273692D01*
X215721Y273666D01*
X215368Y273313D01*
X211820Y271843D01*
X207980Y271843D01*
X204432Y273313D01*
X201717Y276028D01*
X200247Y279576D01*
X200247Y296624D01*
X201717Y300172D01*
X204432Y302887D01*
X207980Y304357D01*
X211820Y304357D01*
X215368Y302887D01*
X215721Y302534D01*
X215747Y302514D01*
X215768Y302490D01*
X215860Y302430D01*
X215947Y302364D01*
X215977Y302353D01*
X216004Y302335D01*
X216109Y302303D01*
X216211Y302265D01*
X216243Y302262D01*
X216274Y302253D01*
X216383Y302251D01*
X216492Y302243D01*
X216524Y302250D01*
X216556Y302249D01*
X216661Y302278D01*
X216768Y302301D01*
X216797Y302316D01*
X216828Y302324D01*
X216921Y302382D01*
X217017Y302433D01*
X217040Y302455D01*
X217068Y302472D01*
X217141Y302554D01*
X217219Y302630D01*
X217235Y302658D01*
X217257Y302682D01*
X217304Y302780D01*
X217358Y302875D01*
X217366Y302906D01*
X217380Y302936D01*
X217394Y303025D01*
X217423Y303150D01*
X217421Y303198D01*
X217427Y303240D01*
X217427Y315894D01*
X220399Y318865D01*
X228397Y326863D01*
X228416Y326889D01*
X228440Y326910D01*
X228500Y327002D01*
X228566Y327089D01*
X228577Y327119D01*
X228595Y327146D01*
X228627Y327251D01*
X228665Y327353D01*
X228668Y327385D01*
X228677Y327416D01*
X228679Y327525D01*
X228687Y327634D01*
X228681Y327666D01*
X228681Y327698D01*
X228652Y327803D01*
X228630Y327910D01*
X228615Y327939D01*
X228606Y327970D01*
X228548Y328063D01*
X228497Y328159D01*
X228475Y328182D01*
X228458Y328210D01*
X228377Y328283D01*
X228300Y328361D01*
X228272Y328377D01*
X228248Y328399D01*
X228150Y328446D01*
X228055Y328500D01*
X228024Y328508D01*
X227995Y328522D01*
X227905Y328536D01*
X227781Y328565D01*
X227732Y328563D01*
X227690Y328569D01*
X217965Y328569D01*
X211269Y335265D01*
X211269Y344735D01*
X217965Y351431D01*
X227435Y351431D01*
X234131Y344735D01*
X234131Y335010D01*
X234135Y334978D01*
X234133Y334946D01*
X234155Y334839D01*
X234171Y334731D01*
X234184Y334701D01*
X234190Y334670D01*
X234242Y334573D01*
X234287Y334474D01*
X234308Y334449D01*
X234323Y334421D01*
X234399Y334342D01*
X234470Y334260D01*
X234497Y334242D01*
X234520Y334219D01*
X234615Y334165D01*
X234706Y334105D01*
X234737Y334096D01*
X234765Y334080D01*
X234872Y334055D01*
X234976Y334023D01*
X235008Y334022D01*
X235039Y334015D01*
X235149Y334020D01*
X235258Y334019D01*
X235289Y334027D01*
X235321Y334029D01*
X235424Y334065D01*
X235530Y334094D01*
X235557Y334111D01*
X235588Y334122D01*
X235661Y334175D01*
X235770Y334242D01*
X235802Y334278D01*
X235837Y334303D01*
X285106Y383573D01*
X371692Y383573D01*
X371787Y383586D01*
X371883Y383591D01*
X371926Y383606D01*
X371971Y383613D01*
X372059Y383652D01*
X372150Y383684D01*
X372184Y383709D01*
X372228Y383729D01*
X372325Y383812D01*
X372399Y383865D01*
X425135Y436601D01*
X425192Y436678D01*
X425257Y436750D01*
X425277Y436791D01*
X425304Y436827D01*
X425338Y436917D01*
X425380Y437003D01*
X425386Y437045D01*
X425403Y437091D01*
X425413Y437219D01*
X425427Y437308D01*
X425427Y440536D01*
X425414Y440631D01*
X425409Y440727D01*
X425394Y440770D01*
X425387Y440815D01*
X425348Y440902D01*
X425316Y440993D01*
X425291Y441028D01*
X425271Y441072D01*
X425188Y441169D01*
X425135Y441242D01*
X419801Y446576D01*
X419801Y455024D01*
X425776Y460999D01*
X434224Y460999D01*
X440199Y455024D01*
X440199Y447482D01*
X440212Y447387D01*
X440217Y447291D01*
X440232Y447248D01*
X440239Y447203D01*
X440278Y447115D01*
X440310Y447024D01*
X440335Y446990D01*
X440355Y446946D01*
X440438Y446848D01*
X440491Y446775D01*
X477293Y409973D01*
X477370Y409916D01*
X477442Y409851D01*
X477483Y409831D01*
X477519Y409804D01*
X477609Y409770D01*
X477695Y409728D01*
X477737Y409722D01*
X477783Y409705D01*
X477911Y409695D01*
X478000Y409681D01*
X586798Y409681D01*
X586807Y409682D01*
X586817Y409681D01*
X586947Y409702D01*
X587077Y409721D01*
X587086Y409724D01*
X587095Y409726D01*
X587214Y409783D01*
X587334Y409837D01*
X587341Y409843D01*
X587350Y409847D01*
X587448Y409935D01*
X587548Y410020D01*
X587553Y410028D01*
X587560Y410034D01*
X587600Y410100D01*
X587703Y410256D01*
X587710Y410279D01*
X587721Y410298D01*
X588388Y411907D01*
X591764Y415283D01*
X596175Y417110D01*
X618857Y417110D01*
X623268Y415283D01*
X626644Y411907D01*
X627311Y410298D01*
X627316Y410289D01*
X627318Y410280D01*
X627388Y410168D01*
X627455Y410055D01*
X627462Y410048D01*
X627467Y410040D01*
X627565Y409952D01*
X627660Y409862D01*
X627669Y409858D01*
X627676Y409851D01*
X627795Y409794D01*
X627912Y409734D01*
X627921Y409732D01*
X627930Y409728D01*
X628006Y409716D01*
X628189Y409682D01*
X628213Y409684D01*
X628234Y409681D01*
X711766Y409681D01*
X711775Y409682D01*
X711785Y409681D01*
X711915Y409702D01*
X712045Y409721D01*
X712054Y409724D01*
X712063Y409726D01*
X712182Y409783D01*
X712302Y409837D01*
X712309Y409843D01*
X712318Y409847D01*
X712416Y409935D01*
X712516Y410020D01*
X712521Y410028D01*
X712528Y410034D01*
X712568Y410100D01*
X712671Y410256D01*
X712678Y410279D01*
X712689Y410298D01*
X713356Y411907D01*
X716732Y415283D01*
X721143Y417110D01*
X738078Y417110D01*
X738142Y417119D01*
X738206Y417118D01*
X738281Y417139D01*
X738357Y417150D01*
X738416Y417176D01*
X738478Y417194D01*
X738544Y417234D01*
X738614Y417266D01*
X738663Y417308D01*
X738718Y417342D01*
X738770Y417399D01*
X738828Y417450D01*
X738864Y417503D01*
X738907Y417551D01*
X738940Y417621D01*
X738983Y417686D01*
X739002Y417747D01*
X739030Y417805D01*
X739041Y417874D01*
X739065Y417955D01*
X739066Y418040D01*
X739077Y418109D01*
X739077Y441891D01*
X739068Y441954D01*
X739069Y442018D01*
X739048Y442093D01*
X739037Y442170D01*
X739011Y442228D01*
X738994Y442290D01*
X738953Y442356D01*
X738921Y442427D01*
X738879Y442475D01*
X738846Y442530D01*
X738788Y442582D01*
X738738Y442641D01*
X738684Y442676D01*
X738636Y442719D01*
X738567Y442753D01*
X738502Y442795D01*
X738440Y442814D01*
X738383Y442842D01*
X738313Y442853D01*
X738232Y442878D01*
X738147Y442879D01*
X738078Y442890D01*
X721143Y442890D01*
X716732Y444717D01*
X713342Y448107D01*
X713296Y448181D01*
X713229Y448294D01*
X713222Y448301D01*
X713217Y448309D01*
X713119Y448397D01*
X713024Y448487D01*
X713015Y448491D01*
X713008Y448498D01*
X712889Y448555D01*
X712772Y448615D01*
X712763Y448617D01*
X712754Y448621D01*
X712678Y448633D01*
X712495Y448667D01*
X712471Y448665D01*
X712450Y448668D01*
X627550Y448668D01*
X627541Y448667D01*
X627532Y448668D01*
X627402Y448647D01*
X627271Y448628D01*
X627262Y448625D01*
X627253Y448623D01*
X627134Y448566D01*
X627014Y448512D01*
X627007Y448506D01*
X626998Y448502D01*
X626900Y448414D01*
X626800Y448329D01*
X626795Y448321D01*
X626788Y448315D01*
X626748Y448249D01*
X626648Y448097D01*
X623268Y444717D01*
X618857Y442890D01*
X596175Y442890D01*
X591764Y444717D01*
X588388Y448093D01*
X586560Y452505D01*
X586560Y457279D01*
X588387Y461691D01*
X589445Y462748D01*
X589484Y462800D01*
X589530Y462844D01*
X589568Y462912D01*
X589614Y462974D01*
X589637Y463034D01*
X589669Y463090D01*
X589686Y463165D01*
X589714Y463238D01*
X589719Y463302D01*
X589734Y463364D01*
X589730Y463442D01*
X589736Y463519D01*
X589722Y463582D01*
X589719Y463646D01*
X589694Y463719D01*
X589678Y463795D01*
X589648Y463852D01*
X589627Y463912D01*
X589585Y463969D01*
X589546Y464044D01*
X589486Y464105D01*
X589445Y464161D01*
X580123Y473484D01*
X580046Y473541D01*
X579975Y473606D01*
X579934Y473626D01*
X579897Y473653D01*
X579807Y473687D01*
X579721Y473729D01*
X579679Y473735D01*
X579633Y473752D01*
X579506Y473762D01*
X579416Y473776D01*
X551184Y473776D01*
X551059Y473759D01*
X550934Y473745D01*
X550920Y473739D01*
X550904Y473736D01*
X550790Y473685D01*
X550674Y473636D01*
X550662Y473627D01*
X550647Y473620D01*
X550552Y473539D01*
X550454Y473460D01*
X550445Y473447D01*
X550433Y473437D01*
X550364Y473331D01*
X550292Y473229D01*
X550287Y473214D01*
X550279Y473201D01*
X550242Y473081D01*
X550202Y472962D01*
X550201Y472946D01*
X550196Y472931D01*
X550195Y472806D01*
X550189Y472680D01*
X550193Y472665D01*
X550193Y472649D01*
X550226Y472528D01*
X550256Y472406D01*
X550264Y472392D01*
X550268Y472377D01*
X550334Y472270D01*
X550397Y472161D01*
X550408Y472151D01*
X550416Y472137D01*
X550509Y472053D01*
X550600Y471966D01*
X550613Y471959D01*
X550625Y471948D01*
X550844Y471842D01*
X550875Y471827D01*
X552218Y471390D01*
X553942Y470512D01*
X555507Y469375D01*
X556875Y468007D01*
X558012Y466442D01*
X558890Y464718D01*
X559488Y462878D01*
X559627Y461999D01*
X548500Y461999D01*
X548437Y461990D01*
X548372Y461991D01*
X548298Y461970D01*
X548221Y461959D01*
X548162Y461933D01*
X548100Y461916D01*
X548034Y461875D01*
X547964Y461843D01*
X547915Y461801D01*
X547860Y461768D01*
X547809Y461710D01*
X547750Y461660D01*
X547714Y461606D01*
X547671Y461558D01*
X547638Y461489D01*
X547595Y461424D01*
X547576Y461362D01*
X547548Y461305D01*
X547538Y461235D01*
X547513Y461154D01*
X547512Y461069D01*
X547501Y461000D01*
X547501Y459999D01*
X547499Y459999D01*
X547499Y461000D01*
X547490Y461064D01*
X547491Y461128D01*
X547470Y461203D01*
X547459Y461279D01*
X547433Y461338D01*
X547416Y461400D01*
X547375Y461466D01*
X547343Y461536D01*
X547301Y461585D01*
X547268Y461640D01*
X547210Y461692D01*
X547160Y461750D01*
X547106Y461786D01*
X547058Y461829D01*
X546989Y461862D01*
X546924Y461905D01*
X546862Y461924D01*
X546804Y461952D01*
X546735Y461962D01*
X546654Y461987D01*
X546569Y461988D01*
X546500Y461999D01*
X535373Y461999D01*
X535441Y462429D01*
X535441Y462430D01*
X535512Y462878D01*
X536110Y464718D01*
X536988Y466442D01*
X538125Y468007D01*
X539493Y469375D01*
X541058Y470512D01*
X542782Y471390D01*
X544125Y471827D01*
X544238Y471882D01*
X544353Y471934D01*
X544364Y471944D01*
X544378Y471951D01*
X544471Y472035D01*
X544567Y472117D01*
X544575Y472130D01*
X544587Y472141D01*
X544652Y472248D01*
X544721Y472353D01*
X544726Y472368D01*
X544734Y472381D01*
X544767Y472503D01*
X544804Y472623D01*
X544804Y472638D01*
X544808Y472654D01*
X544806Y472779D01*
X544807Y472905D01*
X544803Y472920D01*
X544803Y472935D01*
X544766Y473055D01*
X544732Y473177D01*
X544724Y473190D01*
X544719Y473205D01*
X544650Y473310D01*
X544584Y473417D01*
X544573Y473427D01*
X544564Y473440D01*
X544468Y473522D01*
X544375Y473606D01*
X544361Y473613D01*
X544349Y473623D01*
X544234Y473674D01*
X544121Y473729D01*
X544106Y473731D01*
X544091Y473738D01*
X543850Y473771D01*
X543816Y473776D01*
X517709Y473776D01*
X517623Y473764D01*
X517537Y473761D01*
X517484Y473744D01*
X517430Y473736D01*
X517351Y473701D01*
X517269Y473674D01*
X517223Y473643D01*
X517173Y473620D01*
X517107Y473564D01*
X517036Y473515D01*
X517001Y473473D01*
X516959Y473437D01*
X516911Y473364D01*
X516856Y473297D01*
X516835Y473247D01*
X516804Y473201D01*
X516779Y473118D01*
X516745Y473038D01*
X516738Y472984D01*
X516722Y472931D01*
X516721Y472844D01*
X516710Y472758D01*
X516719Y472704D01*
X516718Y472649D01*
X516741Y472565D01*
X516755Y472480D01*
X516779Y472430D01*
X516794Y472377D01*
X516839Y472303D01*
X516876Y472225D01*
X516913Y472184D01*
X516942Y472137D01*
X517006Y472079D01*
X517064Y472014D01*
X517107Y471988D01*
X517151Y471948D01*
X517253Y471899D01*
X517327Y471854D01*
X519750Y470850D01*
X523350Y467250D01*
X525299Y462546D01*
X525299Y457454D01*
X523350Y452750D01*
X519750Y449150D01*
X515046Y447201D01*
X509954Y447201D01*
X505250Y449150D01*
X501650Y452750D01*
X499701Y457454D01*
X499701Y462546D01*
X501650Y467250D01*
X505250Y470850D01*
X507673Y471854D01*
X507748Y471898D01*
X507827Y471934D01*
X507868Y471969D01*
X507916Y471997D01*
X507975Y472061D01*
X508041Y472117D01*
X508071Y472163D01*
X508109Y472203D01*
X508148Y472280D01*
X508196Y472353D01*
X508212Y472406D01*
X508236Y472455D01*
X508253Y472540D01*
X508278Y472623D01*
X508279Y472678D01*
X508289Y472732D01*
X508281Y472818D01*
X508282Y472905D01*
X508267Y472958D01*
X508262Y473012D01*
X508230Y473093D01*
X508206Y473177D01*
X508178Y473224D01*
X508157Y473274D01*
X508104Y473343D01*
X508058Y473417D01*
X508017Y473454D01*
X507984Y473497D01*
X507914Y473547D01*
X507849Y473606D01*
X507800Y473630D01*
X507755Y473662D01*
X507673Y473691D01*
X507595Y473729D01*
X507545Y473737D01*
X507489Y473756D01*
X507376Y473763D01*
X507291Y473776D01*
X424046Y473776D01*
X423952Y473763D01*
X423855Y473758D01*
X423812Y473743D01*
X423767Y473736D01*
X423680Y473697D01*
X423589Y473665D01*
X423554Y473640D01*
X423510Y473620D01*
X423413Y473537D01*
X423340Y473484D01*
X409975Y460119D01*
X407688Y459171D01*
X379976Y459171D01*
X379965Y459170D01*
X379955Y459171D01*
X379826Y459150D01*
X379697Y459131D01*
X379687Y459127D01*
X379676Y459125D01*
X379559Y459069D01*
X379440Y459015D01*
X379432Y459008D01*
X379422Y459004D01*
X379324Y458916D01*
X379226Y458832D01*
X379220Y458823D01*
X379212Y458816D01*
X379143Y458705D01*
X379071Y458596D01*
X379068Y458586D01*
X379062Y458576D01*
X379027Y458451D01*
X378989Y458326D01*
X378989Y458315D01*
X378986Y458305D01*
X378987Y458174D01*
X378985Y458044D01*
X378988Y458034D01*
X378988Y458023D01*
X379025Y457899D01*
X379060Y457772D01*
X379066Y457763D01*
X379069Y457753D01*
X379139Y457644D01*
X379208Y457532D01*
X379216Y457525D01*
X379222Y457516D01*
X379321Y457431D01*
X379418Y457343D01*
X379427Y457339D01*
X379436Y457332D01*
X379509Y457299D01*
X379671Y457220D01*
X379695Y457217D01*
X379717Y457207D01*
X385615Y455627D01*
X391886Y452006D01*
X397006Y446886D01*
X400627Y440615D01*
X402501Y433621D01*
X402501Y426379D01*
X400627Y419385D01*
X397006Y413114D01*
X391886Y407994D01*
X385615Y404373D01*
X378621Y402499D01*
X371379Y402499D01*
X364385Y404373D01*
X358114Y407994D01*
X352994Y413114D01*
X349373Y419385D01*
X347499Y426379D01*
X347499Y433621D01*
X349373Y440615D01*
X352994Y446886D01*
X358114Y452006D01*
X364385Y455627D01*
X370283Y457207D01*
X370292Y457211D01*
X370303Y457213D01*
X370422Y457266D01*
X370542Y457318D01*
X370550Y457324D01*
X370560Y457329D01*
X370659Y457413D01*
X370760Y457496D01*
X370766Y457505D01*
X370774Y457512D01*
X370846Y457621D01*
X370920Y457729D01*
X370923Y457739D01*
X370929Y457748D01*
X370967Y457873D01*
X371008Y457997D01*
X371008Y458008D01*
X371011Y458018D01*
X371013Y458148D01*
X371017Y458279D01*
X371015Y458289D01*
X371015Y458300D01*
X370980Y458426D01*
X370948Y458552D01*
X370943Y458561D01*
X370940Y458572D01*
X370871Y458683D01*
X370805Y458795D01*
X370797Y458802D01*
X370792Y458812D01*
X370695Y458899D01*
X370600Y458989D01*
X370590Y458993D01*
X370582Y459001D01*
X370465Y459057D01*
X370349Y459117D01*
X370338Y459119D01*
X370329Y459124D01*
X370249Y459136D01*
X370072Y459170D01*
X370048Y459168D01*
X370024Y459171D01*
X367712Y459171D01*
X365425Y460119D01*
X363534Y462010D01*
X355953Y469591D01*
X355945Y469597D01*
X355939Y469604D01*
X355832Y469681D01*
X355727Y469760D01*
X355718Y469764D01*
X355710Y469769D01*
X355587Y469813D01*
X355463Y469860D01*
X355454Y469861D01*
X355445Y469864D01*
X355313Y469872D01*
X355182Y469882D01*
X355173Y469880D01*
X355163Y469880D01*
X355088Y469862D01*
X354906Y469824D01*
X354885Y469813D01*
X354864Y469808D01*
X351874Y468569D01*
X347326Y468569D01*
X343125Y470310D01*
X339951Y473484D01*
X339874Y473541D01*
X339803Y473606D01*
X339762Y473626D01*
X339725Y473653D01*
X339635Y473687D01*
X339549Y473729D01*
X339507Y473735D01*
X339461Y473752D01*
X339334Y473762D01*
X339244Y473776D01*
X260292Y473776D01*
X260197Y473763D01*
X260101Y473758D01*
X260058Y473743D01*
X260013Y473736D01*
X259925Y473697D01*
X259834Y473665D01*
X259800Y473640D01*
X259756Y473620D01*
X259658Y473537D01*
X259585Y473484D01*
X251723Y465622D01*
X251666Y465545D01*
X251601Y465474D01*
X251581Y465433D01*
X251554Y465396D01*
X251520Y465306D01*
X251478Y465220D01*
X251472Y465178D01*
X251455Y465132D01*
X251445Y465005D01*
X251431Y464915D01*
X251431Y457965D01*
X250544Y457079D01*
X250525Y457053D01*
X250500Y457032D01*
X250440Y456940D01*
X250375Y456853D01*
X250363Y456823D01*
X250346Y456796D01*
X250314Y456691D01*
X250275Y456589D01*
X250273Y456557D01*
X250263Y456526D01*
X250262Y456417D01*
X250253Y456308D01*
X250260Y456276D01*
X250260Y456244D01*
X250289Y456139D01*
X250311Y456032D01*
X250326Y456003D01*
X250335Y455972D01*
X250392Y455879D01*
X250443Y455783D01*
X250466Y455760D01*
X250483Y455732D01*
X250564Y455659D01*
X250640Y455581D01*
X250668Y455565D01*
X250692Y455543D01*
X250790Y455496D01*
X250886Y455442D01*
X250917Y455434D01*
X250946Y455420D01*
X251035Y455406D01*
X251160Y455377D01*
X251208Y455379D01*
X251251Y455373D01*
X279736Y455373D01*
X279831Y455386D01*
X279927Y455391D01*
X279970Y455406D01*
X280015Y455413D01*
X280102Y455452D01*
X280193Y455484D01*
X280228Y455509D01*
X280272Y455529D01*
X280369Y455612D01*
X280442Y455665D01*
X285776Y460999D01*
X294224Y460999D01*
X300199Y455024D01*
X300199Y446576D01*
X294224Y440601D01*
X285776Y440601D01*
X280442Y445935D01*
X280365Y445992D01*
X280294Y446057D01*
X280253Y446077D01*
X280217Y446104D01*
X280127Y446138D01*
X280040Y446180D01*
X279998Y446186D01*
X279953Y446203D01*
X279825Y446213D01*
X279736Y446227D01*
X255808Y446227D01*
X255713Y446214D01*
X255617Y446209D01*
X255574Y446194D01*
X255529Y446187D01*
X255441Y446148D01*
X255350Y446116D01*
X255316Y446091D01*
X255272Y446071D01*
X255174Y445988D01*
X255101Y445935D01*
X251723Y442557D01*
X251666Y442480D01*
X251601Y442408D01*
X251581Y442367D01*
X251554Y442331D01*
X251520Y442241D01*
X251478Y442155D01*
X251472Y442113D01*
X251455Y442067D01*
X251445Y441940D01*
X251431Y441850D01*
X251431Y432565D01*
X244735Y425869D01*
X235265Y425869D01*
X228569Y432565D01*
X228569Y442035D01*
X235265Y448731D01*
X244550Y448731D01*
X244645Y448744D01*
X244741Y448749D01*
X244784Y448764D01*
X244829Y448771D01*
X244917Y448810D01*
X245008Y448842D01*
X245042Y448867D01*
X245086Y448887D01*
X245184Y448970D01*
X245257Y449023D01*
X245797Y449563D01*
X245816Y449589D01*
X245840Y449610D01*
X245900Y449702D01*
X245966Y449789D01*
X245977Y449819D01*
X245995Y449846D01*
X246027Y449951D01*
X246065Y450053D01*
X246068Y450085D01*
X246077Y450116D01*
X246079Y450225D01*
X246087Y450334D01*
X246081Y450366D01*
X246081Y450398D01*
X246052Y450503D01*
X246030Y450610D01*
X246015Y450639D01*
X246006Y450670D01*
X245948Y450763D01*
X245897Y450859D01*
X245875Y450882D01*
X245858Y450910D01*
X245777Y450983D01*
X245700Y451061D01*
X245672Y451077D01*
X245648Y451099D01*
X245550Y451146D01*
X245455Y451200D01*
X245424Y451208D01*
X245395Y451222D01*
X245305Y451236D01*
X245181Y451265D01*
X245132Y451263D01*
X245090Y451269D01*
X235265Y451269D01*
X230351Y456184D01*
X230274Y456241D01*
X230203Y456306D01*
X230162Y456326D01*
X230125Y456353D01*
X230035Y456387D01*
X229949Y456429D01*
X229907Y456435D01*
X229861Y456452D01*
X229734Y456462D01*
X229644Y456476D01*
X164439Y456476D01*
X164375Y456467D01*
X164311Y456468D01*
X164236Y456447D01*
X164160Y456436D01*
X164101Y456410D01*
X164039Y456393D01*
X163973Y456352D01*
X163903Y456320D01*
X163854Y456278D01*
X163799Y456245D01*
X163747Y456187D01*
X163689Y456137D01*
X163653Y456083D01*
X163610Y456035D01*
X163577Y455966D01*
X163534Y455901D01*
X163515Y455839D01*
X163487Y455782D01*
X163476Y455712D01*
X163452Y455631D01*
X163451Y455546D01*
X163440Y455477D01*
X163440Y452505D01*
X161612Y448093D01*
X158236Y444717D01*
X153825Y442890D01*
X131143Y442890D01*
X126732Y444717D01*
X123342Y448107D01*
X123296Y448181D01*
X123229Y448294D01*
X123222Y448301D01*
X123217Y448309D01*
X123119Y448397D01*
X123024Y448487D01*
X123015Y448491D01*
X123008Y448498D01*
X122889Y448555D01*
X122772Y448615D01*
X122763Y448617D01*
X122754Y448621D01*
X122678Y448633D01*
X122495Y448667D01*
X122471Y448665D01*
X122450Y448668D01*
X37550Y448668D01*
X37541Y448667D01*
X37532Y448668D01*
X37402Y448647D01*
X37271Y448628D01*
X37262Y448625D01*
X37253Y448623D01*
X37134Y448566D01*
X37014Y448512D01*
X37007Y448506D01*
X36998Y448502D01*
X36900Y448414D01*
X36800Y448329D01*
X36795Y448321D01*
X36788Y448315D01*
X36748Y448249D01*
X36648Y448097D01*
X33268Y444717D01*
X28857Y442890D01*
X11922Y442890D01*
X11858Y442881D01*
X11794Y442882D01*
X11719Y442861D01*
X11643Y442850D01*
X11584Y442824D01*
X11522Y442806D01*
X11456Y442766D01*
X11386Y442734D01*
X11337Y442692D01*
X11282Y442658D01*
X11230Y442601D01*
X11172Y442550D01*
X11136Y442497D01*
X11093Y442449D01*
X11060Y442379D01*
X11017Y442314D01*
X10998Y442253D01*
X10970Y442195D01*
X10959Y442126D01*
X10935Y442045D01*
X10934Y441960D01*
X10923Y441891D01*
X10923Y418109D01*
X10932Y418046D01*
X10931Y417982D01*
X10952Y417907D01*
X10963Y417830D01*
X10989Y417772D01*
X11006Y417710D01*
X11047Y417644D01*
X11079Y417573D01*
X11121Y417525D01*
X11154Y417470D01*
X11212Y417418D01*
X11262Y417359D01*
X11316Y417324D01*
X11364Y417281D01*
X11433Y417247D01*
X11498Y417205D01*
X11560Y417186D01*
X11617Y417158D01*
X11687Y417147D01*
X11768Y417122D01*
X11853Y417121D01*
X11922Y417110D01*
X28857Y417110D01*
X33268Y415283D01*
X36644Y411907D01*
X37311Y410298D01*
X37316Y410289D01*
X37318Y410280D01*
X37388Y410168D01*
X37455Y410055D01*
X37462Y410048D01*
X37467Y410040D01*
X37565Y409952D01*
X37660Y409862D01*
X37669Y409858D01*
X37676Y409851D01*
X37795Y409794D01*
X37912Y409734D01*
X37921Y409732D01*
X37930Y409728D01*
X38006Y409716D01*
X38189Y409682D01*
X38213Y409684D01*
X38234Y409681D01*
X121766Y409681D01*
X121775Y409682D01*
X121785Y409681D01*
X121915Y409702D01*
X122045Y409721D01*
X122054Y409724D01*
X122063Y409726D01*
X122182Y409783D01*
X122302Y409837D01*
X122309Y409843D01*
X122318Y409847D01*
X122416Y409935D01*
X122516Y410020D01*
X122521Y410028D01*
X122529Y410034D01*
X122569Y410100D01*
X122671Y410256D01*
X122678Y410279D01*
X122689Y410298D01*
X123355Y411907D01*
X126732Y415283D01*
X131143Y417110D01*
X153825Y417110D01*
X158236Y415283D01*
X161612Y411907D01*
X163440Y407495D01*
X163440Y402721D01*
X161612Y398309D01*
X158236Y394933D01*
X153825Y393106D01*
X131143Y393106D01*
X126732Y394933D01*
X123355Y398309D01*
X122689Y399918D01*
X122684Y399927D01*
X122682Y399936D01*
X122612Y400048D01*
X122545Y400161D01*
X122538Y400168D01*
X122533Y400176D01*
X122436Y400264D01*
X122340Y400354D01*
X122331Y400358D01*
X122324Y400365D01*
X122206Y400422D01*
X122088Y400482D01*
X122079Y400484D01*
X122070Y400488D01*
X121995Y400500D01*
X121811Y400534D01*
X121787Y400532D01*
X121766Y400535D01*
X93452Y400535D01*
X93420Y400531D01*
X93388Y400533D01*
X93281Y400511D01*
X93173Y400495D01*
X93143Y400482D01*
X93112Y400476D01*
X93015Y400424D01*
X92916Y400379D01*
X92891Y400358D01*
X92863Y400343D01*
X92784Y400267D01*
X92702Y400196D01*
X92684Y400169D01*
X92661Y400146D01*
X92607Y400051D01*
X92547Y399960D01*
X92538Y399929D01*
X92522Y399901D01*
X92497Y399794D01*
X92465Y399690D01*
X92464Y399658D01*
X92457Y399627D01*
X92462Y399517D01*
X92461Y399408D01*
X92469Y399377D01*
X92471Y399345D01*
X92507Y399242D01*
X92536Y399136D01*
X92553Y399109D01*
X92564Y399078D01*
X92617Y399005D01*
X92684Y398896D01*
X92720Y398864D01*
X92745Y398829D01*
X95601Y395973D01*
X95602Y395973D01*
X98573Y393002D01*
X98573Y306208D01*
X98577Y306176D01*
X98575Y306144D01*
X98597Y306037D01*
X98613Y305929D01*
X98626Y305900D01*
X98632Y305868D01*
X98684Y305772D01*
X98729Y305672D01*
X98750Y305648D01*
X98765Y305619D01*
X98841Y305541D01*
X98912Y305458D01*
X98939Y305440D01*
X98962Y305417D01*
X99057Y305363D01*
X99148Y305303D01*
X99179Y305294D01*
X99207Y305278D01*
X99314Y305253D01*
X99418Y305221D01*
X99450Y305221D01*
X99481Y305213D01*
X99591Y305219D01*
X99700Y305217D01*
X99731Y305226D01*
X99763Y305227D01*
X99866Y305263D01*
X99972Y305292D01*
X99999Y305309D01*
X100030Y305320D01*
X100103Y305373D01*
X100212Y305441D01*
X100244Y305477D01*
X100279Y305502D01*
X105776Y310999D01*
X114224Y310999D01*
X119558Y305665D01*
X119635Y305608D01*
X119706Y305543D01*
X119747Y305523D01*
X119783Y305496D01*
X119873Y305462D01*
X119960Y305420D01*
X120002Y305414D01*
X120047Y305397D01*
X120175Y305387D01*
X120264Y305373D01*
X155792Y305373D01*
X155887Y305386D01*
X155983Y305391D01*
X156026Y305406D01*
X156071Y305413D01*
X156159Y305452D01*
X156250Y305484D01*
X156284Y305509D01*
X156328Y305529D01*
X156425Y305612D01*
X156499Y305665D01*
X185577Y334743D01*
X185634Y334820D01*
X185699Y334892D01*
X185719Y334933D01*
X185746Y334969D01*
X185780Y335059D01*
X185822Y335145D01*
X185828Y335187D01*
X185845Y335233D01*
X185855Y335360D01*
X185869Y335450D01*
X185869Y344735D01*
X192565Y351431D01*
X202035Y351431D01*
X208731Y344735D01*
X208731Y335265D01*
X202035Y328569D01*
X192750Y328569D01*
X192655Y328556D01*
X192559Y328551D01*
X192516Y328536D01*
X192471Y328529D01*
X192383Y328490D01*
X192292Y328458D01*
X192258Y328433D01*
X192214Y328413D01*
X192116Y328330D01*
X192043Y328277D01*
X162965Y299199D01*
X159994Y296227D01*
X120264Y296227D01*
X120169Y296214D01*
X120073Y296209D01*
X120030Y296194D01*
X119985Y296187D01*
X119898Y296148D01*
X119807Y296116D01*
X119772Y296091D01*
X119728Y296071D01*
X119631Y295988D01*
X119558Y295935D01*
X114224Y290601D01*
X105776Y290601D01*
X100279Y296098D01*
X100253Y296118D01*
X100232Y296142D01*
X100140Y296202D01*
X100053Y296268D01*
X100023Y296279D01*
X99996Y296297D01*
X99891Y296329D01*
X99789Y296367D01*
X99757Y296370D01*
X99726Y296379D01*
X99617Y296380D01*
X99508Y296389D01*
X99476Y296382D01*
X99444Y296383D01*
X99339Y296354D01*
X99232Y296331D01*
X99203Y296316D01*
X99172Y296308D01*
X99079Y296250D01*
X98983Y296199D01*
X98960Y296176D01*
X98932Y296159D01*
X98859Y296078D01*
X98781Y296002D01*
X98765Y295974D01*
X98743Y295950D01*
X98696Y295852D01*
X98642Y295757D01*
X98634Y295725D01*
X98620Y295696D01*
X98606Y295607D01*
X98577Y295482D01*
X98579Y295434D01*
X98573Y295392D01*
X98573Y292308D01*
X98586Y292213D01*
X98591Y292117D01*
X98606Y292074D01*
X98613Y292029D01*
X98652Y291941D01*
X98684Y291850D01*
X98709Y291816D01*
X98729Y291772D01*
X98812Y291675D01*
X98865Y291601D01*
X102601Y287865D01*
X102678Y287808D01*
X102750Y287743D01*
X102791Y287723D01*
X102827Y287696D01*
X102917Y287662D01*
X103003Y287620D01*
X103045Y287614D01*
X103091Y287597D01*
X103219Y287587D01*
X103308Y287573D01*
X186894Y287573D01*
X214473Y259994D01*
X214473Y227726D01*
X214474Y227716D01*
X214473Y227707D01*
X214481Y227655D01*
X214481Y227632D01*
X214491Y227597D01*
X214494Y227577D01*
X214513Y227446D01*
X214516Y227438D01*
X214518Y227428D01*
X214575Y227309D01*
X214629Y227189D01*
X214635Y227182D01*
X214639Y227174D01*
X214727Y227075D01*
X214812Y226975D01*
X214820Y226970D01*
X214826Y226963D01*
X214892Y226923D01*
X215048Y226821D01*
X215071Y226814D01*
X215090Y226802D01*
X215368Y226687D01*
X215721Y226334D01*
X215747Y226314D01*
X215768Y226290D01*
X215860Y226230D01*
X215947Y226164D01*
X215977Y226153D01*
X216004Y226135D01*
X216109Y226103D01*
X216211Y226065D01*
X216243Y226062D01*
X216274Y226053D01*
X216383Y226051D01*
X216492Y226043D01*
X216524Y226050D01*
G37*
G36*
X121775Y99466D02*
X121775Y99466D01*
X121785Y99465D01*
X121915Y99486D01*
X122045Y99505D01*
X122054Y99508D01*
X122063Y99510D01*
X122182Y99567D01*
X122302Y99621D01*
X122309Y99627D01*
X122318Y99631D01*
X122416Y99719D01*
X122516Y99804D01*
X122521Y99812D01*
X122529Y99818D01*
X122569Y99884D01*
X122671Y100040D01*
X122678Y100063D01*
X122689Y100082D01*
X123355Y101691D01*
X126732Y105067D01*
X131143Y106894D01*
X153825Y106894D01*
X158236Y105067D01*
X161613Y101691D01*
X162279Y100082D01*
X162284Y100073D01*
X162286Y100064D01*
X162356Y99952D01*
X162423Y99839D01*
X162430Y99832D01*
X162435Y99824D01*
X162532Y99736D01*
X162628Y99646D01*
X162637Y99642D01*
X162644Y99635D01*
X162762Y99578D01*
X162880Y99518D01*
X162889Y99516D01*
X162898Y99512D01*
X162973Y99500D01*
X163157Y99466D01*
X163181Y99468D01*
X163202Y99465D01*
X178584Y99465D01*
X178679Y99478D01*
X178775Y99483D01*
X178818Y99498D01*
X178863Y99505D01*
X178951Y99544D01*
X179042Y99576D01*
X179076Y99601D01*
X179120Y99621D01*
X179217Y99704D01*
X179291Y99757D01*
X226397Y146863D01*
X226416Y146889D01*
X226440Y146910D01*
X226500Y147002D01*
X226566Y147089D01*
X226577Y147119D01*
X226595Y147146D01*
X226627Y147251D01*
X226665Y147353D01*
X226668Y147385D01*
X226677Y147416D01*
X226679Y147525D01*
X226687Y147634D01*
X226681Y147666D01*
X226681Y147698D01*
X226652Y147803D01*
X226630Y147910D01*
X226615Y147939D01*
X226606Y147970D01*
X226548Y148063D01*
X226497Y148159D01*
X226475Y148182D01*
X226458Y148210D01*
X226377Y148283D01*
X226300Y148361D01*
X226272Y148377D01*
X226248Y148399D01*
X226150Y148446D01*
X226055Y148500D01*
X226024Y148508D01*
X225995Y148522D01*
X225905Y148536D01*
X225781Y148565D01*
X225732Y148563D01*
X225690Y148569D01*
X217965Y148569D01*
X211269Y155265D01*
X211269Y164735D01*
X217965Y171431D01*
X227250Y171431D01*
X227345Y171444D01*
X227441Y171449D01*
X227484Y171464D01*
X227529Y171471D01*
X227617Y171510D01*
X227708Y171542D01*
X227742Y171567D01*
X227786Y171587D01*
X227884Y171670D01*
X227957Y171723D01*
X243135Y186901D01*
X243192Y186978D01*
X243257Y187050D01*
X243277Y187091D01*
X243304Y187127D01*
X243338Y187217D01*
X243380Y187303D01*
X243386Y187345D01*
X243403Y187391D01*
X243413Y187519D01*
X243427Y187608D01*
X243427Y197360D01*
X243423Y197392D01*
X243425Y197424D01*
X243403Y197531D01*
X243387Y197639D01*
X243374Y197668D01*
X243368Y197700D01*
X243316Y197797D01*
X243271Y197896D01*
X243250Y197920D01*
X243235Y197949D01*
X243159Y198027D01*
X243088Y198110D01*
X243061Y198128D01*
X243038Y198151D01*
X242943Y198205D01*
X242852Y198265D01*
X242821Y198274D01*
X242793Y198290D01*
X242687Y198315D01*
X242582Y198347D01*
X242550Y198348D01*
X242519Y198355D01*
X242409Y198349D01*
X242300Y198351D01*
X242269Y198342D01*
X242237Y198341D01*
X242134Y198305D01*
X242028Y198276D01*
X242001Y198259D01*
X241970Y198248D01*
X241897Y198195D01*
X241788Y198128D01*
X241756Y198092D01*
X241721Y198066D01*
X240768Y197113D01*
X237220Y195643D01*
X233380Y195643D01*
X229832Y197113D01*
X227117Y199828D01*
X225647Y203376D01*
X225647Y214672D01*
X225634Y214767D01*
X225629Y214863D01*
X225614Y214906D01*
X225607Y214951D01*
X225568Y215039D01*
X225536Y215130D01*
X225511Y215164D01*
X225491Y215208D01*
X225408Y215305D01*
X225355Y215379D01*
X221259Y219475D01*
X221233Y219494D01*
X221212Y219518D01*
X221157Y219554D01*
X221112Y219595D01*
X221072Y219615D01*
X221033Y219644D01*
X221003Y219655D01*
X220976Y219673D01*
X220910Y219693D01*
X220858Y219718D01*
X220820Y219724D01*
X220769Y219743D01*
X220737Y219746D01*
X220706Y219755D01*
X220614Y219757D01*
X220553Y219766D01*
X220552Y219766D01*
X220526Y219762D01*
X220488Y219765D01*
X220456Y219759D01*
X220424Y219759D01*
X220340Y219736D01*
X220273Y219726D01*
X220249Y219715D01*
X220212Y219708D01*
X220183Y219693D01*
X220152Y219684D01*
X220078Y219638D01*
X220016Y219610D01*
X219995Y219593D01*
X219963Y219575D01*
X219940Y219553D01*
X219912Y219536D01*
X219855Y219472D01*
X219802Y219427D01*
X219786Y219403D01*
X219761Y219378D01*
X219745Y219350D01*
X219723Y219326D01*
X219687Y219252D01*
X219647Y219191D01*
X219639Y219163D01*
X219622Y219133D01*
X219614Y219102D01*
X219600Y219073D01*
X219589Y219001D01*
X219565Y218921D01*
X219564Y218890D01*
X219557Y218859D01*
X219559Y218810D01*
X219553Y218768D01*
X219553Y203376D01*
X218083Y199828D01*
X215368Y197113D01*
X211820Y195643D01*
X207980Y195643D01*
X204432Y197113D01*
X201717Y199828D01*
X200247Y203376D01*
X200247Y220424D01*
X201717Y223972D01*
X204432Y226687D01*
X204710Y226802D01*
X204719Y226807D01*
X204728Y226810D01*
X204840Y226879D01*
X204953Y226946D01*
X204960Y226953D01*
X204968Y226958D01*
X205056Y227056D01*
X205146Y227152D01*
X205150Y227160D01*
X205157Y227167D01*
X205214Y227286D01*
X205274Y227403D01*
X205276Y227413D01*
X205280Y227421D01*
X205292Y227497D01*
X205307Y227579D01*
X205315Y227606D01*
X205316Y227624D01*
X205326Y227680D01*
X205324Y227704D01*
X205327Y227726D01*
X205327Y255792D01*
X205319Y255851D01*
X205319Y255867D01*
X205314Y255885D01*
X205314Y255887D01*
X205309Y255983D01*
X205294Y256026D01*
X205287Y256071D01*
X205248Y256159D01*
X205216Y256250D01*
X205191Y256284D01*
X205171Y256328D01*
X205088Y256425D01*
X205035Y256499D01*
X183399Y278135D01*
X183322Y278192D01*
X183250Y278257D01*
X183209Y278277D01*
X183173Y278304D01*
X183083Y278338D01*
X182997Y278380D01*
X182955Y278386D01*
X182909Y278403D01*
X182781Y278413D01*
X182692Y278427D01*
X167753Y278427D01*
X167742Y278426D01*
X167731Y278427D01*
X167602Y278406D01*
X167473Y278387D01*
X167464Y278383D01*
X167453Y278381D01*
X167335Y278325D01*
X167216Y278271D01*
X167208Y278264D01*
X167199Y278260D01*
X167101Y278172D01*
X167002Y278088D01*
X166996Y278079D01*
X166988Y278072D01*
X166919Y277961D01*
X166848Y277852D01*
X166845Y277842D01*
X166839Y277832D01*
X166803Y277707D01*
X166765Y277582D01*
X166765Y277571D01*
X166762Y277561D01*
X166763Y277430D01*
X166762Y277300D01*
X166764Y277290D01*
X166765Y277279D01*
X166802Y277155D01*
X166837Y277028D01*
X166843Y277019D01*
X166846Y277009D01*
X166916Y276900D01*
X166985Y276788D01*
X166993Y276781D01*
X166999Y276772D01*
X167097Y276687D01*
X167194Y276599D01*
X167204Y276595D01*
X167212Y276588D01*
X167286Y276555D01*
X167448Y276476D01*
X167472Y276473D01*
X167494Y276463D01*
X170615Y275627D01*
X176886Y272006D01*
X182006Y266886D01*
X185627Y260615D01*
X187501Y253621D01*
X187501Y246379D01*
X185627Y239385D01*
X182006Y233114D01*
X176886Y227994D01*
X170615Y224373D01*
X163621Y222499D01*
X156379Y222499D01*
X149385Y224373D01*
X143114Y227994D01*
X137994Y233114D01*
X134373Y239385D01*
X132499Y246379D01*
X132499Y253621D01*
X134373Y260615D01*
X137994Y266886D01*
X143114Y272006D01*
X149385Y275627D01*
X152506Y276463D01*
X152516Y276467D01*
X152527Y276469D01*
X152645Y276522D01*
X152765Y276574D01*
X152774Y276580D01*
X152784Y276585D01*
X152883Y276670D01*
X152983Y276752D01*
X152990Y276761D01*
X152998Y276768D01*
X153070Y276878D01*
X153143Y276985D01*
X153146Y276995D01*
X153152Y277004D01*
X153190Y277129D01*
X153231Y277253D01*
X153232Y277264D01*
X153235Y277274D01*
X153236Y277404D01*
X153241Y277535D01*
X153238Y277545D01*
X153238Y277556D01*
X153204Y277682D01*
X153172Y277808D01*
X153166Y277817D01*
X153163Y277828D01*
X153095Y277939D01*
X153029Y278051D01*
X153021Y278058D01*
X153015Y278068D01*
X152918Y278155D01*
X152823Y278245D01*
X152814Y278249D01*
X152806Y278257D01*
X152689Y278313D01*
X152572Y278373D01*
X152562Y278375D01*
X152552Y278380D01*
X152473Y278392D01*
X152295Y278426D01*
X152271Y278424D01*
X152247Y278427D01*
X99572Y278427D01*
X99508Y278418D01*
X99444Y278419D01*
X99369Y278398D01*
X99293Y278387D01*
X99234Y278361D01*
X99172Y278344D01*
X99106Y278303D01*
X99036Y278271D01*
X98987Y278229D01*
X98932Y278196D01*
X98880Y278138D01*
X98822Y278088D01*
X98786Y278034D01*
X98743Y277986D01*
X98710Y277917D01*
X98667Y277852D01*
X98648Y277790D01*
X98620Y277733D01*
X98609Y277663D01*
X98585Y277582D01*
X98584Y277497D01*
X98573Y277428D01*
X98573Y211306D01*
X95602Y208335D01*
X95601Y208335D01*
X90491Y203225D01*
X90434Y203148D01*
X90369Y203076D01*
X90349Y203035D01*
X90322Y202999D01*
X90288Y202909D01*
X90246Y202823D01*
X90240Y202781D01*
X90223Y202735D01*
X90213Y202608D01*
X90199Y202518D01*
X90199Y194976D01*
X84224Y189001D01*
X75776Y189001D01*
X69801Y194976D01*
X69801Y203424D01*
X75776Y209399D01*
X83318Y209399D01*
X83413Y209412D01*
X83509Y209417D01*
X83552Y209432D01*
X83597Y209439D01*
X83685Y209478D01*
X83776Y209510D01*
X83810Y209535D01*
X83854Y209555D01*
X83952Y209638D01*
X84025Y209691D01*
X89135Y214801D01*
X89192Y214878D01*
X89257Y214950D01*
X89277Y214991D01*
X89304Y215027D01*
X89338Y215117D01*
X89380Y215203D01*
X89386Y215245D01*
X89403Y215291D01*
X89413Y215418D01*
X89427Y215508D01*
X89427Y294110D01*
X89423Y294142D01*
X89425Y294174D01*
X89403Y294281D01*
X89387Y294389D01*
X89374Y294419D01*
X89368Y294450D01*
X89316Y294547D01*
X89271Y294646D01*
X89250Y294671D01*
X89235Y294699D01*
X89159Y294777D01*
X89088Y294861D01*
X89061Y294878D01*
X89038Y294901D01*
X88943Y294955D01*
X88852Y295015D01*
X88821Y295024D01*
X88793Y295040D01*
X88687Y295066D01*
X88582Y295097D01*
X88550Y295098D01*
X88519Y295105D01*
X88409Y295100D01*
X88300Y295101D01*
X88269Y295093D01*
X88237Y295091D01*
X88134Y295055D01*
X88028Y295026D01*
X88001Y295009D01*
X87970Y294998D01*
X87897Y294945D01*
X87788Y294878D01*
X87756Y294842D01*
X87721Y294817D01*
X84014Y291109D01*
X81999Y291109D01*
X81999Y299800D01*
X81990Y299863D01*
X81991Y299928D01*
X81970Y300002D01*
X81959Y300079D01*
X81933Y300138D01*
X81916Y300200D01*
X81875Y300266D01*
X81843Y300336D01*
X81801Y300385D01*
X81768Y300440D01*
X81710Y300491D01*
X81660Y300550D01*
X81606Y300586D01*
X81558Y300629D01*
X81489Y300662D01*
X81424Y300705D01*
X81362Y300724D01*
X81305Y300752D01*
X81235Y300762D01*
X81154Y300787D01*
X81069Y300788D01*
X81000Y300799D01*
X79999Y300799D01*
X79999Y300801D01*
X81000Y300801D01*
X81064Y300810D01*
X81128Y300809D01*
X81203Y300830D01*
X81279Y300841D01*
X81338Y300867D01*
X81400Y300884D01*
X81466Y300925D01*
X81536Y300957D01*
X81585Y300999D01*
X81640Y301032D01*
X81692Y301090D01*
X81750Y301140D01*
X81786Y301194D01*
X81829Y301242D01*
X81862Y301311D01*
X81905Y301376D01*
X81924Y301438D01*
X81952Y301496D01*
X81962Y301565D01*
X81987Y301646D01*
X81988Y301731D01*
X81999Y301800D01*
X81999Y310491D01*
X84014Y310491D01*
X87721Y306783D01*
X87747Y306764D01*
X87768Y306739D01*
X87860Y306680D01*
X87947Y306614D01*
X87977Y306603D01*
X88004Y306585D01*
X88109Y306553D01*
X88211Y306514D01*
X88243Y306512D01*
X88274Y306503D01*
X88383Y306501D01*
X88492Y306493D01*
X88524Y306499D01*
X88556Y306499D01*
X88661Y306528D01*
X88768Y306550D01*
X88797Y306565D01*
X88828Y306574D01*
X88921Y306631D01*
X89017Y306683D01*
X89040Y306705D01*
X89068Y306722D01*
X89141Y306803D01*
X89219Y306880D01*
X89235Y306908D01*
X89257Y306931D01*
X89304Y307030D01*
X89358Y307125D01*
X89366Y307156D01*
X89380Y307185D01*
X89394Y307275D01*
X89423Y307399D01*
X89421Y307448D01*
X89427Y307490D01*
X89427Y388800D01*
X89414Y388895D01*
X89409Y388991D01*
X89394Y389034D01*
X89387Y389079D01*
X89348Y389167D01*
X89316Y389258D01*
X89291Y389292D01*
X89271Y389336D01*
X89188Y389434D01*
X89135Y389507D01*
X78399Y400243D01*
X78322Y400300D01*
X78250Y400365D01*
X78209Y400385D01*
X78173Y400412D01*
X78083Y400446D01*
X77997Y400488D01*
X77955Y400494D01*
X77909Y400511D01*
X77782Y400521D01*
X77692Y400535D01*
X38234Y400535D01*
X38225Y400534D01*
X38215Y400535D01*
X38085Y400514D01*
X37955Y400495D01*
X37946Y400492D01*
X37937Y400490D01*
X37818Y400433D01*
X37698Y400379D01*
X37691Y400373D01*
X37682Y400369D01*
X37584Y400281D01*
X37484Y400196D01*
X37479Y400188D01*
X37472Y400182D01*
X37432Y400116D01*
X37329Y399960D01*
X37322Y399937D01*
X37311Y399918D01*
X36644Y398309D01*
X33268Y394933D01*
X28857Y393106D01*
X11922Y393106D01*
X11858Y393097D01*
X11794Y393098D01*
X11719Y393077D01*
X11643Y393066D01*
X11584Y393040D01*
X11522Y393022D01*
X11456Y392982D01*
X11386Y392950D01*
X11337Y392908D01*
X11282Y392874D01*
X11230Y392817D01*
X11172Y392766D01*
X11136Y392713D01*
X11093Y392665D01*
X11060Y392595D01*
X11017Y392530D01*
X10998Y392469D01*
X10970Y392411D01*
X10959Y392342D01*
X10935Y392261D01*
X10934Y392176D01*
X10923Y392107D01*
X10923Y307840D01*
X10927Y307808D01*
X10925Y307776D01*
X10947Y307669D01*
X10963Y307561D01*
X10976Y307531D01*
X10982Y307500D01*
X11034Y307403D01*
X11079Y307304D01*
X11100Y307279D01*
X11115Y307251D01*
X11191Y307173D01*
X11262Y307089D01*
X11289Y307072D01*
X11312Y307049D01*
X11407Y306995D01*
X11498Y306935D01*
X11529Y306926D01*
X11557Y306910D01*
X11663Y306884D01*
X11768Y306853D01*
X11800Y306852D01*
X11831Y306845D01*
X11941Y306850D01*
X12050Y306849D01*
X12081Y306857D01*
X12113Y306859D01*
X12216Y306895D01*
X12322Y306924D01*
X12349Y306941D01*
X12380Y306952D01*
X12453Y307005D01*
X12562Y307072D01*
X12594Y307108D01*
X12629Y307133D01*
X15986Y310491D01*
X18001Y310491D01*
X18001Y301800D01*
X18010Y301737D01*
X18009Y301672D01*
X18030Y301598D01*
X18041Y301521D01*
X18067Y301462D01*
X18084Y301400D01*
X18125Y301334D01*
X18157Y301264D01*
X18199Y301215D01*
X18232Y301160D01*
X18290Y301109D01*
X18340Y301050D01*
X18394Y301014D01*
X18442Y300971D01*
X18511Y300938D01*
X18576Y300895D01*
X18638Y300876D01*
X18695Y300848D01*
X18765Y300838D01*
X18846Y300813D01*
X18931Y300812D01*
X19000Y300801D01*
X20001Y300801D01*
X20001Y300799D01*
X19000Y300799D01*
X18936Y300790D01*
X18872Y300791D01*
X18797Y300770D01*
X18721Y300759D01*
X18662Y300733D01*
X18600Y300716D01*
X18534Y300675D01*
X18464Y300643D01*
X18415Y300601D01*
X18360Y300568D01*
X18308Y300510D01*
X18250Y300460D01*
X18214Y300406D01*
X18171Y300358D01*
X18138Y300289D01*
X18095Y300224D01*
X18076Y300162D01*
X18048Y300104D01*
X18037Y300035D01*
X18013Y299954D01*
X18012Y299869D01*
X18001Y299800D01*
X18001Y291109D01*
X15986Y291109D01*
X12629Y294467D01*
X12603Y294486D01*
X12582Y294511D01*
X12490Y294570D01*
X12403Y294636D01*
X12373Y294647D01*
X12346Y294665D01*
X12241Y294697D01*
X12139Y294736D01*
X12107Y294738D01*
X12076Y294747D01*
X11967Y294749D01*
X11858Y294757D01*
X11826Y294751D01*
X11794Y294751D01*
X11689Y294722D01*
X11582Y294700D01*
X11553Y294685D01*
X11522Y294676D01*
X11429Y294619D01*
X11333Y294567D01*
X11310Y294545D01*
X11282Y294528D01*
X11209Y294447D01*
X11131Y294370D01*
X11115Y294342D01*
X11093Y294319D01*
X11046Y294220D01*
X10992Y294125D01*
X10984Y294094D01*
X10970Y294065D01*
X10956Y293975D01*
X10927Y293851D01*
X10929Y293802D01*
X10923Y293760D01*
X10923Y206958D01*
X10927Y206926D01*
X10925Y206894D01*
X10947Y206787D01*
X10963Y206679D01*
X10976Y206650D01*
X10982Y206618D01*
X11034Y206522D01*
X11079Y206422D01*
X11100Y206398D01*
X11115Y206369D01*
X11191Y206291D01*
X11262Y206208D01*
X11289Y206190D01*
X11312Y206167D01*
X11407Y206113D01*
X11498Y206053D01*
X11529Y206044D01*
X11557Y206028D01*
X11663Y206003D01*
X11768Y205971D01*
X11800Y205971D01*
X11831Y205963D01*
X11941Y205969D01*
X12050Y205967D01*
X12081Y205976D01*
X12113Y205977D01*
X12216Y206013D01*
X12322Y206042D01*
X12349Y206059D01*
X12380Y206070D01*
X12453Y206123D01*
X12562Y206191D01*
X12594Y206227D01*
X12629Y206252D01*
X15776Y209399D01*
X24224Y209399D01*
X30199Y203424D01*
X30199Y194976D01*
X24865Y189642D01*
X24808Y189565D01*
X24743Y189494D01*
X24723Y189453D01*
X24696Y189417D01*
X24662Y189327D01*
X24620Y189240D01*
X24614Y189198D01*
X24597Y189153D01*
X24587Y189025D01*
X24573Y188936D01*
X24573Y107893D01*
X24582Y107830D01*
X24581Y107766D01*
X24602Y107691D01*
X24613Y107614D01*
X24639Y107556D01*
X24656Y107494D01*
X24697Y107428D01*
X24729Y107357D01*
X24771Y107309D01*
X24804Y107254D01*
X24862Y107202D01*
X24912Y107143D01*
X24966Y107108D01*
X25014Y107065D01*
X25083Y107031D01*
X25148Y106989D01*
X25210Y106970D01*
X25267Y106942D01*
X25337Y106931D01*
X25418Y106906D01*
X25503Y106905D01*
X25572Y106894D01*
X28857Y106894D01*
X33268Y105067D01*
X36645Y101691D01*
X37311Y100082D01*
X37316Y100073D01*
X37318Y100064D01*
X37388Y99952D01*
X37455Y99839D01*
X37462Y99832D01*
X37467Y99824D01*
X37564Y99736D01*
X37660Y99646D01*
X37669Y99642D01*
X37676Y99635D01*
X37794Y99578D01*
X37912Y99518D01*
X37921Y99516D01*
X37930Y99512D01*
X38005Y99500D01*
X38189Y99466D01*
X38213Y99468D01*
X38234Y99465D01*
X121766Y99465D01*
X121775Y99466D01*
G37*
G36*
X725157Y10936D02*
X725157Y10936D01*
X725253Y10941D01*
X725296Y10956D01*
X725341Y10963D01*
X725428Y11002D01*
X725519Y11034D01*
X725554Y11059D01*
X725598Y11079D01*
X725695Y11162D01*
X725768Y11215D01*
X738785Y24232D01*
X738796Y24247D01*
X738802Y24252D01*
X738818Y24276D01*
X738842Y24308D01*
X738907Y24380D01*
X738927Y24421D01*
X738954Y24457D01*
X738988Y24547D01*
X739030Y24634D01*
X739036Y24676D01*
X739053Y24721D01*
X739063Y24849D01*
X739077Y24938D01*
X739077Y32107D01*
X739068Y32170D01*
X739069Y32234D01*
X739048Y32309D01*
X739037Y32386D01*
X739011Y32444D01*
X738994Y32506D01*
X738953Y32572D01*
X738921Y32643D01*
X738879Y32691D01*
X738846Y32746D01*
X738788Y32798D01*
X738738Y32857D01*
X738684Y32892D01*
X738636Y32935D01*
X738567Y32969D01*
X738502Y33011D01*
X738440Y33030D01*
X738383Y33058D01*
X738313Y33069D01*
X738232Y33094D01*
X738147Y33095D01*
X738078Y33106D01*
X721143Y33106D01*
X716732Y34933D01*
X713342Y38323D01*
X713296Y38397D01*
X713229Y38510D01*
X713222Y38517D01*
X713217Y38525D01*
X713119Y38613D01*
X713024Y38703D01*
X713015Y38707D01*
X713008Y38714D01*
X712889Y38771D01*
X712772Y38831D01*
X712763Y38833D01*
X712754Y38837D01*
X712678Y38849D01*
X712495Y38883D01*
X712471Y38881D01*
X712450Y38884D01*
X627550Y38884D01*
X627541Y38883D01*
X627532Y38884D01*
X627402Y38863D01*
X627271Y38844D01*
X627262Y38841D01*
X627253Y38839D01*
X627134Y38782D01*
X627014Y38728D01*
X627007Y38722D01*
X626998Y38718D01*
X626900Y38630D01*
X626800Y38545D01*
X626795Y38537D01*
X626788Y38531D01*
X626748Y38465D01*
X626648Y38313D01*
X623268Y34933D01*
X618857Y33106D01*
X604729Y33106D01*
X604634Y33092D01*
X604538Y33087D01*
X604495Y33072D01*
X604450Y33066D01*
X604363Y33026D01*
X604272Y32995D01*
X604237Y32970D01*
X604193Y32950D01*
X604096Y32866D01*
X604023Y32813D01*
X595219Y24009D01*
X593328Y22118D01*
X591040Y21170D01*
X289410Y21170D01*
X289315Y21157D01*
X289219Y21152D01*
X289176Y21137D01*
X289131Y21130D01*
X289043Y21091D01*
X288952Y21059D01*
X288918Y21034D01*
X288874Y21014D01*
X288777Y20931D01*
X288703Y20878D01*
X286175Y18349D01*
X282254Y16725D01*
X262770Y16725D01*
X258849Y18349D01*
X256321Y20878D01*
X256244Y20935D01*
X256172Y21000D01*
X256131Y21020D01*
X256095Y21047D01*
X256005Y21081D01*
X255919Y21123D01*
X255876Y21129D01*
X255831Y21146D01*
X255703Y21156D01*
X255614Y21170D01*
X224386Y21170D01*
X224291Y21157D01*
X224195Y21152D01*
X224152Y21137D01*
X224107Y21130D01*
X224019Y21091D01*
X223928Y21059D01*
X223894Y21034D01*
X223850Y21014D01*
X223753Y20931D01*
X223679Y20878D01*
X221151Y18349D01*
X217230Y16725D01*
X197746Y16725D01*
X193825Y18349D01*
X191297Y20878D01*
X191220Y20935D01*
X191148Y21000D01*
X191107Y21020D01*
X191071Y21047D01*
X190981Y21081D01*
X190895Y21123D01*
X190852Y21129D01*
X190807Y21146D01*
X190679Y21156D01*
X190590Y21170D01*
X158960Y21170D01*
X156672Y22118D01*
X145977Y32813D01*
X145900Y32871D01*
X145829Y32935D01*
X145788Y32955D01*
X145752Y32982D01*
X145662Y33016D01*
X145575Y33058D01*
X145533Y33065D01*
X145488Y33082D01*
X145360Y33092D01*
X145271Y33106D01*
X131143Y33106D01*
X126732Y34933D01*
X123342Y38323D01*
X123296Y38397D01*
X123229Y38510D01*
X123222Y38517D01*
X123217Y38525D01*
X123119Y38613D01*
X123024Y38703D01*
X123015Y38707D01*
X123008Y38714D01*
X122889Y38771D01*
X122772Y38831D01*
X122763Y38833D01*
X122754Y38837D01*
X122678Y38849D01*
X122495Y38883D01*
X122471Y38881D01*
X122450Y38884D01*
X37550Y38884D01*
X37541Y38883D01*
X37532Y38884D01*
X37402Y38863D01*
X37271Y38844D01*
X37262Y38841D01*
X37253Y38839D01*
X37134Y38782D01*
X37014Y38728D01*
X37007Y38722D01*
X36998Y38718D01*
X36900Y38630D01*
X36800Y38545D01*
X36795Y38537D01*
X36788Y38531D01*
X36748Y38465D01*
X36648Y38313D01*
X33268Y34933D01*
X28857Y33106D01*
X11922Y33106D01*
X11858Y33097D01*
X11794Y33098D01*
X11719Y33077D01*
X11643Y33066D01*
X11584Y33040D01*
X11522Y33022D01*
X11456Y32982D01*
X11386Y32950D01*
X11337Y32908D01*
X11282Y32874D01*
X11230Y32817D01*
X11172Y32766D01*
X11136Y32713D01*
X11093Y32665D01*
X11060Y32595D01*
X11017Y32530D01*
X10998Y32469D01*
X10970Y32411D01*
X10959Y32342D01*
X10935Y32261D01*
X10934Y32176D01*
X10923Y32107D01*
X10923Y24938D01*
X10936Y24843D01*
X10941Y24747D01*
X10956Y24704D01*
X10963Y24659D01*
X11002Y24572D01*
X11034Y24481D01*
X11059Y24446D01*
X11079Y24402D01*
X11156Y24312D01*
X11180Y24273D01*
X11196Y24259D01*
X11215Y24232D01*
X24232Y11215D01*
X24308Y11158D01*
X24380Y11093D01*
X24421Y11073D01*
X24457Y11046D01*
X24547Y11012D01*
X24634Y10970D01*
X24676Y10964D01*
X24721Y10947D01*
X24849Y10937D01*
X24938Y10923D01*
X725062Y10923D01*
X725157Y10936D01*
G37*
G36*
X122459Y461117D02*
X122459Y461117D01*
X122468Y461116D01*
X122598Y461137D01*
X122729Y461156D01*
X122738Y461159D01*
X122747Y461161D01*
X122866Y461218D01*
X122986Y461272D01*
X122993Y461278D01*
X123002Y461282D01*
X123100Y461370D01*
X123200Y461455D01*
X123205Y461463D01*
X123212Y461469D01*
X123252Y461535D01*
X123352Y461687D01*
X126732Y465067D01*
X131143Y466894D01*
X145271Y466894D01*
X145366Y466908D01*
X145462Y466913D01*
X145505Y466928D01*
X145550Y466934D01*
X145637Y466974D01*
X145728Y467005D01*
X145763Y467030D01*
X145807Y467050D01*
X145904Y467134D01*
X145977Y467187D01*
X146766Y467976D01*
X149054Y468924D01*
X229644Y468924D01*
X229739Y468937D01*
X229835Y468942D01*
X229879Y468957D01*
X229924Y468964D01*
X230011Y469003D01*
X230102Y469035D01*
X230136Y469060D01*
X230180Y469080D01*
X230278Y469163D01*
X230351Y469216D01*
X235265Y474131D01*
X242215Y474131D01*
X242310Y474144D01*
X242406Y474149D01*
X242449Y474164D01*
X242494Y474171D01*
X242582Y474210D01*
X242673Y474242D01*
X242707Y474267D01*
X242751Y474287D01*
X242849Y474370D01*
X242922Y474423D01*
X253774Y485276D01*
X256062Y486224D01*
X339244Y486224D01*
X339339Y486237D01*
X339435Y486242D01*
X339479Y486257D01*
X339524Y486264D01*
X339611Y486303D01*
X339702Y486335D01*
X339736Y486360D01*
X339780Y486380D01*
X339878Y486463D01*
X339951Y486516D01*
X340806Y487371D01*
X340825Y487397D01*
X340850Y487418D01*
X340910Y487510D01*
X340975Y487597D01*
X340987Y487627D01*
X341004Y487654D01*
X341036Y487759D01*
X341075Y487861D01*
X341077Y487893D01*
X341087Y487924D01*
X341088Y488033D01*
X341097Y488142D01*
X341090Y488174D01*
X341090Y488206D01*
X341061Y488311D01*
X341039Y488418D01*
X341024Y488447D01*
X341015Y488478D01*
X340958Y488571D01*
X340907Y488667D01*
X340884Y488690D01*
X340867Y488718D01*
X340786Y488791D01*
X340710Y488869D01*
X340682Y488885D01*
X340658Y488907D01*
X340560Y488954D01*
X340464Y489008D01*
X340433Y489016D01*
X340404Y489030D01*
X340315Y489044D01*
X340190Y489073D01*
X340142Y489071D01*
X340099Y489077D01*
X24938Y489077D01*
X24843Y489064D01*
X24747Y489059D01*
X24704Y489044D01*
X24659Y489037D01*
X24572Y488998D01*
X24481Y488966D01*
X24446Y488941D01*
X24402Y488921D01*
X24305Y488838D01*
X24232Y488785D01*
X11215Y475768D01*
X11158Y475692D01*
X11093Y475620D01*
X11073Y475579D01*
X11046Y475543D01*
X11012Y475453D01*
X10970Y475366D01*
X10964Y475324D01*
X10947Y475279D01*
X10937Y475151D01*
X10923Y475062D01*
X10923Y467893D01*
X10932Y467830D01*
X10931Y467766D01*
X10952Y467691D01*
X10963Y467614D01*
X10989Y467556D01*
X11006Y467494D01*
X11047Y467428D01*
X11079Y467357D01*
X11121Y467309D01*
X11154Y467254D01*
X11212Y467202D01*
X11262Y467143D01*
X11316Y467108D01*
X11364Y467065D01*
X11433Y467031D01*
X11498Y466989D01*
X11560Y466970D01*
X11617Y466942D01*
X11687Y466931D01*
X11768Y466906D01*
X11853Y466905D01*
X11922Y466894D01*
X28857Y466894D01*
X33268Y465067D01*
X36658Y461677D01*
X36704Y461603D01*
X36771Y461490D01*
X36778Y461483D01*
X36783Y461475D01*
X36881Y461387D01*
X36976Y461297D01*
X36985Y461293D01*
X36992Y461286D01*
X37111Y461229D01*
X37228Y461169D01*
X37237Y461167D01*
X37246Y461163D01*
X37322Y461151D01*
X37505Y461117D01*
X37529Y461119D01*
X37550Y461116D01*
X122450Y461116D01*
X122459Y461117D01*
G37*
G36*
X712459Y461117D02*
X712459Y461117D01*
X712468Y461116D01*
X712598Y461137D01*
X712729Y461156D01*
X712738Y461159D01*
X712747Y461161D01*
X712866Y461218D01*
X712986Y461272D01*
X712993Y461278D01*
X713002Y461282D01*
X713100Y461370D01*
X713200Y461455D01*
X713205Y461463D01*
X713212Y461469D01*
X713252Y461535D01*
X713352Y461687D01*
X716732Y465067D01*
X721143Y466894D01*
X738078Y466894D01*
X738142Y466903D01*
X738206Y466902D01*
X738281Y466923D01*
X738357Y466934D01*
X738416Y466960D01*
X738478Y466978D01*
X738544Y467018D01*
X738614Y467050D01*
X738663Y467092D01*
X738718Y467126D01*
X738770Y467183D01*
X738828Y467234D01*
X738864Y467287D01*
X738907Y467335D01*
X738940Y467405D01*
X738983Y467470D01*
X739002Y467531D01*
X739030Y467589D01*
X739041Y467658D01*
X739065Y467739D01*
X739066Y467824D01*
X739077Y467893D01*
X739077Y475062D01*
X739064Y475157D01*
X739059Y475253D01*
X739044Y475296D01*
X739037Y475341D01*
X738998Y475428D01*
X738966Y475519D01*
X738941Y475554D01*
X738921Y475598D01*
X738838Y475695D01*
X738785Y475768D01*
X725768Y488785D01*
X725692Y488842D01*
X725620Y488907D01*
X725579Y488927D01*
X725543Y488954D01*
X725453Y488988D01*
X725366Y489030D01*
X725324Y489036D01*
X725279Y489053D01*
X725151Y489063D01*
X725062Y489077D01*
X409901Y489077D01*
X409869Y489073D01*
X409837Y489075D01*
X409730Y489053D01*
X409621Y489037D01*
X409592Y489024D01*
X409560Y489018D01*
X409464Y488966D01*
X409364Y488921D01*
X409340Y488900D01*
X409311Y488885D01*
X409233Y488809D01*
X409150Y488738D01*
X409132Y488711D01*
X409109Y488688D01*
X409056Y488593D01*
X408996Y488502D01*
X408986Y488471D01*
X408970Y488443D01*
X408945Y488337D01*
X408913Y488232D01*
X408913Y488200D01*
X408905Y488169D01*
X408911Y488059D01*
X408910Y487950D01*
X408918Y487919D01*
X408920Y487887D01*
X408956Y487784D01*
X408985Y487678D01*
X409002Y487651D01*
X409012Y487620D01*
X409066Y487547D01*
X409133Y487438D01*
X409169Y487406D01*
X409194Y487371D01*
X410091Y486475D01*
X411831Y482274D01*
X411831Y481990D01*
X411835Y481958D01*
X411833Y481926D01*
X411855Y481819D01*
X411871Y481711D01*
X411884Y481682D01*
X411890Y481650D01*
X411942Y481554D01*
X411987Y481454D01*
X412008Y481429D01*
X412023Y481401D01*
X412099Y481323D01*
X412170Y481240D01*
X412197Y481222D01*
X412220Y481199D01*
X412315Y481145D01*
X412406Y481085D01*
X412437Y481076D01*
X412465Y481060D01*
X412571Y481035D01*
X412676Y481003D01*
X412708Y481002D01*
X412739Y480995D01*
X412849Y481001D01*
X412958Y480999D01*
X412989Y481008D01*
X413021Y481009D01*
X413124Y481045D01*
X413230Y481074D01*
X413257Y481091D01*
X413288Y481102D01*
X413361Y481155D01*
X413470Y481222D01*
X413502Y481258D01*
X413537Y481284D01*
X415638Y483385D01*
X417529Y485276D01*
X419817Y486224D01*
X583646Y486224D01*
X585934Y485276D01*
X604023Y467187D01*
X604100Y467129D01*
X604171Y467065D01*
X604212Y467045D01*
X604248Y467018D01*
X604338Y466984D01*
X604425Y466942D01*
X604467Y466935D01*
X604512Y466918D01*
X604640Y466908D01*
X604729Y466894D01*
X618857Y466894D01*
X623268Y465067D01*
X626658Y461677D01*
X626704Y461603D01*
X626771Y461490D01*
X626778Y461483D01*
X626783Y461475D01*
X626881Y461387D01*
X626976Y461297D01*
X626985Y461293D01*
X626992Y461286D01*
X627111Y461229D01*
X627228Y461169D01*
X627237Y461167D01*
X627246Y461163D01*
X627322Y461151D01*
X627505Y461117D01*
X627529Y461119D01*
X627550Y461116D01*
X712450Y461116D01*
X712459Y461117D01*
G37*
%LPC*%
G36*
X371379Y42499D02*
X371379Y42499D01*
X364385Y44373D01*
X358114Y47994D01*
X352994Y53114D01*
X349373Y59385D01*
X347499Y66379D01*
X347499Y73621D01*
X349373Y80615D01*
X352994Y86886D01*
X358114Y92006D01*
X364385Y95627D01*
X371379Y97501D01*
X378621Y97501D01*
X385615Y95627D01*
X391886Y92006D01*
X397006Y86886D01*
X400627Y80615D01*
X402501Y73621D01*
X402501Y66379D01*
X400627Y59385D01*
X397006Y53114D01*
X391886Y47994D01*
X385615Y44373D01*
X378621Y42499D01*
X371379Y42499D01*
G37*
%LPD*%
%LPC*%
G36*
X586379Y222499D02*
X586379Y222499D01*
X579385Y224373D01*
X573114Y227994D01*
X567994Y233114D01*
X564373Y239385D01*
X562499Y246379D01*
X562499Y253621D01*
X564373Y260615D01*
X567994Y266886D01*
X573114Y272006D01*
X579385Y275627D01*
X586379Y277501D01*
X593621Y277501D01*
X600615Y275627D01*
X606886Y272006D01*
X612006Y266886D01*
X615627Y260615D01*
X617501Y253621D01*
X617501Y246379D01*
X615627Y239385D01*
X612006Y233114D01*
X606886Y227994D01*
X600615Y224373D01*
X593621Y222499D01*
X586379Y222499D01*
G37*
%LPD*%
%LPC*%
G36*
X192565Y148569D02*
X192565Y148569D01*
X186000Y155135D01*
X185923Y155192D01*
X185852Y155257D01*
X185811Y155277D01*
X185774Y155304D01*
X185684Y155338D01*
X185598Y155380D01*
X185556Y155386D01*
X185510Y155403D01*
X185383Y155413D01*
X185293Y155427D01*
X87306Y155427D01*
X54025Y188709D01*
X53948Y188766D01*
X53876Y188831D01*
X53835Y188851D01*
X53799Y188878D01*
X53709Y188912D01*
X53623Y188954D01*
X53581Y188960D01*
X53535Y188977D01*
X53408Y188987D01*
X53318Y189001D01*
X45776Y189001D01*
X39801Y194976D01*
X39801Y203424D01*
X45776Y209399D01*
X54224Y209399D01*
X60199Y203424D01*
X60199Y195882D01*
X60212Y195787D01*
X60217Y195691D01*
X60232Y195648D01*
X60239Y195603D01*
X60278Y195515D01*
X60310Y195424D01*
X60335Y195390D01*
X60355Y195346D01*
X60438Y195248D01*
X60491Y195175D01*
X90801Y164865D01*
X90878Y164808D01*
X90950Y164743D01*
X90991Y164723D01*
X91027Y164696D01*
X91117Y164662D01*
X91203Y164620D01*
X91245Y164614D01*
X91291Y164597D01*
X91419Y164587D01*
X91508Y164573D01*
X185293Y164573D01*
X185388Y164586D01*
X185484Y164591D01*
X185528Y164606D01*
X185573Y164613D01*
X185660Y164652D01*
X185751Y164684D01*
X185785Y164709D01*
X185829Y164729D01*
X185927Y164812D01*
X186000Y164865D01*
X192565Y171431D01*
X202035Y171431D01*
X208731Y164735D01*
X208731Y155265D01*
X202035Y148569D01*
X192565Y148569D01*
G37*
%LPD*%
%LPC*%
G36*
X556576Y69801D02*
X556576Y69801D01*
X550601Y75776D01*
X550601Y83318D01*
X550588Y83413D01*
X550583Y83509D01*
X550568Y83552D01*
X550561Y83597D01*
X550522Y83685D01*
X550490Y83776D01*
X550465Y83810D01*
X550445Y83854D01*
X550362Y83951D01*
X550309Y84025D01*
X548127Y86206D01*
X548127Y147993D01*
X548114Y148088D01*
X548109Y148184D01*
X548094Y148228D01*
X548087Y148273D01*
X548048Y148360D01*
X548016Y148451D01*
X547991Y148485D01*
X547971Y148529D01*
X547888Y148627D01*
X547835Y148700D01*
X541269Y155265D01*
X541269Y164735D01*
X547965Y171431D01*
X557435Y171431D01*
X564131Y164735D01*
X564131Y155265D01*
X557565Y148700D01*
X557508Y148623D01*
X557443Y148552D01*
X557423Y148511D01*
X557396Y148474D01*
X557362Y148384D01*
X557320Y148298D01*
X557314Y148256D01*
X557297Y148210D01*
X557287Y148083D01*
X557273Y147993D01*
X557273Y91198D01*
X557282Y91134D01*
X557281Y91070D01*
X557302Y90995D01*
X557313Y90919D01*
X557339Y90860D01*
X557356Y90798D01*
X557397Y90732D01*
X557429Y90662D01*
X557471Y90613D01*
X557504Y90558D01*
X557562Y90506D01*
X557612Y90448D01*
X557666Y90412D01*
X557714Y90369D01*
X557783Y90336D01*
X557848Y90293D01*
X557910Y90274D01*
X557967Y90246D01*
X558037Y90235D01*
X558118Y90211D01*
X558203Y90210D01*
X558272Y90199D01*
X565024Y90199D01*
X570999Y84224D01*
X570999Y75776D01*
X565024Y69801D01*
X556576Y69801D01*
G37*
%LPD*%
G36*
X242524Y225450D02*
X242524Y225450D01*
X242556Y225449D01*
X242661Y225478D01*
X242768Y225501D01*
X242797Y225516D01*
X242828Y225524D01*
X242921Y225582D01*
X243017Y225633D01*
X243040Y225656D01*
X243068Y225672D01*
X243141Y225753D01*
X243219Y225830D01*
X243235Y225858D01*
X243257Y225882D01*
X243304Y225980D01*
X243358Y226075D01*
X243366Y226107D01*
X243380Y226136D01*
X243394Y226225D01*
X243423Y226350D01*
X243421Y226398D01*
X243427Y226440D01*
X243427Y235894D01*
X258135Y250601D01*
X268255Y260721D01*
X268274Y260747D01*
X268298Y260768D01*
X268358Y260860D01*
X268424Y260947D01*
X268435Y260977D01*
X268453Y261004D01*
X268485Y261109D01*
X268523Y261211D01*
X268526Y261243D01*
X268535Y261274D01*
X268537Y261383D01*
X268545Y261492D01*
X268539Y261524D01*
X268539Y261556D01*
X268510Y261661D01*
X268488Y261768D01*
X268473Y261797D01*
X268464Y261828D01*
X268406Y261921D01*
X268355Y262017D01*
X268333Y262040D01*
X268316Y262068D01*
X268235Y262141D01*
X268158Y262219D01*
X268130Y262235D01*
X268106Y262257D01*
X268008Y262304D01*
X267913Y262358D01*
X267882Y262366D01*
X267853Y262380D01*
X267763Y262394D01*
X267639Y262423D01*
X267590Y262421D01*
X267548Y262427D01*
X257497Y262427D01*
X244396Y275528D01*
X244345Y275566D01*
X244300Y275612D01*
X244232Y275651D01*
X244170Y275697D01*
X244110Y275720D01*
X244054Y275751D01*
X243979Y275769D01*
X243907Y275797D01*
X243843Y275802D01*
X243780Y275816D01*
X243702Y275812D01*
X243625Y275818D01*
X243562Y275805D01*
X243498Y275802D01*
X243425Y275777D01*
X243349Y275761D01*
X243293Y275731D01*
X243232Y275710D01*
X243175Y275668D01*
X243100Y275628D01*
X243040Y275569D01*
X242983Y275528D01*
X240768Y273313D01*
X237220Y271843D01*
X233380Y271843D01*
X229832Y273313D01*
X228279Y274866D01*
X228253Y274886D01*
X228232Y274910D01*
X228140Y274970D01*
X228053Y275036D01*
X228023Y275047D01*
X227996Y275065D01*
X227891Y275097D01*
X227789Y275135D01*
X227757Y275138D01*
X227726Y275147D01*
X227617Y275149D01*
X227508Y275157D01*
X227476Y275150D01*
X227444Y275151D01*
X227339Y275122D01*
X227232Y275099D01*
X227203Y275084D01*
X227172Y275076D01*
X227079Y275018D01*
X226983Y274967D01*
X226960Y274944D01*
X226932Y274928D01*
X226859Y274846D01*
X226781Y274770D01*
X226765Y274742D01*
X226743Y274718D01*
X226696Y274620D01*
X226642Y274525D01*
X226634Y274493D01*
X226620Y274464D01*
X226606Y274375D01*
X226577Y274250D01*
X226579Y274202D01*
X226573Y274160D01*
X226573Y227508D01*
X226586Y227413D01*
X226591Y227317D01*
X226606Y227274D01*
X226613Y227229D01*
X226652Y227141D01*
X226684Y227050D01*
X226709Y227016D01*
X226729Y226972D01*
X226812Y226875D01*
X226865Y226801D01*
X227699Y225968D01*
X227751Y225929D01*
X227796Y225883D01*
X227863Y225845D01*
X227925Y225798D01*
X227985Y225776D01*
X228041Y225744D01*
X228116Y225726D01*
X228189Y225699D01*
X228253Y225694D01*
X228315Y225679D01*
X228393Y225683D01*
X228470Y225677D01*
X228533Y225690D01*
X228597Y225693D01*
X228670Y225719D01*
X228746Y225734D01*
X228803Y225765D01*
X228863Y225786D01*
X228920Y225827D01*
X228995Y225867D01*
X229056Y225926D01*
X229112Y225968D01*
X229832Y226687D01*
X233380Y228157D01*
X237220Y228157D01*
X240768Y226687D01*
X241721Y225734D01*
X241747Y225714D01*
X241768Y225690D01*
X241860Y225630D01*
X241947Y225564D01*
X241977Y225553D01*
X242004Y225535D01*
X242109Y225503D01*
X242211Y225465D01*
X242243Y225462D01*
X242274Y225453D01*
X242383Y225451D01*
X242492Y225443D01*
X242524Y225450D01*
G37*
G36*
X422424Y311577D02*
X422424Y311577D01*
X422456Y311575D01*
X422563Y311597D01*
X422671Y311613D01*
X422700Y311626D01*
X422732Y311632D01*
X422828Y311684D01*
X422928Y311729D01*
X422952Y311750D01*
X422981Y311765D01*
X423059Y311841D01*
X423142Y311912D01*
X423160Y311939D01*
X423183Y311962D01*
X423237Y312057D01*
X423297Y312148D01*
X423306Y312179D01*
X423322Y312207D01*
X423347Y312313D01*
X423379Y312418D01*
X423379Y312450D01*
X423387Y312481D01*
X423381Y312591D01*
X423383Y312700D01*
X423374Y312731D01*
X423372Y312763D01*
X423337Y312866D01*
X423308Y312972D01*
X423291Y312999D01*
X423280Y313030D01*
X423227Y313103D01*
X423159Y313212D01*
X423123Y313244D01*
X423098Y313279D01*
X420601Y315776D01*
X420601Y324224D01*
X422098Y325721D01*
X422118Y325747D01*
X422142Y325768D01*
X422202Y325860D01*
X422268Y325947D01*
X422279Y325977D01*
X422297Y326004D01*
X422329Y326109D01*
X422367Y326211D01*
X422370Y326243D01*
X422379Y326274D01*
X422380Y326383D01*
X422389Y326492D01*
X422382Y326524D01*
X422383Y326556D01*
X422354Y326661D01*
X422331Y326768D01*
X422316Y326797D01*
X422308Y326828D01*
X422250Y326921D01*
X422199Y327017D01*
X422176Y327040D01*
X422159Y327068D01*
X422078Y327141D01*
X422002Y327219D01*
X421974Y327235D01*
X421950Y327257D01*
X421852Y327304D01*
X421757Y327358D01*
X421725Y327366D01*
X421696Y327380D01*
X421607Y327394D01*
X421482Y327423D01*
X421434Y327421D01*
X421392Y327427D01*
X386308Y327427D01*
X386213Y327414D01*
X386117Y327409D01*
X386074Y327394D01*
X386029Y327387D01*
X385941Y327348D01*
X385850Y327316D01*
X385816Y327291D01*
X385772Y327271D01*
X385675Y327188D01*
X385601Y327135D01*
X376151Y317685D01*
X376094Y317608D01*
X376029Y317536D01*
X376009Y317495D01*
X375982Y317459D01*
X375948Y317369D01*
X375906Y317283D01*
X375900Y317241D01*
X375883Y317195D01*
X375873Y317067D01*
X375859Y316978D01*
X375859Y315636D01*
X374748Y312954D01*
X374719Y312840D01*
X374684Y312726D01*
X374684Y312703D01*
X374678Y312681D01*
X374682Y312563D01*
X374680Y312444D01*
X374686Y312422D01*
X374687Y312399D01*
X374724Y312287D01*
X374755Y312172D01*
X374767Y312153D01*
X374774Y312131D01*
X374841Y312033D01*
X374904Y311932D01*
X374920Y311917D01*
X374933Y311898D01*
X375025Y311823D01*
X375113Y311743D01*
X375133Y311733D01*
X375151Y311719D01*
X375260Y311672D01*
X375367Y311620D01*
X375388Y311617D01*
X375410Y311607D01*
X375595Y311585D01*
X375671Y311573D01*
X422392Y311573D01*
X422424Y311577D01*
G37*
%LPC*%
G36*
X360380Y195643D02*
X360380Y195643D01*
X356832Y197113D01*
X354117Y199828D01*
X352647Y203376D01*
X352647Y220424D01*
X354117Y223972D01*
X356832Y226687D01*
X360380Y228157D01*
X364220Y228157D01*
X367768Y226687D01*
X370483Y223972D01*
X371953Y220424D01*
X371953Y203376D01*
X370483Y199828D01*
X367768Y197113D01*
X364220Y195643D01*
X360380Y195643D01*
G37*
%LPD*%
%LPC*%
G36*
X385780Y195643D02*
X385780Y195643D01*
X382232Y197113D01*
X379517Y199828D01*
X378047Y203376D01*
X378047Y220424D01*
X379517Y223972D01*
X382232Y226687D01*
X385780Y228157D01*
X389620Y228157D01*
X393168Y226687D01*
X395883Y223972D01*
X397353Y220424D01*
X397353Y203376D01*
X395883Y199828D01*
X393168Y197113D01*
X389620Y195643D01*
X385780Y195643D01*
G37*
%LPD*%
%LPC*%
G36*
X411180Y195643D02*
X411180Y195643D01*
X407632Y197113D01*
X404917Y199828D01*
X403447Y203376D01*
X403447Y220424D01*
X404917Y223972D01*
X407632Y226687D01*
X411180Y228157D01*
X415020Y228157D01*
X418568Y226687D01*
X421283Y223972D01*
X422753Y220424D01*
X422753Y203376D01*
X421283Y199828D01*
X418568Y197113D01*
X415020Y195643D01*
X411180Y195643D01*
G37*
%LPD*%
%LPC*%
G36*
X707454Y184701D02*
X707454Y184701D01*
X702750Y186650D01*
X699150Y190250D01*
X697201Y194954D01*
X697201Y200046D01*
X699150Y204750D01*
X702750Y208350D01*
X707454Y210299D01*
X712546Y210299D01*
X717250Y208350D01*
X720850Y204750D01*
X722799Y200046D01*
X722799Y194954D01*
X720850Y190250D01*
X717250Y186650D01*
X712546Y184701D01*
X707454Y184701D01*
G37*
%LPD*%
G36*
X14492Y106903D02*
X14492Y106903D01*
X14556Y106902D01*
X14631Y106923D01*
X14707Y106934D01*
X14766Y106960D01*
X14828Y106978D01*
X14894Y107018D01*
X14964Y107050D01*
X15013Y107092D01*
X15068Y107126D01*
X15120Y107183D01*
X15178Y107234D01*
X15214Y107287D01*
X15257Y107335D01*
X15290Y107405D01*
X15333Y107470D01*
X15352Y107531D01*
X15380Y107589D01*
X15391Y107658D01*
X15415Y107739D01*
X15416Y107824D01*
X15427Y107893D01*
X15427Y188936D01*
X15414Y189031D01*
X15409Y189127D01*
X15394Y189170D01*
X15387Y189215D01*
X15348Y189302D01*
X15316Y189393D01*
X15291Y189428D01*
X15271Y189472D01*
X15188Y189569D01*
X15135Y189642D01*
X12629Y192148D01*
X12603Y192168D01*
X12582Y192192D01*
X12490Y192252D01*
X12403Y192318D01*
X12373Y192329D01*
X12346Y192347D01*
X12241Y192379D01*
X12139Y192417D01*
X12107Y192420D01*
X12076Y192429D01*
X11967Y192430D01*
X11858Y192439D01*
X11826Y192432D01*
X11794Y192433D01*
X11689Y192404D01*
X11582Y192381D01*
X11553Y192366D01*
X11522Y192358D01*
X11429Y192300D01*
X11333Y192249D01*
X11310Y192226D01*
X11282Y192209D01*
X11209Y192128D01*
X11131Y192052D01*
X11115Y192024D01*
X11093Y192000D01*
X11046Y191902D01*
X10992Y191807D01*
X10984Y191775D01*
X10970Y191746D01*
X10956Y191657D01*
X10927Y191532D01*
X10929Y191484D01*
X10923Y191442D01*
X10923Y107893D01*
X10932Y107830D01*
X10931Y107766D01*
X10952Y107691D01*
X10963Y107614D01*
X10989Y107556D01*
X11006Y107494D01*
X11047Y107428D01*
X11079Y107357D01*
X11121Y107309D01*
X11154Y107254D01*
X11212Y107202D01*
X11262Y107143D01*
X11316Y107108D01*
X11364Y107065D01*
X11433Y107031D01*
X11498Y106989D01*
X11560Y106970D01*
X11617Y106942D01*
X11687Y106931D01*
X11768Y106906D01*
X11853Y106905D01*
X11922Y106894D01*
X14428Y106894D01*
X14492Y106903D01*
G37*
%LPC*%
G36*
X430231Y169451D02*
X430231Y169451D01*
X424051Y175631D01*
X424051Y184369D01*
X430231Y190549D01*
X438969Y190549D01*
X445149Y184369D01*
X445149Y175631D01*
X438969Y169451D01*
X430231Y169451D01*
G37*
%LPD*%
G36*
X235149Y156020D02*
X235149Y156020D01*
X235258Y156019D01*
X235289Y156027D01*
X235321Y156029D01*
X235424Y156065D01*
X235530Y156094D01*
X235557Y156111D01*
X235588Y156122D01*
X235661Y156175D01*
X235770Y156242D01*
X235802Y156278D01*
X235837Y156303D01*
X255835Y176301D01*
X255892Y176378D01*
X255957Y176450D01*
X255977Y176491D01*
X256004Y176527D01*
X256038Y176617D01*
X256080Y176703D01*
X256086Y176745D01*
X256103Y176791D01*
X256113Y176919D01*
X256127Y177008D01*
X256127Y196074D01*
X256126Y196084D01*
X256127Y196093D01*
X256106Y196223D01*
X256087Y196354D01*
X256084Y196362D01*
X256082Y196372D01*
X256025Y196491D01*
X255971Y196611D01*
X255965Y196618D01*
X255961Y196626D01*
X255873Y196725D01*
X255788Y196825D01*
X255780Y196830D01*
X255774Y196837D01*
X255708Y196877D01*
X255552Y196979D01*
X255529Y196986D01*
X255510Y196998D01*
X255232Y197113D01*
X254279Y198066D01*
X254253Y198086D01*
X254232Y198110D01*
X254140Y198170D01*
X254053Y198236D01*
X254023Y198247D01*
X253996Y198265D01*
X253891Y198297D01*
X253789Y198335D01*
X253757Y198338D01*
X253726Y198347D01*
X253617Y198349D01*
X253508Y198357D01*
X253476Y198350D01*
X253444Y198351D01*
X253339Y198322D01*
X253232Y198299D01*
X253203Y198284D01*
X253172Y198276D01*
X253079Y198218D01*
X252983Y198167D01*
X252960Y198144D01*
X252932Y198128D01*
X252859Y198047D01*
X252781Y197970D01*
X252765Y197942D01*
X252743Y197918D01*
X252696Y197820D01*
X252642Y197725D01*
X252634Y197693D01*
X252620Y197664D01*
X252606Y197575D01*
X252577Y197450D01*
X252579Y197402D01*
X252573Y197360D01*
X252573Y183406D01*
X249601Y180435D01*
X234423Y165257D01*
X234366Y165180D01*
X234301Y165108D01*
X234281Y165067D01*
X234254Y165031D01*
X234220Y164941D01*
X234178Y164855D01*
X234172Y164813D01*
X234155Y164767D01*
X234145Y164640D01*
X234131Y164550D01*
X234131Y157010D01*
X234135Y156978D01*
X234133Y156946D01*
X234155Y156839D01*
X234171Y156731D01*
X234184Y156701D01*
X234190Y156670D01*
X234242Y156573D01*
X234287Y156474D01*
X234308Y156449D01*
X234323Y156421D01*
X234399Y156342D01*
X234470Y156260D01*
X234497Y156242D01*
X234520Y156219D01*
X234615Y156165D01*
X234706Y156105D01*
X234737Y156096D01*
X234765Y156080D01*
X234872Y156055D01*
X234976Y156023D01*
X235008Y156022D01*
X235039Y156015D01*
X235149Y156020D01*
G37*
G36*
X243524Y300650D02*
X243524Y300650D01*
X243556Y300649D01*
X243661Y300678D01*
X243768Y300701D01*
X243797Y300716D01*
X243828Y300724D01*
X243921Y300782D01*
X244017Y300833D01*
X244040Y300856D01*
X244068Y300872D01*
X244141Y300954D01*
X244219Y301030D01*
X244235Y301058D01*
X244257Y301082D01*
X244304Y301180D01*
X244358Y301275D01*
X244366Y301307D01*
X244380Y301336D01*
X244394Y301425D01*
X244423Y301550D01*
X244421Y301598D01*
X244427Y301640D01*
X244427Y314692D01*
X244416Y314773D01*
X244416Y314823D01*
X244411Y314842D01*
X244409Y314883D01*
X244394Y314926D01*
X244387Y314971D01*
X244356Y315041D01*
X244341Y315094D01*
X244328Y315115D01*
X244316Y315150D01*
X244291Y315184D01*
X244271Y315228D01*
X244226Y315281D01*
X244193Y315334D01*
X244159Y315365D01*
X244135Y315399D01*
X243612Y315922D01*
X243535Y315979D01*
X243463Y316044D01*
X243422Y316064D01*
X243386Y316091D01*
X243296Y316125D01*
X243210Y316167D01*
X243168Y316173D01*
X243122Y316190D01*
X242994Y316200D01*
X242905Y316214D01*
X241563Y316214D01*
X239042Y317258D01*
X237112Y319188D01*
X236672Y320251D01*
X236611Y320354D01*
X236556Y320458D01*
X236540Y320474D01*
X236528Y320494D01*
X236442Y320575D01*
X236359Y320660D01*
X236339Y320671D01*
X236323Y320687D01*
X236217Y320741D01*
X236114Y320799D01*
X236092Y320804D01*
X236071Y320815D01*
X235955Y320837D01*
X235839Y320864D01*
X235816Y320863D01*
X235794Y320867D01*
X235676Y320856D01*
X235558Y320850D01*
X235536Y320842D01*
X235513Y320840D01*
X235403Y320796D01*
X235291Y320757D01*
X235274Y320744D01*
X235251Y320735D01*
X235105Y320621D01*
X235042Y320575D01*
X226865Y312399D01*
X226848Y312375D01*
X226827Y312357D01*
X226793Y312305D01*
X226743Y312250D01*
X226723Y312209D01*
X226696Y312173D01*
X226682Y312137D01*
X226672Y312121D01*
X226658Y312074D01*
X226620Y311997D01*
X226614Y311955D01*
X226597Y311909D01*
X226593Y311862D01*
X226590Y311851D01*
X226589Y311813D01*
X226587Y311781D01*
X226573Y311692D01*
X226573Y302040D01*
X226577Y302008D01*
X226575Y301976D01*
X226597Y301869D01*
X226613Y301761D01*
X226626Y301732D01*
X226632Y301700D01*
X226684Y301604D01*
X226729Y301504D01*
X226750Y301479D01*
X226765Y301451D01*
X226841Y301373D01*
X226912Y301290D01*
X226939Y301272D01*
X226962Y301249D01*
X227057Y301195D01*
X227148Y301135D01*
X227179Y301126D01*
X227207Y301110D01*
X227313Y301085D01*
X227418Y301053D01*
X227450Y301052D01*
X227481Y301045D01*
X227591Y301051D01*
X227700Y301049D01*
X227731Y301058D01*
X227763Y301059D01*
X227866Y301095D01*
X227972Y301124D01*
X227999Y301141D01*
X228030Y301152D01*
X228103Y301205D01*
X228212Y301272D01*
X228244Y301308D01*
X228279Y301334D01*
X229832Y302887D01*
X233380Y304357D01*
X237220Y304357D01*
X240768Y302887D01*
X242721Y300934D01*
X242747Y300914D01*
X242768Y300890D01*
X242860Y300830D01*
X242947Y300764D01*
X242977Y300753D01*
X243004Y300735D01*
X243109Y300703D01*
X243211Y300665D01*
X243243Y300662D01*
X243274Y300653D01*
X243383Y300651D01*
X243492Y300643D01*
X243524Y300650D01*
G37*
G36*
X356192Y271577D02*
X356192Y271577D01*
X356224Y271575D01*
X356331Y271597D01*
X356439Y271613D01*
X356468Y271626D01*
X356500Y271632D01*
X356596Y271684D01*
X356696Y271729D01*
X356721Y271750D01*
X356749Y271765D01*
X356827Y271841D01*
X356910Y271912D01*
X356928Y271939D01*
X356951Y271962D01*
X357005Y272057D01*
X357065Y272148D01*
X357074Y272179D01*
X357090Y272207D01*
X357115Y272313D01*
X357147Y272418D01*
X357148Y272450D01*
X357155Y272481D01*
X357149Y272591D01*
X357151Y272700D01*
X357142Y272731D01*
X357141Y272763D01*
X357105Y272866D01*
X357076Y272972D01*
X357059Y272999D01*
X357048Y273030D01*
X356995Y273103D01*
X356928Y273212D01*
X356892Y273244D01*
X356866Y273279D01*
X354117Y276028D01*
X352647Y279576D01*
X352647Y296624D01*
X354117Y300172D01*
X354666Y300721D01*
X354686Y300747D01*
X354710Y300768D01*
X354770Y300860D01*
X354836Y300947D01*
X354847Y300977D01*
X354865Y301004D01*
X354897Y301109D01*
X354935Y301211D01*
X354938Y301243D01*
X354947Y301274D01*
X354949Y301383D01*
X354957Y301492D01*
X354950Y301524D01*
X354951Y301556D01*
X354922Y301661D01*
X354899Y301768D01*
X354884Y301797D01*
X354876Y301828D01*
X354818Y301921D01*
X354767Y302017D01*
X354744Y302040D01*
X354728Y302068D01*
X354646Y302141D01*
X354570Y302219D01*
X354542Y302235D01*
X354518Y302257D01*
X354420Y302304D01*
X354325Y302358D01*
X354293Y302366D01*
X354264Y302380D01*
X354175Y302394D01*
X354050Y302423D01*
X354002Y302421D01*
X353960Y302427D01*
X345240Y302427D01*
X345208Y302423D01*
X345176Y302425D01*
X345069Y302403D01*
X344961Y302387D01*
X344932Y302374D01*
X344900Y302368D01*
X344803Y302316D01*
X344704Y302271D01*
X344680Y302250D01*
X344651Y302235D01*
X344573Y302159D01*
X344490Y302088D01*
X344472Y302061D01*
X344449Y302038D01*
X344395Y301944D01*
X344335Y301852D01*
X344326Y301821D01*
X344310Y301793D01*
X344285Y301687D01*
X344253Y301582D01*
X344252Y301550D01*
X344245Y301519D01*
X344251Y301409D01*
X344249Y301300D01*
X344258Y301269D01*
X344259Y301237D01*
X344295Y301134D01*
X344324Y301028D01*
X344341Y301001D01*
X344352Y300970D01*
X344405Y300897D01*
X344472Y300788D01*
X344508Y300756D01*
X344534Y300721D01*
X345083Y300172D01*
X346553Y296624D01*
X346553Y279576D01*
X345083Y276028D01*
X342334Y273279D01*
X342314Y273253D01*
X342290Y273232D01*
X342230Y273140D01*
X342164Y273053D01*
X342153Y273023D01*
X342135Y272996D01*
X342103Y272891D01*
X342065Y272789D01*
X342062Y272757D01*
X342053Y272726D01*
X342051Y272617D01*
X342043Y272508D01*
X342050Y272476D01*
X342049Y272444D01*
X342078Y272339D01*
X342101Y272232D01*
X342116Y272203D01*
X342124Y272172D01*
X342182Y272079D01*
X342233Y271983D01*
X342256Y271960D01*
X342272Y271932D01*
X342354Y271859D01*
X342430Y271781D01*
X342458Y271765D01*
X342482Y271743D01*
X342580Y271696D01*
X342675Y271642D01*
X342707Y271634D01*
X342736Y271620D01*
X342825Y271606D01*
X342950Y271577D01*
X342998Y271579D01*
X343040Y271573D01*
X356160Y271573D01*
X356192Y271577D01*
G37*
G36*
X305392Y271577D02*
X305392Y271577D01*
X305424Y271575D01*
X305531Y271597D01*
X305639Y271613D01*
X305668Y271626D01*
X305700Y271632D01*
X305796Y271684D01*
X305896Y271729D01*
X305921Y271750D01*
X305949Y271765D01*
X306027Y271841D01*
X306110Y271912D01*
X306128Y271939D01*
X306151Y271962D01*
X306205Y272057D01*
X306265Y272148D01*
X306274Y272179D01*
X306290Y272207D01*
X306315Y272313D01*
X306347Y272418D01*
X306348Y272450D01*
X306355Y272481D01*
X306349Y272591D01*
X306351Y272700D01*
X306342Y272731D01*
X306341Y272763D01*
X306305Y272866D01*
X306276Y272972D01*
X306259Y272999D01*
X306248Y273030D01*
X306195Y273103D01*
X306128Y273212D01*
X306092Y273244D01*
X306066Y273279D01*
X303317Y276028D01*
X301847Y279576D01*
X301847Y295674D01*
X301831Y295792D01*
X301819Y295910D01*
X301811Y295931D01*
X301807Y295953D01*
X301759Y296061D01*
X301715Y296172D01*
X301701Y296190D01*
X301691Y296210D01*
X301614Y296300D01*
X301541Y296394D01*
X301523Y296407D01*
X301508Y296425D01*
X301408Y296490D01*
X301312Y296559D01*
X301291Y296567D01*
X301272Y296579D01*
X301158Y296614D01*
X301047Y296654D01*
X301024Y296655D01*
X301002Y296662D01*
X300884Y296663D01*
X300765Y296670D01*
X300744Y296665D01*
X300720Y296665D01*
X300541Y296616D01*
X300466Y296597D01*
X299364Y296141D01*
X296752Y296141D01*
X296688Y296132D01*
X296624Y296133D01*
X296549Y296112D01*
X296473Y296101D01*
X296414Y296075D01*
X296352Y296058D01*
X296286Y296017D01*
X296216Y295985D01*
X296167Y295943D01*
X296112Y295910D01*
X296060Y295852D01*
X296002Y295802D01*
X295966Y295748D01*
X295923Y295700D01*
X295890Y295631D01*
X295847Y295566D01*
X295828Y295504D01*
X295800Y295447D01*
X295789Y295377D01*
X295765Y295296D01*
X295764Y295211D01*
X295753Y295142D01*
X295753Y279576D01*
X294283Y276028D01*
X291534Y273279D01*
X291514Y273253D01*
X291490Y273232D01*
X291430Y273140D01*
X291364Y273053D01*
X291353Y273023D01*
X291335Y272996D01*
X291303Y272891D01*
X291265Y272789D01*
X291262Y272757D01*
X291253Y272726D01*
X291251Y272617D01*
X291243Y272508D01*
X291250Y272476D01*
X291249Y272444D01*
X291278Y272339D01*
X291301Y272232D01*
X291316Y272203D01*
X291324Y272172D01*
X291382Y272079D01*
X291433Y271983D01*
X291456Y271960D01*
X291472Y271932D01*
X291554Y271859D01*
X291630Y271781D01*
X291658Y271765D01*
X291682Y271743D01*
X291780Y271696D01*
X291875Y271642D01*
X291907Y271634D01*
X291936Y271620D01*
X292025Y271606D01*
X292150Y271577D01*
X292198Y271579D01*
X292240Y271573D01*
X305360Y271573D01*
X305392Y271577D01*
G37*
G36*
X372971Y280242D02*
X372971Y280242D01*
X373080Y280241D01*
X373111Y280249D01*
X373143Y280251D01*
X373246Y280287D01*
X373352Y280316D01*
X373379Y280333D01*
X373410Y280344D01*
X373483Y280397D01*
X373592Y280464D01*
X373624Y280500D01*
X373659Y280525D01*
X377755Y284621D01*
X377812Y284698D01*
X377877Y284770D01*
X377897Y284811D01*
X377924Y284847D01*
X377958Y284937D01*
X378000Y285023D01*
X378006Y285065D01*
X378023Y285111D01*
X378033Y285239D01*
X378047Y285328D01*
X378047Y296624D01*
X379517Y300172D01*
X380066Y300721D01*
X380086Y300747D01*
X380110Y300768D01*
X380170Y300860D01*
X380236Y300947D01*
X380247Y300977D01*
X380265Y301004D01*
X380297Y301109D01*
X380335Y301211D01*
X380338Y301243D01*
X380347Y301274D01*
X380349Y301383D01*
X380357Y301492D01*
X380350Y301524D01*
X380351Y301556D01*
X380322Y301661D01*
X380299Y301768D01*
X380284Y301797D01*
X380276Y301828D01*
X380218Y301921D01*
X380167Y302017D01*
X380144Y302040D01*
X380128Y302068D01*
X380046Y302141D01*
X379970Y302219D01*
X379942Y302235D01*
X379918Y302257D01*
X379820Y302304D01*
X379725Y302358D01*
X379693Y302366D01*
X379664Y302380D01*
X379575Y302394D01*
X379450Y302423D01*
X379402Y302421D01*
X379360Y302427D01*
X370640Y302427D01*
X370608Y302423D01*
X370576Y302425D01*
X370469Y302403D01*
X370361Y302387D01*
X370332Y302374D01*
X370300Y302368D01*
X370203Y302316D01*
X370104Y302271D01*
X370080Y302250D01*
X370051Y302235D01*
X369973Y302159D01*
X369890Y302088D01*
X369872Y302061D01*
X369849Y302038D01*
X369795Y301944D01*
X369735Y301852D01*
X369726Y301821D01*
X369710Y301793D01*
X369685Y301687D01*
X369653Y301582D01*
X369652Y301550D01*
X369645Y301519D01*
X369651Y301409D01*
X369649Y301300D01*
X369658Y301269D01*
X369659Y301237D01*
X369695Y301134D01*
X369724Y301028D01*
X369741Y301001D01*
X369752Y300970D01*
X369805Y300897D01*
X369872Y300788D01*
X369908Y300756D01*
X369934Y300721D01*
X370483Y300172D01*
X371953Y296624D01*
X371953Y281232D01*
X371957Y281200D01*
X371955Y281168D01*
X371977Y281061D01*
X371993Y280953D01*
X372006Y280923D01*
X372012Y280892D01*
X372064Y280795D01*
X372109Y280696D01*
X372130Y280671D01*
X372145Y280643D01*
X372221Y280565D01*
X372292Y280482D01*
X372319Y280464D01*
X372342Y280441D01*
X372437Y280387D01*
X372528Y280327D01*
X372559Y280318D01*
X372587Y280302D01*
X372694Y280277D01*
X372798Y280245D01*
X372830Y280244D01*
X372861Y280237D01*
X372971Y280242D01*
G37*
G36*
X529544Y204041D02*
X529544Y204041D01*
X529576Y204041D01*
X529681Y204070D01*
X529788Y204092D01*
X529817Y204107D01*
X529848Y204116D01*
X529941Y204174D01*
X530037Y204225D01*
X530060Y204247D01*
X530088Y204264D01*
X530161Y204345D01*
X530239Y204422D01*
X530255Y204450D01*
X530277Y204474D01*
X530324Y204572D01*
X530378Y204667D01*
X530386Y204698D01*
X530400Y204727D01*
X530414Y204817D01*
X530443Y204941D01*
X530441Y204990D01*
X530447Y205032D01*
X530447Y220424D01*
X531947Y224046D01*
X531977Y224160D01*
X532011Y224274D01*
X532012Y224297D01*
X532017Y224319D01*
X532014Y224437D01*
X532015Y224556D01*
X532009Y224578D01*
X532008Y224601D01*
X531972Y224713D01*
X531940Y224828D01*
X531928Y224847D01*
X531921Y224869D01*
X531854Y224967D01*
X531792Y225068D01*
X531775Y225083D01*
X531762Y225102D01*
X531671Y225177D01*
X531583Y225257D01*
X531562Y225267D01*
X531544Y225281D01*
X531435Y225328D01*
X531329Y225380D01*
X531307Y225383D01*
X531285Y225393D01*
X531101Y225415D01*
X531024Y225427D01*
X523776Y225427D01*
X523659Y225411D01*
X523540Y225399D01*
X523519Y225391D01*
X523497Y225387D01*
X523389Y225339D01*
X523278Y225295D01*
X523260Y225281D01*
X523240Y225271D01*
X523150Y225194D01*
X523056Y225121D01*
X523043Y225103D01*
X523025Y225088D01*
X522960Y224989D01*
X522891Y224892D01*
X522883Y224871D01*
X522871Y224852D01*
X522836Y224738D01*
X522797Y224627D01*
X522795Y224604D01*
X522789Y224582D01*
X522787Y224464D01*
X522780Y224345D01*
X522785Y224324D01*
X522785Y224300D01*
X522834Y224121D01*
X522853Y224046D01*
X524353Y220424D01*
X524353Y209128D01*
X524366Y209033D01*
X524371Y208937D01*
X524386Y208894D01*
X524393Y208849D01*
X524432Y208761D01*
X524464Y208670D01*
X524489Y208636D01*
X524509Y208592D01*
X524592Y208494D01*
X524645Y208421D01*
X528741Y204325D01*
X528767Y204306D01*
X528788Y204282D01*
X528880Y204222D01*
X528967Y204156D01*
X528997Y204145D01*
X529024Y204127D01*
X529129Y204095D01*
X529231Y204057D01*
X529263Y204054D01*
X529294Y204045D01*
X529403Y204043D01*
X529512Y204035D01*
X529544Y204041D01*
G37*
%LPC*%
G36*
X440499Y213899D02*
X440499Y213899D01*
X440499Y227430D01*
X441167Y227297D01*
X442832Y226608D01*
X444330Y225607D01*
X445603Y224334D01*
X446604Y222836D01*
X447293Y221171D01*
X447645Y219405D01*
X447645Y213899D01*
X440499Y213899D01*
G37*
%LPD*%
%LPC*%
G36*
X440499Y209901D02*
X440499Y209901D01*
X447645Y209901D01*
X447645Y204395D01*
X447293Y202629D01*
X446604Y200964D01*
X445603Y199466D01*
X444330Y198193D01*
X442832Y197192D01*
X441167Y196503D01*
X440499Y196370D01*
X440499Y209901D01*
G37*
%LPD*%
%LPC*%
G36*
X429355Y213899D02*
X429355Y213899D01*
X429355Y219405D01*
X429707Y221171D01*
X430396Y222836D01*
X431397Y224334D01*
X432670Y225607D01*
X434168Y226608D01*
X435833Y227297D01*
X436501Y227430D01*
X436501Y213899D01*
X429355Y213899D01*
G37*
%LPD*%
%LPC*%
G36*
X435833Y196503D02*
X435833Y196503D01*
X434168Y197192D01*
X432670Y198193D01*
X431397Y199466D01*
X430396Y200964D01*
X429707Y202629D01*
X429355Y204395D01*
X429355Y209901D01*
X436501Y209901D01*
X436501Y196370D01*
X435833Y196503D01*
G37*
%LPD*%
G36*
X390235Y471623D02*
X390235Y471623D01*
X390268Y471621D01*
X390375Y471643D01*
X390483Y471659D01*
X390512Y471672D01*
X390544Y471678D01*
X390640Y471730D01*
X390740Y471775D01*
X390764Y471796D01*
X390793Y471811D01*
X390871Y471887D01*
X390954Y471958D01*
X390972Y471985D01*
X390995Y472008D01*
X391048Y472103D01*
X391108Y472194D01*
X391118Y472225D01*
X391134Y472253D01*
X391159Y472359D01*
X391191Y472464D01*
X391191Y472496D01*
X391199Y472528D01*
X391193Y472637D01*
X391194Y472746D01*
X391186Y472777D01*
X391184Y472809D01*
X391148Y472912D01*
X391119Y473018D01*
X391102Y473045D01*
X391092Y473076D01*
X391038Y473149D01*
X390971Y473258D01*
X390935Y473290D01*
X390910Y473325D01*
X390710Y473525D01*
X388969Y477726D01*
X388969Y482274D01*
X390709Y486475D01*
X391606Y487371D01*
X391625Y487397D01*
X391650Y487418D01*
X391710Y487510D01*
X391775Y487597D01*
X391787Y487627D01*
X391804Y487654D01*
X391836Y487759D01*
X391875Y487861D01*
X391877Y487893D01*
X391887Y487924D01*
X391888Y488033D01*
X391897Y488142D01*
X391890Y488174D01*
X391890Y488206D01*
X391861Y488311D01*
X391839Y488418D01*
X391824Y488447D01*
X391815Y488478D01*
X391758Y488571D01*
X391707Y488667D01*
X391684Y488690D01*
X391667Y488718D01*
X391586Y488791D01*
X391510Y488869D01*
X391482Y488885D01*
X391458Y488907D01*
X391360Y488954D01*
X391264Y489008D01*
X391233Y489016D01*
X391204Y489030D01*
X391115Y489044D01*
X390990Y489073D01*
X390942Y489071D01*
X390899Y489077D01*
X384501Y489077D01*
X384469Y489073D01*
X384437Y489075D01*
X384330Y489053D01*
X384221Y489037D01*
X384192Y489024D01*
X384160Y489018D01*
X384064Y488966D01*
X383964Y488921D01*
X383940Y488900D01*
X383911Y488885D01*
X383833Y488809D01*
X383750Y488738D01*
X383732Y488711D01*
X383709Y488688D01*
X383656Y488593D01*
X383596Y488502D01*
X383586Y488471D01*
X383570Y488443D01*
X383545Y488337D01*
X383513Y488232D01*
X383513Y488200D01*
X383505Y488169D01*
X383511Y488059D01*
X383510Y487950D01*
X383518Y487919D01*
X383520Y487887D01*
X383556Y487784D01*
X383585Y487678D01*
X383602Y487651D01*
X383612Y487620D01*
X383666Y487547D01*
X383733Y487438D01*
X383769Y487406D01*
X383794Y487371D01*
X384691Y486475D01*
X386431Y482274D01*
X386431Y477726D01*
X384690Y473525D01*
X384490Y473325D01*
X384471Y473299D01*
X384446Y473278D01*
X384386Y473186D01*
X384321Y473099D01*
X384309Y473069D01*
X384292Y473042D01*
X384260Y472937D01*
X384221Y472835D01*
X384219Y472803D01*
X384209Y472772D01*
X384208Y472663D01*
X384199Y472554D01*
X384206Y472522D01*
X384206Y472490D01*
X384235Y472385D01*
X384257Y472278D01*
X384272Y472249D01*
X384281Y472218D01*
X384338Y472125D01*
X384389Y472029D01*
X384412Y472006D01*
X384429Y471978D01*
X384510Y471905D01*
X384586Y471827D01*
X384614Y471811D01*
X384638Y471789D01*
X384737Y471742D01*
X384832Y471688D01*
X384863Y471680D01*
X384892Y471666D01*
X384982Y471652D01*
X385106Y471623D01*
X385154Y471625D01*
X385197Y471619D01*
X390203Y471619D01*
X390235Y471623D01*
G37*
%LPC*%
G36*
X711999Y304499D02*
X711999Y304499D01*
X711999Y314627D01*
X712878Y314488D01*
X714718Y313890D01*
X716442Y313012D01*
X718007Y311875D01*
X719375Y310507D01*
X720512Y308942D01*
X721390Y307218D01*
X721988Y305378D01*
X722127Y304499D01*
X711999Y304499D01*
G37*
%LPD*%
%LPC*%
G36*
X549499Y458001D02*
X549499Y458001D01*
X559627Y458001D01*
X559586Y457742D01*
X559586Y457741D01*
X559488Y457122D01*
X558890Y455282D01*
X558012Y453558D01*
X556875Y451993D01*
X555507Y450625D01*
X553942Y449488D01*
X552218Y448610D01*
X550378Y448012D01*
X549499Y447873D01*
X549499Y458001D01*
G37*
%LPD*%
%LPC*%
G36*
X711999Y300501D02*
X711999Y300501D01*
X722127Y300501D01*
X721988Y299622D01*
X721390Y297782D01*
X720512Y296058D01*
X719375Y294493D01*
X718007Y293125D01*
X716442Y291988D01*
X714718Y291110D01*
X712878Y290512D01*
X711999Y290373D01*
X711999Y300501D01*
G37*
%LPD*%
%LPC*%
G36*
X697873Y304499D02*
X697873Y304499D01*
X698012Y305378D01*
X698610Y307218D01*
X699488Y308942D01*
X700625Y310507D01*
X701993Y311875D01*
X703558Y313012D01*
X705282Y313890D01*
X707122Y314488D01*
X708001Y314627D01*
X708001Y304499D01*
X697873Y304499D01*
G37*
%LPD*%
%LPC*%
G36*
X707122Y290512D02*
X707122Y290512D01*
X705282Y291110D01*
X703558Y291988D01*
X701993Y293125D01*
X700625Y294493D01*
X699488Y296058D01*
X698610Y297782D01*
X698012Y299622D01*
X697873Y300501D01*
X708001Y300501D01*
X708001Y290373D01*
X707122Y290512D01*
G37*
%LPD*%
%LPC*%
G36*
X544622Y448012D02*
X544622Y448012D01*
X542782Y448610D01*
X541058Y449488D01*
X539493Y450625D01*
X538125Y451993D01*
X536988Y453558D01*
X536110Y455282D01*
X535512Y457122D01*
X535373Y458001D01*
X545501Y458001D01*
X545501Y447873D01*
X544622Y448012D01*
G37*
%LPD*%
%LPC*%
G36*
X487399Y169959D02*
X487399Y169959D01*
X487399Y178001D01*
X495441Y178001D01*
X495441Y175841D01*
X489559Y169959D01*
X487399Y169959D01*
G37*
%LPD*%
%LPC*%
G36*
X481241Y169959D02*
X481241Y169959D01*
X475359Y175841D01*
X475359Y178001D01*
X483401Y178001D01*
X483401Y169959D01*
X481241Y169959D01*
G37*
%LPD*%
%LPC*%
G36*
X461999Y452799D02*
X461999Y452799D01*
X461999Y460491D01*
X464014Y460491D01*
X469691Y454814D01*
X469691Y452799D01*
X461999Y452799D01*
G37*
%LPD*%
%LPC*%
G36*
X21999Y302799D02*
X21999Y302799D01*
X21999Y310491D01*
X24014Y310491D01*
X29691Y304814D01*
X29691Y302799D01*
X21999Y302799D01*
G37*
%LPD*%
%LPC*%
G36*
X51999Y302799D02*
X51999Y302799D01*
X51999Y310491D01*
X54014Y310491D01*
X59691Y304814D01*
X59691Y302799D01*
X51999Y302799D01*
G37*
%LPD*%
%LPC*%
G36*
X461199Y51999D02*
X461199Y51999D01*
X461199Y59691D01*
X463214Y59691D01*
X468891Y54014D01*
X468891Y51999D01*
X461199Y51999D01*
G37*
%LPD*%
%LPC*%
G36*
X111999Y201199D02*
X111999Y201199D01*
X111999Y208891D01*
X114014Y208891D01*
X119691Y203214D01*
X119691Y201199D01*
X111999Y201199D01*
G37*
%LPD*%
%LPC*%
G36*
X321999Y452799D02*
X321999Y452799D01*
X321999Y460491D01*
X324014Y460491D01*
X329691Y454814D01*
X329691Y452799D01*
X321999Y452799D01*
G37*
%LPD*%
%LPC*%
G36*
X291999Y351199D02*
X291999Y351199D01*
X291999Y358891D01*
X294014Y358891D01*
X299691Y353214D01*
X299691Y351199D01*
X291999Y351199D01*
G37*
%LPD*%
%LPC*%
G36*
X431999Y351199D02*
X431999Y351199D01*
X431999Y358891D01*
X434014Y358891D01*
X439691Y353214D01*
X439691Y351199D01*
X431999Y351199D01*
G37*
%LPD*%
%LPC*%
G36*
X310309Y452799D02*
X310309Y452799D01*
X310309Y454814D01*
X315986Y460491D01*
X318001Y460491D01*
X318001Y452799D01*
X310309Y452799D01*
G37*
%LPD*%
%LPC*%
G36*
X21999Y298801D02*
X21999Y298801D01*
X29691Y298801D01*
X29691Y296786D01*
X24014Y291109D01*
X21999Y291109D01*
X21999Y298801D01*
G37*
%LPD*%
%LPC*%
G36*
X111999Y197201D02*
X111999Y197201D01*
X119691Y197201D01*
X119691Y195186D01*
X114014Y189509D01*
X111999Y189509D01*
X111999Y197201D01*
G37*
%LPD*%
%LPC*%
G36*
X51999Y298801D02*
X51999Y298801D01*
X59691Y298801D01*
X59691Y296786D01*
X54014Y291109D01*
X51999Y291109D01*
X51999Y298801D01*
G37*
%LPD*%
%LPC*%
G36*
X420309Y351199D02*
X420309Y351199D01*
X420309Y353214D01*
X425986Y358891D01*
X428001Y358891D01*
X428001Y351199D01*
X420309Y351199D01*
G37*
%LPD*%
%LPC*%
G36*
X100309Y201199D02*
X100309Y201199D01*
X100309Y203214D01*
X105986Y208891D01*
X108001Y208891D01*
X108001Y201199D01*
X100309Y201199D01*
G37*
%LPD*%
%LPC*%
G36*
X280309Y351199D02*
X280309Y351199D01*
X280309Y353214D01*
X285986Y358891D01*
X288001Y358891D01*
X288001Y351199D01*
X280309Y351199D01*
G37*
%LPD*%
%LPC*%
G36*
X321999Y448801D02*
X321999Y448801D01*
X329691Y448801D01*
X329691Y446786D01*
X324014Y441109D01*
X321999Y441109D01*
X321999Y448801D01*
G37*
%LPD*%
%LPC*%
G36*
X291999Y347201D02*
X291999Y347201D01*
X299691Y347201D01*
X299691Y345186D01*
X294014Y339509D01*
X291999Y339509D01*
X291999Y347201D01*
G37*
%LPD*%
%LPC*%
G36*
X461999Y448801D02*
X461999Y448801D01*
X469691Y448801D01*
X469691Y446786D01*
X464014Y441109D01*
X461999Y441109D01*
X461999Y448801D01*
G37*
%LPD*%
%LPC*%
G36*
X431999Y347201D02*
X431999Y347201D01*
X439691Y347201D01*
X439691Y345186D01*
X434014Y339509D01*
X431999Y339509D01*
X431999Y347201D01*
G37*
%LPD*%
%LPC*%
G36*
X70309Y302799D02*
X70309Y302799D01*
X70309Y304814D01*
X75986Y310491D01*
X78001Y310491D01*
X78001Y302799D01*
X70309Y302799D01*
G37*
%LPD*%
%LPC*%
G36*
X450309Y452799D02*
X450309Y452799D01*
X450309Y454814D01*
X455986Y460491D01*
X458001Y460491D01*
X458001Y452799D01*
X450309Y452799D01*
G37*
%LPD*%
%LPC*%
G36*
X40309Y302799D02*
X40309Y302799D01*
X40309Y304814D01*
X45986Y310491D01*
X48001Y310491D01*
X48001Y302799D01*
X40309Y302799D01*
G37*
%LPD*%
%LPC*%
G36*
X449509Y51999D02*
X449509Y51999D01*
X449509Y54014D01*
X455186Y59691D01*
X457201Y59691D01*
X457201Y51999D01*
X449509Y51999D01*
G37*
%LPD*%
%LPC*%
G36*
X461199Y40309D02*
X461199Y40309D01*
X461199Y48001D01*
X468891Y48001D01*
X468891Y45986D01*
X463214Y40309D01*
X461199Y40309D01*
G37*
%LPD*%
%LPC*%
G36*
X461199Y70309D02*
X461199Y70309D01*
X461199Y78001D01*
X468891Y78001D01*
X468891Y75986D01*
X463214Y70309D01*
X461199Y70309D01*
G37*
%LPD*%
%LPC*%
G36*
X449509Y81999D02*
X449509Y81999D01*
X449509Y84014D01*
X455186Y89691D01*
X457201Y89691D01*
X457201Y81999D01*
X449509Y81999D01*
G37*
%LPD*%
%LPC*%
G36*
X455186Y40309D02*
X455186Y40309D01*
X449509Y45986D01*
X449509Y48001D01*
X457201Y48001D01*
X457201Y40309D01*
X455186Y40309D01*
G37*
%LPD*%
%LPC*%
G36*
X455186Y70309D02*
X455186Y70309D01*
X449509Y75986D01*
X449509Y78001D01*
X457201Y78001D01*
X457201Y70309D01*
X455186Y70309D01*
G37*
%LPD*%
%LPC*%
G36*
X425986Y339509D02*
X425986Y339509D01*
X420309Y345186D01*
X420309Y347201D01*
X428001Y347201D01*
X428001Y339509D01*
X425986Y339509D01*
G37*
%LPD*%
%LPC*%
G36*
X105986Y189509D02*
X105986Y189509D01*
X100309Y195186D01*
X100309Y197201D01*
X108001Y197201D01*
X108001Y189509D01*
X105986Y189509D01*
G37*
%LPD*%
%LPC*%
G36*
X285986Y339509D02*
X285986Y339509D01*
X280309Y345186D01*
X280309Y347201D01*
X288001Y347201D01*
X288001Y339509D01*
X285986Y339509D01*
G37*
%LPD*%
%LPC*%
G36*
X45986Y291109D02*
X45986Y291109D01*
X40309Y296786D01*
X40309Y298801D01*
X48001Y298801D01*
X48001Y291109D01*
X45986Y291109D01*
G37*
%LPD*%
%LPC*%
G36*
X75986Y291109D02*
X75986Y291109D01*
X70309Y296786D01*
X70309Y298801D01*
X78001Y298801D01*
X78001Y291109D01*
X75986Y291109D01*
G37*
%LPD*%
%LPC*%
G36*
X315986Y441109D02*
X315986Y441109D01*
X310309Y446786D01*
X310309Y448801D01*
X318001Y448801D01*
X318001Y441109D01*
X315986Y441109D01*
G37*
%LPD*%
%LPC*%
G36*
X455986Y441109D02*
X455986Y441109D01*
X450309Y446786D01*
X450309Y448801D01*
X458001Y448801D01*
X458001Y441109D01*
X455986Y441109D01*
G37*
%LPD*%
G36*
X362666Y481000D02*
X362666Y481000D01*
X362698Y480999D01*
X362803Y481028D01*
X362910Y481051D01*
X362939Y481066D01*
X362970Y481074D01*
X363063Y481132D01*
X363159Y481183D01*
X363182Y481206D01*
X363210Y481222D01*
X363283Y481304D01*
X363361Y481380D01*
X363377Y481408D01*
X363399Y481432D01*
X363446Y481530D01*
X363500Y481625D01*
X363508Y481657D01*
X363522Y481686D01*
X363536Y481775D01*
X363565Y481900D01*
X363563Y481948D01*
X363569Y481990D01*
X363569Y482274D01*
X365309Y486475D01*
X366206Y487371D01*
X366225Y487397D01*
X366250Y487418D01*
X366310Y487510D01*
X366375Y487597D01*
X366387Y487627D01*
X366404Y487654D01*
X366436Y487759D01*
X366475Y487861D01*
X366477Y487893D01*
X366487Y487924D01*
X366488Y488033D01*
X366497Y488142D01*
X366490Y488174D01*
X366490Y488206D01*
X366461Y488311D01*
X366439Y488418D01*
X366424Y488447D01*
X366415Y488478D01*
X366358Y488571D01*
X366307Y488667D01*
X366284Y488690D01*
X366267Y488718D01*
X366186Y488791D01*
X366110Y488869D01*
X366082Y488885D01*
X366058Y488907D01*
X365960Y488954D01*
X365864Y489008D01*
X365833Y489016D01*
X365804Y489030D01*
X365715Y489044D01*
X365590Y489073D01*
X365542Y489071D01*
X365499Y489077D01*
X359101Y489077D01*
X359069Y489073D01*
X359037Y489075D01*
X358930Y489053D01*
X358821Y489037D01*
X358792Y489024D01*
X358760Y489018D01*
X358664Y488966D01*
X358564Y488921D01*
X358540Y488900D01*
X358511Y488885D01*
X358433Y488809D01*
X358350Y488738D01*
X358332Y488711D01*
X358309Y488688D01*
X358256Y488593D01*
X358196Y488502D01*
X358186Y488471D01*
X358170Y488443D01*
X358145Y488337D01*
X358113Y488232D01*
X358113Y488200D01*
X358105Y488169D01*
X358111Y488059D01*
X358110Y487950D01*
X358118Y487919D01*
X358120Y487887D01*
X358156Y487784D01*
X358185Y487678D01*
X358202Y487651D01*
X358212Y487620D01*
X358266Y487547D01*
X358333Y487438D01*
X358369Y487406D01*
X358394Y487371D01*
X359291Y486475D01*
X361066Y482189D01*
X361074Y482175D01*
X361076Y482169D01*
X361089Y482147D01*
X361101Y482113D01*
X361152Y482044D01*
X361210Y481946D01*
X361219Y481937D01*
X361224Y481929D01*
X361258Y481898D01*
X361283Y481864D01*
X361863Y481284D01*
X361889Y481264D01*
X361910Y481240D01*
X362002Y481180D01*
X362089Y481114D01*
X362119Y481103D01*
X362146Y481085D01*
X362251Y481053D01*
X362353Y481015D01*
X362385Y481012D01*
X362416Y481003D01*
X362525Y481001D01*
X362634Y480993D01*
X362666Y481000D01*
G37*
G36*
X549580Y194577D02*
X549580Y194577D01*
X549612Y194575D01*
X549719Y194597D01*
X549827Y194613D01*
X549857Y194626D01*
X549888Y194632D01*
X549985Y194684D01*
X550084Y194729D01*
X550109Y194750D01*
X550137Y194765D01*
X550216Y194841D01*
X550298Y194912D01*
X550316Y194939D01*
X550339Y194962D01*
X550393Y195057D01*
X550453Y195148D01*
X550462Y195179D01*
X550478Y195207D01*
X550503Y195314D01*
X550535Y195418D01*
X550536Y195450D01*
X550543Y195481D01*
X550538Y195591D01*
X550539Y195700D01*
X550531Y195731D01*
X550529Y195763D01*
X550493Y195866D01*
X550464Y195972D01*
X550447Y195999D01*
X550436Y196030D01*
X550383Y196103D01*
X550316Y196212D01*
X550280Y196244D01*
X550255Y196279D01*
X548201Y198332D01*
X548149Y198371D01*
X548104Y198417D01*
X548037Y198455D01*
X547975Y198502D01*
X547915Y198524D01*
X547859Y198556D01*
X547784Y198574D01*
X547711Y198601D01*
X547647Y198606D01*
X547585Y198621D01*
X547507Y198617D01*
X547430Y198623D01*
X547367Y198610D01*
X547303Y198607D01*
X547230Y198581D01*
X547154Y198565D01*
X547097Y198535D01*
X547037Y198514D01*
X546980Y198473D01*
X546905Y198433D01*
X546844Y198374D01*
X546788Y198332D01*
X545568Y197113D01*
X544077Y196495D01*
X544002Y196451D01*
X543923Y196415D01*
X543881Y196380D01*
X543834Y196352D01*
X543775Y196288D01*
X543709Y196232D01*
X543679Y196186D01*
X543641Y196146D01*
X543602Y196069D01*
X543554Y195996D01*
X543538Y195943D01*
X543513Y195894D01*
X543497Y195809D01*
X543472Y195726D01*
X543471Y195671D01*
X543461Y195617D01*
X543469Y195531D01*
X543468Y195444D01*
X543483Y195391D01*
X543488Y195337D01*
X543520Y195256D01*
X543543Y195172D01*
X543572Y195125D01*
X543592Y195075D01*
X543646Y195006D01*
X543691Y194932D01*
X543732Y194896D01*
X543766Y194852D01*
X543836Y194801D01*
X543901Y194743D01*
X543950Y194719D01*
X543995Y194687D01*
X544076Y194658D01*
X544154Y194620D01*
X544205Y194612D01*
X544260Y194593D01*
X544374Y194586D01*
X544459Y194573D01*
X549548Y194573D01*
X549580Y194577D01*
G37*
%LPC*%
G36*
X429999Y349199D02*
X429999Y349199D01*
X429999Y349201D01*
X430001Y349201D01*
X430001Y349199D01*
X429999Y349199D01*
G37*
%LPD*%
%LPC*%
G36*
X459199Y79999D02*
X459199Y79999D01*
X459199Y80001D01*
X459201Y80001D01*
X459201Y79999D01*
X459199Y79999D01*
G37*
%LPD*%
%LPC*%
G36*
X319999Y450799D02*
X319999Y450799D01*
X319999Y450801D01*
X320001Y450801D01*
X320001Y450799D01*
X319999Y450799D01*
G37*
%LPD*%
%LPC*%
G36*
X459999Y450799D02*
X459999Y450799D01*
X459999Y450801D01*
X460001Y450801D01*
X460001Y450799D01*
X459999Y450799D01*
G37*
%LPD*%
%LPC*%
G36*
X49999Y300799D02*
X49999Y300799D01*
X49999Y300801D01*
X50001Y300801D01*
X50001Y300799D01*
X49999Y300799D01*
G37*
%LPD*%
%LPC*%
G36*
X289999Y349199D02*
X289999Y349199D01*
X289999Y349201D01*
X290001Y349201D01*
X290001Y349199D01*
X289999Y349199D01*
G37*
%LPD*%
%LPC*%
G36*
X459199Y49999D02*
X459199Y49999D01*
X459199Y50001D01*
X459201Y50001D01*
X459201Y49999D01*
X459199Y49999D01*
G37*
%LPD*%
%LPC*%
G36*
X109999Y199199D02*
X109999Y199199D01*
X109999Y199201D01*
X110001Y199201D01*
X110001Y199199D01*
X109999Y199199D01*
G37*
%LPD*%
%LPC*%
G36*
X709999Y302499D02*
X709999Y302499D01*
X709999Y302501D01*
X710001Y302501D01*
X710001Y302499D01*
X709999Y302499D01*
G37*
%LPD*%
%LPC*%
G36*
X438499Y211899D02*
X438499Y211899D01*
X438499Y211901D01*
X438501Y211901D01*
X438501Y211899D01*
X438499Y211899D01*
G37*
%LPD*%
D10*
X209900Y205296D02*
X209900Y218504D01*
X235300Y218504D02*
X235300Y205296D01*
X260700Y205296D02*
X260700Y218504D01*
X286100Y218504D02*
X286100Y205296D01*
X311500Y205296D02*
X311500Y218504D01*
X336900Y218504D02*
X336900Y205296D01*
X362300Y205296D02*
X362300Y218504D01*
X387700Y218504D02*
X387700Y205296D01*
X413100Y205296D02*
X413100Y218504D01*
X438500Y218504D02*
X438500Y205296D01*
X463900Y205296D02*
X463900Y218504D01*
X489300Y218504D02*
X489300Y205296D01*
X514700Y205296D02*
X514700Y218504D01*
X540100Y218504D02*
X540100Y205296D01*
X540100Y281496D02*
X540100Y294704D01*
X514700Y294704D02*
X514700Y281496D01*
X489300Y281496D02*
X489300Y294704D01*
X463900Y294704D02*
X463900Y281496D01*
X438500Y281496D02*
X438500Y294704D01*
X413100Y294704D02*
X413100Y281496D01*
X387700Y281496D02*
X387700Y294704D01*
X362300Y294704D02*
X362300Y281496D01*
X336900Y281496D02*
X336900Y294704D01*
X311500Y294704D02*
X311500Y281496D01*
X286100Y281496D02*
X286100Y294704D01*
X260700Y294704D02*
X260700Y281496D01*
X235300Y281496D02*
X235300Y294704D01*
X209900Y294704D02*
X209900Y281496D01*
D11*
X512500Y460000D03*
X547500Y460000D03*
X710000Y232500D03*
X710000Y197500D03*
X710000Y302500D03*
X710000Y267500D03*
D12*
X222700Y340000D03*
X197300Y340000D03*
D13*
X527300Y340000D03*
X552700Y340000D03*
D12*
X222700Y160000D03*
X197300Y160000D03*
D13*
X527300Y160000D03*
X552700Y160000D03*
D14*
X240000Y462700D03*
X240000Y437300D03*
D15*
X290000Y349200D03*
X290000Y450800D03*
D16*
X80000Y300800D03*
X80000Y199200D03*
D17*
X133531Y454892D02*
X151438Y454892D01*
X26470Y454892D02*
X8563Y454892D01*
X133531Y405108D02*
X151438Y405108D01*
X26470Y405108D02*
X8563Y405108D01*
X8563Y45108D02*
X26470Y45108D01*
X133531Y45108D02*
X151438Y45108D01*
X26470Y94892D02*
X8563Y94892D01*
X133531Y94892D02*
X151438Y94892D01*
X723531Y454892D02*
X741438Y454892D01*
X616470Y454892D02*
X598563Y454892D01*
X723531Y405108D02*
X741438Y405108D01*
X616470Y405108D02*
X598563Y405108D01*
X598563Y45108D02*
X616470Y45108D01*
X723531Y45108D02*
X741438Y45108D01*
X616470Y94892D02*
X598563Y94892D01*
X723531Y94892D02*
X741438Y94892D01*
D18*
X375000Y480000D03*
X349600Y480000D03*
X400400Y480000D03*
D15*
X110000Y199200D03*
X110000Y300800D03*
D16*
X460000Y450800D03*
X460000Y349200D03*
D19*
X459200Y80000D03*
X560800Y80000D03*
D16*
X50000Y300800D03*
X50000Y199200D03*
X20000Y300800D03*
X20000Y199200D03*
D19*
X459200Y50000D03*
X560800Y50000D03*
D15*
X430000Y349200D03*
X430000Y450800D03*
D16*
X320000Y450800D03*
X320000Y349200D03*
D20*
X434600Y180000D03*
X485400Y180000D03*
D21*
X215108Y72606D02*
X199868Y72606D01*
X199868Y27394D02*
X215108Y27394D01*
X264892Y72606D02*
X280132Y72606D01*
X280132Y27394D02*
X264892Y27394D01*
D19*
X329200Y320000D03*
X430800Y320000D03*
D22*
X142484Y454892D02*
X17516Y454892D01*
X607516Y454892D02*
X732484Y454892D01*
X732484Y45108D02*
X607516Y45108D01*
X142484Y45108D02*
X17516Y45108D01*
X142484Y45108D02*
X160198Y27394D01*
X207488Y27394D01*
X272512Y27394D01*
X142484Y454892D02*
X150292Y462700D01*
X240000Y462700D01*
X257300Y480000D01*
X349600Y480000D01*
X354345Y480000D01*
X368950Y465395D01*
X406450Y465395D01*
X421055Y480000D01*
X582408Y480000D02*
X607516Y454892D01*
X582408Y480000D02*
X421055Y480000D01*
X272512Y27394D02*
X589802Y27394D01*
X607516Y45108D01*
D23*
X540000Y240000D03*
X540000Y260000D03*
X520000Y260000D03*
X520000Y240000D03*
X500000Y240000D03*
X500000Y260000D03*
X480000Y260000D03*
X480000Y240000D03*
X460000Y260000D03*
X440000Y260000D03*
X420000Y260000D03*
X400000Y260000D03*
X380000Y260000D03*
X240000Y260000D03*
X240000Y240000D03*
X50000Y430000D03*
X110000Y430000D03*
X50000Y70000D03*
X110000Y70000D03*
X640000Y70000D03*
X700000Y70000D03*
X700000Y430000D03*
X640000Y430000D03*
X240000Y110000D03*
X280000Y110000D03*
X280000Y140000D03*
X240000Y140000D03*
X30000Y330000D03*
X50000Y330000D03*
X70000Y330000D03*
X180000Y440000D03*
X180000Y420000D03*
X180000Y400000D03*
X520000Y430000D03*
X540000Y430000D03*
X360000Y350000D03*
X340000Y350000D03*
X170000Y190000D03*
X140000Y190000D03*
X40000Y160000D03*
X450000Y130000D03*
X490000Y130000D03*
X420000Y80000D03*
X420000Y50000D03*
X590000Y160000D03*
X590000Y130000D03*
X570000Y210000D03*
X590000Y210000D03*
X610000Y210000D03*
X680000Y310000D03*
X680000Y290000D03*
X680000Y270000D03*
X680000Y250000D03*
X680000Y230000D03*
X610000Y310000D03*
X610000Y360000D03*
X570000Y370000D03*
X500000Y370000D03*
X170000Y50000D03*
X170000Y80000D03*
D24*
X240000Y437300D02*
X253500Y450800D01*
X290000Y450800D01*
X667500Y190000D02*
X710000Y232500D01*
X536600Y190000D02*
X514700Y211900D01*
X536600Y190000D02*
X667500Y190000D01*
X197300Y340000D02*
X158100Y300800D01*
X110000Y300800D01*
X366600Y267000D02*
X387700Y288100D01*
X259391Y267000D02*
X249000Y277391D01*
X259391Y267000D02*
X366600Y267000D01*
X249000Y317000D02*
X242927Y323073D01*
D25*
X242927Y323073D03*
D24*
X249000Y317000D02*
X249000Y277391D01*
X483000Y340000D02*
X527300Y340000D01*
X384000Y332000D02*
X369000Y317000D01*
X475000Y332000D02*
X483000Y340000D01*
X475000Y332000D02*
X384000Y332000D01*
D25*
X369000Y317000D03*
D24*
X248000Y185300D02*
X222700Y160000D01*
X248000Y234000D02*
X262000Y248000D01*
X263000Y249000D01*
X248000Y234000D02*
X248000Y185300D01*
X263000Y249000D02*
X274904Y260904D01*
X332096Y260904D01*
X337000Y256000D01*
D25*
X337000Y256000D03*
D24*
X493180Y194120D02*
X527300Y160000D01*
X493180Y194120D02*
X484671Y194120D01*
X476000Y202791D02*
X476000Y224000D01*
X476000Y202791D02*
X484671Y194120D01*
D25*
X316000Y252522D03*
D24*
X330522Y238000D01*
X462000Y238000D02*
X476000Y224000D01*
X462000Y238000D02*
X330522Y238000D01*
X142484Y405108D02*
X80000Y405108D01*
X17516Y405108D01*
X80000Y405108D02*
X94000Y391108D01*
X94000Y213200D02*
X80000Y199200D01*
X94000Y290000D02*
X94000Y391108D01*
X94000Y290000D02*
X94000Y213200D01*
X101000Y283000D02*
X94000Y290000D01*
X101000Y283000D02*
X185000Y283000D01*
X209900Y258100D01*
X209900Y211900D01*
X607516Y405108D02*
X732484Y405108D01*
X607516Y405108D02*
X475692Y405108D01*
X430000Y450800D01*
X430000Y435000D01*
X222000Y225200D02*
X235300Y211900D01*
X374000Y379000D02*
X430000Y435000D01*
X374000Y379000D02*
X287000Y379000D01*
X222000Y314000D01*
X222000Y225200D01*
X142484Y94892D02*
X17516Y94892D01*
X20000Y97376D01*
X20000Y199200D01*
X142484Y94892D02*
X180892Y94892D01*
X260700Y174700D02*
X260700Y211900D01*
X260700Y174700D02*
X180892Y94892D01*
X607516Y94892D02*
X732484Y94892D01*
X607516Y94892D02*
X562624Y50000D01*
X560800Y50000D01*
X511000Y50000D01*
X456000Y105000D02*
X345000Y105000D01*
X324000Y126000D01*
X456000Y105000D02*
X511000Y50000D01*
X324000Y224000D02*
X315000Y233000D01*
X296000Y233000D01*
X286000Y223000D01*
X286000Y212000D01*
X286100Y211900D01*
X324000Y224000D02*
X324000Y126000D01*
X538700Y354000D02*
X552700Y340000D01*
X464800Y354000D02*
X460000Y349200D01*
X464800Y354000D02*
X538700Y354000D01*
X197300Y160000D02*
X89200Y160000D01*
X50000Y199200D01*
X552700Y88100D02*
X560800Y80000D01*
X552700Y88100D02*
X552700Y160000D01*
X270000Y72606D02*
X207488Y72606D01*
X270000Y72606D02*
X272512Y72606D01*
X311500Y114106D02*
X311500Y211900D01*
X311500Y114106D02*
X270000Y72606D01*
X300400Y329600D02*
X320000Y349200D01*
X300400Y329600D02*
X298000Y327200D01*
X298000Y303000D01*
D25*
X298000Y303000D03*
D24*
X489300Y211900D02*
X507400Y230000D01*
X544409Y230000D02*
X552000Y222409D01*
X552000Y201000D01*
X556904Y196096D01*
X695000Y252500D02*
X710000Y267500D01*
X544409Y230000D02*
X507400Y230000D01*
X556904Y196096D02*
X664975Y196096D01*
X695000Y226121D01*
X695000Y252500D01*
X540100Y288100D02*
X514700Y288100D01*
X489300Y288100D01*
X463900Y288100D01*
X445000Y307000D01*
X342200Y307000D02*
X329200Y320000D01*
X342200Y307000D02*
X445000Y307000D01*
M02*
